<mxfile host="app.diagrams.net" agent="Mozilla/5.0 (Windows NT 10.0; Win64; x64) AppleWebKit/537.36 (KHTML, like Gecko) Chrome/129.0.0.0 Safari/537.36" version="24.7.16">
  <diagram name="Page-1" id="Z-PiCPyD8rV-j4vvSO89">
    <mxGraphModel dx="2074" dy="1226" grid="1" gridSize="10" guides="1" tooltips="1" connect="1" arrows="1" fold="1" page="1" pageScale="1" pageWidth="1169" pageHeight="827" math="0" shadow="0">
      <root>
        <mxCell id="0" />
        <mxCell id="1" parent="0" />
        <mxCell id="yM_bUhSgiwBoC7ienWPF-16" value="Business" style="swimlane;whiteSpace=wrap;html=1;fillColor=#fff2cc;strokeColor=#d6b656;" parent="1" vertex="1">
          <mxGeometry x="720" y="40" width="200" height="1440" as="geometry" />
        </mxCell>
        <mxCell id="yM_bUhSgiwBoC7ienWPF-41" value="&lt;b&gt;UserService&lt;/b&gt;" style="swimlane;fontStyle=0;childLayout=stackLayout;horizontal=1;startSize=30;horizontalStack=0;resizeParent=1;resizeParentMax=0;resizeLast=0;collapsible=1;marginBottom=0;whiteSpace=wrap;html=1;strokeColor=#ae4132;fillColor=#fad9d5;" parent="yM_bUhSgiwBoC7ienWPF-16" vertex="1">
          <mxGeometry x="25" y="50" width="140" height="150" as="geometry">
            <mxRectangle x="35" y="110" width="60" height="30" as="alternateBounds" />
          </mxGeometry>
        </mxCell>
        <mxCell id="yM_bUhSgiwBoC7ienWPF-42" value="Connect to DAO" style="text;strokeColor=#ae4132;fillColor=#fad9d5;align=left;verticalAlign=middle;spacingLeft=4;spacingRight=4;overflow=hidden;points=[[0,0.5],[1,0.5]];portConstraint=eastwest;rotatable=0;whiteSpace=wrap;html=1;" parent="yM_bUhSgiwBoC7ienWPF-41" vertex="1">
          <mxGeometry y="30" width="140" height="30" as="geometry" />
        </mxCell>
        <mxCell id="yM_bUhSgiwBoC7ienWPF-43" value="Check if user exists" style="text;strokeColor=#ae4132;fillColor=#fad9d5;align=left;verticalAlign=middle;spacingLeft=4;spacingRight=4;overflow=hidden;points=[[0,0.5],[1,0.5]];portConstraint=eastwest;rotatable=0;whiteSpace=wrap;html=1;" parent="yM_bUhSgiwBoC7ienWPF-41" vertex="1">
          <mxGeometry y="60" width="140" height="30" as="geometry" />
        </mxCell>
        <mxCell id="yM_bUhSgiwBoC7ienWPF-44" value="Register user" style="text;strokeColor=#ae4132;fillColor=#fad9d5;align=left;verticalAlign=middle;spacingLeft=4;spacingRight=4;overflow=hidden;points=[[0,0.5],[1,0.5]];portConstraint=eastwest;rotatable=0;whiteSpace=wrap;html=1;" parent="yM_bUhSgiwBoC7ienWPF-41" vertex="1">
          <mxGeometry y="90" width="140" height="30" as="geometry" />
        </mxCell>
        <mxCell id="yM_bUhSgiwBoC7ienWPF-48" value="UserService" style="swimlane;fillColor=#fff2cc;strokeColor=#d6b656;" parent="yM_bUhSgiwBoC7ienWPF-41" vertex="1" collapsed="1">
          <mxGeometry y="120" width="140" height="30" as="geometry">
            <mxRectangle y="120" width="140" height="260" as="alternateBounds" />
          </mxGeometry>
        </mxCell>
        <mxCell id="yM_bUhSgiwBoC7ienWPF-49" value="&lt;div style=&quot;background-color: rgb(31, 31, 31); line-height: 19px;&quot;&gt;&lt;div style=&quot;color: rgb(204, 204, 204); font-family: Consolas, &amp;quot;Courier New&amp;quot;, monospace; font-size: 14px; white-space-collapse: preserve; text-align: left;&quot;&gt;&lt;span style=&quot;color: #569cd6;&quot;&gt;public&lt;/span&gt;&lt;span style=&quot;color: #d4d4d4;&quot;&gt; &lt;/span&gt;&lt;span style=&quot;color: #569cd6;&quot;&gt;function&lt;/span&gt;&lt;span style=&quot;color: #d4d4d4;&quot;&gt; &lt;/span&gt;&lt;span style=&quot;color: #dcdcaa;&quot;&gt;registerUser&lt;/span&gt;&lt;span style=&quot;color: #d4d4d4;&quot;&gt;(&lt;/span&gt;&lt;span style=&quot;color: #9cdcfe;&quot;&gt;$email&lt;/span&gt;&lt;span style=&quot;color: #d4d4d4;&quot;&gt;): ?&lt;/span&gt;&lt;span style=&quot;color: #569cd6;&quot;&gt;int&lt;/span&gt;&lt;/div&gt;&lt;div style=&quot;color: rgb(204, 204, 204); font-family: Consolas, &amp;quot;Courier New&amp;quot;, monospace; font-size: 14px; white-space-collapse: preserve; text-align: left;&quot;&gt;&lt;span style=&quot;color: #d4d4d4;&quot;&gt;&amp;nbsp; &amp;nbsp; {&lt;/span&gt;&lt;/div&gt;&lt;div style=&quot;color: rgb(204, 204, 204); font-family: Consolas, &amp;quot;Courier New&amp;quot;, monospace; font-size: 14px; white-space-collapse: preserve; text-align: left;&quot;&gt;&lt;span style=&quot;color: #d4d4d4;&quot;&gt;&amp;nbsp; &amp;nbsp; &amp;nbsp; &amp;nbsp; &lt;/span&gt;&lt;span style=&quot;color: #9cdcfe;&quot;&gt;$userDAO&lt;/span&gt;&lt;span style=&quot;color: #d4d4d4;&quot;&gt; = &lt;/span&gt;&lt;span style=&quot;color: #569cd6;&quot;&gt;new&lt;/span&gt;&lt;span style=&quot;color: #d4d4d4;&quot;&gt; &lt;/span&gt;&lt;span style=&quot;color: #4ec9b0;&quot;&gt;UserDAO&lt;/span&gt;&lt;span style=&quot;color: #d4d4d4;&quot;&gt;();&lt;/span&gt;&lt;/div&gt;&lt;div style=&quot;color: rgb(204, 204, 204); font-family: Consolas, &amp;quot;Courier New&amp;quot;, monospace; font-size: 14px; white-space-collapse: preserve; text-align: left;&quot;&gt;&lt;span style=&quot;color: #d4d4d4;&quot;&gt;&amp;nbsp; &amp;nbsp; &amp;nbsp; &amp;nbsp; &lt;/span&gt;&lt;span style=&quot;color: #6a9955;&quot;&gt;// check if user exists&lt;/span&gt;&lt;/div&gt;&lt;div style=&quot;color: rgb(204, 204, 204); font-family: Consolas, &amp;quot;Courier New&amp;quot;, monospace; font-size: 14px; white-space-collapse: preserve; text-align: left;&quot;&gt;&lt;span style=&quot;color: #d4d4d4;&quot;&gt;&amp;nbsp; &amp;nbsp; &amp;nbsp; &amp;nbsp; &lt;/span&gt;&lt;span style=&quot;color: #c586c0;&quot;&gt;if&lt;/span&gt;&lt;span style=&quot;color: #d4d4d4;&quot;&gt; (&lt;/span&gt;&lt;span style=&quot;color: #9cdcfe;&quot;&gt;$userDAO&lt;/span&gt;&lt;span style=&quot;color: #d4d4d4;&quot;&gt;-&amp;gt;&lt;/span&gt;&lt;span style=&quot;color: #dcdcaa;&quot;&gt;isUser&lt;/span&gt;&lt;span style=&quot;color: #d4d4d4;&quot;&gt;(&lt;/span&gt;&lt;span style=&quot;color: #9cdcfe;&quot;&gt;$email&lt;/span&gt;&lt;span style=&quot;color: #d4d4d4;&quot;&gt;) === &lt;/span&gt;&lt;span style=&quot;color: #569cd6;&quot;&gt;null&lt;/span&gt;&lt;span style=&quot;color: #d4d4d4;&quot;&gt;) {&lt;/span&gt;&lt;/div&gt;&lt;div style=&quot;text-align: left;&quot;&gt;&lt;font face=&quot;Consolas, Courier New, monospace&quot; color=&quot;#cccccc&quot;&gt;&lt;span style=&quot;font-size: 14px; white-space-collapse: preserve;&quot;&gt;&lt;br&gt;&lt;/span&gt;&lt;/font&gt;&lt;/div&gt;&lt;div style=&quot;text-align: left; color: rgb(204, 204, 204); font-family: Consolas, &amp;quot;Courier New&amp;quot;, monospace; font-size: 14px; white-space-collapse: preserve;&quot;&gt;&lt;span style=&quot;color: #d4d4d4;&quot;&gt;&amp;nbsp; &amp;nbsp; &amp;nbsp; &amp;nbsp; &amp;nbsp; &amp;nbsp; &lt;/span&gt;&lt;span style=&quot;color: #c586c0;&quot;&gt;return&lt;/span&gt;&lt;span style=&quot;color: #d4d4d4;&quot;&gt; &lt;/span&gt;&lt;span style=&quot;color: #9cdcfe;&quot;&gt;$userDAO&lt;/span&gt;&lt;span style=&quot;color: #d4d4d4;&quot;&gt;-&amp;gt;&lt;/span&gt;&lt;span style=&quot;color: #dcdcaa;&quot;&gt;addUser&lt;/span&gt;&lt;span style=&quot;color: #d4d4d4;&quot;&gt;(&lt;/span&gt;&lt;span style=&quot;color: #9cdcfe;&quot;&gt;$email&lt;/span&gt;&lt;span style=&quot;color: #d4d4d4;&quot;&gt;);&lt;/span&gt;&lt;/div&gt;&lt;div style=&quot;text-align: left; color: rgb(204, 204, 204); font-family: Consolas, &amp;quot;Courier New&amp;quot;, monospace; font-size: 14px; white-space-collapse: preserve;&quot;&gt;&lt;span style=&quot;color: #d4d4d4;&quot;&gt;&amp;nbsp; &amp;nbsp; &amp;nbsp; &amp;nbsp; } &lt;/span&gt;&lt;span style=&quot;color: #c586c0;&quot;&gt;else&lt;/span&gt;&lt;span style=&quot;color: #d4d4d4;&quot;&gt; {&lt;/span&gt;&lt;/div&gt;&lt;div style=&quot;text-align: left; color: rgb(204, 204, 204); font-family: Consolas, &amp;quot;Courier New&amp;quot;, monospace; font-size: 14px; white-space-collapse: preserve;&quot;&gt;&lt;span style=&quot;color: #d4d4d4;&quot;&gt;&amp;nbsp; &amp;nbsp; &amp;nbsp; &amp;nbsp; &amp;nbsp; &amp;nbsp; &lt;/span&gt;&lt;span style=&quot;color: #c586c0;&quot;&gt;throw&lt;/span&gt;&lt;span style=&quot;color: #d4d4d4;&quot;&gt; &lt;/span&gt;&lt;span style=&quot;color: #569cd6;&quot;&gt;new&lt;/span&gt;&lt;span style=&quot;color: #d4d4d4;&quot;&gt; &lt;/span&gt;&lt;span style=&quot;color: #4ec9b0;&quot;&gt;RegistrationException&lt;/span&gt;&lt;span style=&quot;color: #d4d4d4;&quot;&gt;(&lt;/span&gt;&lt;span style=&quot;color: #ce9178;&quot;&gt;&#39;E-mail bestaat!&#39;&lt;/span&gt;&lt;span style=&quot;color: #d4d4d4;&quot;&gt;);&lt;/span&gt;&lt;/div&gt;&lt;div style=&quot;text-align: left; color: rgb(204, 204, 204); font-family: Consolas, &amp;quot;Courier New&amp;quot;, monospace; font-size: 14px; white-space-collapse: preserve;&quot;&gt;&lt;span style=&quot;color: #d4d4d4;&quot;&gt;&amp;nbsp; &amp;nbsp; &amp;nbsp; &amp;nbsp; }&lt;/span&gt;&lt;/div&gt;&lt;div style=&quot;text-align: left; color: rgb(204, 204, 204); font-family: Consolas, &amp;quot;Courier New&amp;quot;, monospace; font-size: 14px; white-space-collapse: preserve;&quot;&gt;&lt;span style=&quot;color: #d4d4d4;&quot;&gt;&amp;nbsp; &amp;nbsp; }&lt;/span&gt;&lt;/div&gt;&lt;br&gt;&lt;/div&gt;" style="text;html=1;align=center;verticalAlign=middle;resizable=0;points=[];autosize=1;strokeColor=none;fillColor=none;" parent="yM_bUhSgiwBoC7ienWPF-48" vertex="1">
          <mxGeometry x="5" y="20" width="510" height="240" as="geometry" />
        </mxCell>
        <mxCell id="yM_bUhSgiwBoC7ienWPF-73" value="UserService" style="swimlane;fontStyle=1;childLayout=stackLayout;horizontal=1;startSize=26;horizontalStack=0;resizeParent=1;resizeParentMax=0;resizeLast=0;collapsible=1;marginBottom=0;align=center;fontSize=14;strokeColor=#6c8ebf;fillColor=#dae8fc;" parent="yM_bUhSgiwBoC7ienWPF-16" vertex="1">
          <mxGeometry x="16.25" y="250" width="170" height="478.6666666666667" as="geometry" />
        </mxCell>
        <mxCell id="yM_bUhSgiwBoC7ienWPF-142" value="" style="group;fillColor=#dae8fc;strokeColor=#6c8ebf;" parent="yM_bUhSgiwBoC7ienWPF-73" vertex="1" connectable="0">
          <mxGeometry y="26" width="170" height="452.6666666666667" as="geometry" />
        </mxCell>
        <mxCell id="yM_bUhSgiwBoC7ienWPF-74" value="Check login" style="text;strokeColor=#6c8ebf;fillColor=#dae8fc;spacingLeft=4;spacingRight=4;overflow=hidden;rotatable=0;points=[[0,0.5],[1,0.5]];portConstraint=eastwest;fontSize=12;whiteSpace=wrap;html=1;" parent="yM_bUhSgiwBoC7ienWPF-142" vertex="1">
          <mxGeometry width="170" height="31.333333333333336" as="geometry" />
        </mxCell>
        <mxCell id="yM_bUhSgiwBoC7ienWPF-75" value="Create Object from User" style="text;strokeColor=#6c8ebf;fillColor=#dae8fc;spacingLeft=4;spacingRight=4;overflow=hidden;rotatable=0;points=[[0,0.5],[1,0.5]];portConstraint=eastwest;fontSize=12;whiteSpace=wrap;html=1;" parent="yM_bUhSgiwBoC7ienWPF-142" vertex="1">
          <mxGeometry y="31.333333333333336" width="170" height="31.333333333333336" as="geometry" />
        </mxCell>
        <mxCell id="yM_bUhSgiwBoC7ienWPF-82" value="UserService" style="swimlane;fillColor=#fff2cc;strokeColor=#d6b656;" parent="yM_bUhSgiwBoC7ienWPF-142" vertex="1" collapsed="1">
          <mxGeometry y="62.67" width="170" height="31.333333333333336" as="geometry">
            <mxRectangle y="62.67" width="170" height="37.33" as="alternateBounds" />
          </mxGeometry>
        </mxCell>
        <mxCell id="yM_bUhSgiwBoC7ienWPF-83" value="&lt;div style=&quot;color: rgb(204, 204, 204); background-color: rgb(31, 31, 31); font-family: Consolas, &amp;quot;Courier New&amp;quot;, monospace; font-size: 14px; line-height: 19px; white-space-collapse: preserve;&quot;&gt;&lt;div&gt;&lt;span style=&quot;color: #569cd6;&quot;&gt;public&lt;/span&gt;&lt;span style=&quot;color: #d4d4d4;&quot;&gt; &lt;/span&gt;&lt;span style=&quot;color: #569cd6;&quot;&gt;function&lt;/span&gt;&lt;span style=&quot;color: #d4d4d4;&quot;&gt; &lt;/span&gt;&lt;span style=&quot;color: #dcdcaa;&quot;&gt;checkLogin&lt;/span&gt;&lt;span style=&quot;color: #d4d4d4;&quot;&gt;(&lt;/span&gt;&lt;span style=&quot;color: #9cdcfe;&quot;&gt;$email&lt;/span&gt;&lt;span style=&quot;color: #d4d4d4;&quot;&gt;, &lt;/span&gt;&lt;span style=&quot;color: #9cdcfe;&quot;&gt;$password&lt;/span&gt;&lt;span style=&quot;color: #d4d4d4;&quot;&gt;): &lt;/span&gt;&lt;span style=&quot;color: #569cd6;&quot;&gt;bool&lt;/span&gt;&lt;/div&gt;&lt;div&gt;&lt;span style=&quot;color: #d4d4d4;&quot;&gt;&amp;nbsp; &amp;nbsp; {&lt;/span&gt;&lt;/div&gt;&lt;div&gt;&lt;span style=&quot;color: #d4d4d4;&quot;&gt;&amp;nbsp; &amp;nbsp; &amp;nbsp; &amp;nbsp; &lt;/span&gt;&lt;span style=&quot;color: #9cdcfe;&quot;&gt;$userDAO&lt;/span&gt;&lt;span style=&quot;color: #d4d4d4;&quot;&gt; = &lt;/span&gt;&lt;span style=&quot;color: #569cd6;&quot;&gt;new&lt;/span&gt;&lt;span style=&quot;color: #d4d4d4;&quot;&gt; &lt;/span&gt;&lt;span style=&quot;color: #4ec9b0;&quot;&gt;UserDAO&lt;/span&gt;&lt;span style=&quot;color: #d4d4d4;&quot;&gt;;&lt;/span&gt;&lt;/div&gt;&lt;div&gt;&lt;span style=&quot;color: #d4d4d4;&quot;&gt;&amp;nbsp; &amp;nbsp; &amp;nbsp; &amp;nbsp; &lt;/span&gt;&lt;span style=&quot;color: #9cdcfe;&quot;&gt;$user&lt;/span&gt;&lt;span style=&quot;color: #d4d4d4;&quot;&gt; = &lt;/span&gt;&lt;span style=&quot;color: #9cdcfe;&quot;&gt;$userDAO&lt;/span&gt;&lt;span style=&quot;color: #d4d4d4;&quot;&gt;-&amp;gt;&lt;/span&gt;&lt;span style=&quot;color: #dcdcaa;&quot;&gt;getUserByEmail&lt;/span&gt;&lt;span style=&quot;color: #d4d4d4;&quot;&gt;(&lt;/span&gt;&lt;span style=&quot;color: #9cdcfe;&quot;&gt;$email&lt;/span&gt;&lt;span style=&quot;color: #d4d4d4;&quot;&gt;);&lt;/span&gt;&lt;/div&gt;&lt;br&gt;&lt;div&gt;&lt;span style=&quot;color: #d4d4d4;&quot;&gt;&amp;nbsp; &amp;nbsp; &amp;nbsp; &amp;nbsp; &lt;/span&gt;&lt;span style=&quot;color: #c586c0;&quot;&gt;if&lt;/span&gt;&lt;span style=&quot;color: #d4d4d4;&quot;&gt; (&lt;/span&gt;&lt;span style=&quot;color: #9cdcfe;&quot;&gt;$user&lt;/span&gt;&lt;span style=&quot;color: #d4d4d4;&quot;&gt; instanceof &lt;/span&gt;&lt;span style=&quot;color: #4ec9b0;&quot;&gt;User&lt;/span&gt;&lt;span style=&quot;color: #d4d4d4;&quot;&gt;) &lt;/span&gt;&lt;span style=&quot;color: #c586c0;&quot;&gt;return&lt;/span&gt;&lt;span style=&quot;color: #d4d4d4;&quot;&gt; &lt;/span&gt;&lt;span style=&quot;color: #9cdcfe;&quot;&gt;$user&lt;/span&gt;&lt;span style=&quot;color: #d4d4d4;&quot;&gt; &amp;amp;&amp;amp; &lt;/span&gt;&lt;span style=&quot;color: #9cdcfe;&quot;&gt;$user&lt;/span&gt;&lt;span style=&quot;color: #d4d4d4;&quot;&gt;-&amp;gt;&lt;/span&gt;&lt;span style=&quot;color: #dcdcaa;&quot;&gt;getPassword&lt;/span&gt;&lt;span style=&quot;color: #d4d4d4;&quot;&gt;() === &lt;/span&gt;&lt;span style=&quot;color: #9cdcfe;&quot;&gt;$password&lt;/span&gt;&lt;span style=&quot;color: #d4d4d4;&quot;&gt;;&lt;/span&gt;&lt;/div&gt;&lt;br&gt;&lt;div&gt;&lt;span style=&quot;color: #d4d4d4;&quot;&gt;&amp;nbsp; &amp;nbsp; &amp;nbsp; &amp;nbsp; &lt;/span&gt;&lt;span style=&quot;color: #c586c0;&quot;&gt;return&lt;/span&gt;&lt;span style=&quot;color: #d4d4d4;&quot;&gt; &lt;/span&gt;&lt;span style=&quot;color: #569cd6;&quot;&gt;false&lt;/span&gt;&lt;span style=&quot;color: #d4d4d4;&quot;&gt;;&lt;/span&gt;&lt;/div&gt;&lt;div&gt;&lt;span style=&quot;color: #d4d4d4;&quot;&gt;&amp;nbsp; &amp;nbsp; }&lt;/span&gt;&lt;/div&gt;&lt;br&gt;&lt;div&gt;&lt;span style=&quot;color: #d4d4d4;&quot;&gt;&amp;nbsp; &amp;nbsp; &lt;/span&gt;&lt;span style=&quot;color: #569cd6;&quot;&gt;public&lt;/span&gt;&lt;span style=&quot;color: #d4d4d4;&quot;&gt; &lt;/span&gt;&lt;span style=&quot;color: #569cd6;&quot;&gt;function&lt;/span&gt;&lt;span style=&quot;color: #d4d4d4;&quot;&gt; &lt;/span&gt;&lt;span style=&quot;color: #dcdcaa;&quot;&gt;findUserbyEmail&lt;/span&gt;&lt;span style=&quot;color: #d4d4d4;&quot;&gt;(&lt;/span&gt;&lt;span style=&quot;color: #9cdcfe;&quot;&gt;$email&lt;/span&gt;&lt;span style=&quot;color: #d4d4d4;&quot;&gt;)&lt;/span&gt;&lt;/div&gt;&lt;div&gt;&lt;span style=&quot;color: #d4d4d4;&quot;&gt;&amp;nbsp; &amp;nbsp; {&lt;/span&gt;&lt;/div&gt;&lt;div&gt;&lt;span style=&quot;color: #d4d4d4;&quot;&gt;&amp;nbsp; &amp;nbsp; &amp;nbsp; &amp;nbsp; &lt;/span&gt;&lt;span style=&quot;color: #9cdcfe;&quot;&gt;$userDAO&lt;/span&gt;&lt;span style=&quot;color: #d4d4d4;&quot;&gt; = &lt;/span&gt;&lt;span style=&quot;color: #569cd6;&quot;&gt;new&lt;/span&gt;&lt;span style=&quot;color: #d4d4d4;&quot;&gt; &lt;/span&gt;&lt;span style=&quot;color: #4ec9b0;&quot;&gt;UserDAO&lt;/span&gt;&lt;span style=&quot;color: #d4d4d4;&quot;&gt;();&lt;/span&gt;&lt;/div&gt;&lt;div&gt;&lt;span style=&quot;color: #d4d4d4;&quot;&gt;&amp;nbsp; &amp;nbsp; &amp;nbsp; &amp;nbsp; &lt;/span&gt;&lt;span style=&quot;color: #9cdcfe;&quot;&gt;$user&lt;/span&gt;&lt;span style=&quot;color: #d4d4d4;&quot;&gt; = &lt;/span&gt;&lt;span style=&quot;color: #9cdcfe;&quot;&gt;$userDAO&lt;/span&gt;&lt;span style=&quot;color: #d4d4d4;&quot;&gt;-&amp;gt;&lt;/span&gt;&lt;span style=&quot;color: #dcdcaa;&quot;&gt;getUserByEmail&lt;/span&gt;&lt;span style=&quot;color: #d4d4d4;&quot;&gt;(&lt;/span&gt;&lt;span style=&quot;color: #9cdcfe;&quot;&gt;$email&lt;/span&gt;&lt;span style=&quot;color: #d4d4d4;&quot;&gt;);&lt;/span&gt;&lt;/div&gt;&lt;br&gt;&lt;div&gt;&lt;span style=&quot;color: #d4d4d4;&quot;&gt;&amp;nbsp; &amp;nbsp; &amp;nbsp; &amp;nbsp; &lt;/span&gt;&lt;span style=&quot;color: #c586c0;&quot;&gt;return&lt;/span&gt;&lt;span style=&quot;color: #d4d4d4;&quot;&gt; &lt;/span&gt;&lt;span style=&quot;color: #9cdcfe;&quot;&gt;$user&lt;/span&gt;&lt;span style=&quot;color: #d4d4d4;&quot;&gt;;&lt;/span&gt;&lt;/div&gt;&lt;div&gt;&lt;span style=&quot;color: #d4d4d4;&quot;&gt;&amp;nbsp; &amp;nbsp; }&lt;/span&gt;&lt;/div&gt;&lt;br&gt;&lt;/div&gt;" style="text;html=1;align=left;verticalAlign=middle;resizable=0;points=[];autosize=1;strokeColor=none;fillColor=none;" parent="yM_bUhSgiwBoC7ienWPF-82" vertex="1">
          <mxGeometry x="10" y="31.333333333333336" width="690" height="360" as="geometry" />
        </mxCell>
        <mxCell id="yM_bUhSgiwBoC7ienWPF-95" value="" style="endArrow=none;html=1;rounded=0;strokeColor=#6c8ebf;entryX=0.5;entryY=0;entryDx=0;entryDy=0;exitX=0.5;exitY=1;exitDx=0;exitDy=0;fillColor=#dae8fc;" parent="yM_bUhSgiwBoC7ienWPF-16" source="yM_bUhSgiwBoC7ienWPF-82" target="yM_bUhSgiwBoC7ienWPF-89" edge="1">
          <mxGeometry relative="1" as="geometry">
            <mxPoint x="101" y="370" as="sourcePoint" />
            <mxPoint x="110" y="380" as="targetPoint" />
          </mxGeometry>
        </mxCell>
        <mxCell id="yM_bUhSgiwBoC7ienWPF-117" value="BroodService" style="swimlane;fontStyle=1;childLayout=stackLayout;horizontal=1;startSize=26;horizontalStack=0;resizeParent=1;resizeParentMax=0;resizeLast=0;collapsible=1;marginBottom=0;align=center;fontSize=14;strokeColor=#d79b00;fillColor=#ffe6cc;fontColor=default;" parent="yM_bUhSgiwBoC7ienWPF-16" vertex="1">
          <mxGeometry x="8.129999999999999" y="530" width="183.75" height="86" as="geometry">
            <mxRectangle x="12.5" y="390" width="140" height="30" as="alternateBounds" />
          </mxGeometry>
        </mxCell>
        <mxCell id="yM_bUhSgiwBoC7ienWPF-119" value="Show all sandwiches" style="text;strokeColor=#d79b00;fillColor=#ffe6cc;spacingLeft=4;spacingRight=4;overflow=hidden;rotatable=0;points=[[0,0.5],[1,0.5]];portConstraint=eastwest;fontSize=12;whiteSpace=wrap;html=1;fontColor=default;" parent="yM_bUhSgiwBoC7ienWPF-117" vertex="1">
          <mxGeometry y="26" width="183.75" height="30" as="geometry" />
        </mxCell>
        <mxCell id="yM_bUhSgiwBoC7ienWPF-120" value="BroodService" style="swimlane;fillColor=#fff2cc;strokeColor=#d6b656;" parent="yM_bUhSgiwBoC7ienWPF-117" vertex="1" collapsed="1">
          <mxGeometry y="56" width="183.75" height="30" as="geometry">
            <mxRectangle y="56" width="183.75" height="390" as="alternateBounds" />
          </mxGeometry>
        </mxCell>
        <mxCell id="yM_bUhSgiwBoC7ienWPF-121" value="&lt;div style=&quot;color: rgb(204, 204, 204); background-color: rgb(31, 31, 31); font-family: Consolas, &amp;quot;Courier New&amp;quot;, monospace; font-size: 14px; line-height: 19px; white-space-collapse: preserve;&quot;&gt;&lt;div&gt;&lt;div style=&quot;line-height: 19px;&quot;&gt;&lt;div&gt;&lt;span style=&quot;color: #569cd6;&quot;&gt;public&lt;/span&gt;&lt;span style=&quot;color: #d4d4d4;&quot;&gt; &lt;/span&gt;&lt;span style=&quot;color: #569cd6;&quot;&gt;function&lt;/span&gt;&lt;span style=&quot;color: #d4d4d4;&quot;&gt; &lt;/span&gt;&lt;span style=&quot;color: #dcdcaa;&quot;&gt;getAlleBroodjes&lt;/span&gt;&lt;span style=&quot;color: #d4d4d4;&quot;&gt;(): &lt;/span&gt;&lt;span style=&quot;color: #569cd6;&quot;&gt;array&lt;/span&gt;&lt;/div&gt;&lt;div&gt;&lt;span style=&quot;color: #d4d4d4;&quot;&gt;&amp;nbsp; &amp;nbsp; {&lt;/span&gt;&lt;/div&gt;&lt;div&gt;&lt;span style=&quot;color: #d4d4d4;&quot;&gt;&amp;nbsp; &amp;nbsp; &amp;nbsp; &amp;nbsp; &lt;/span&gt;&lt;span style=&quot;color: #9cdcfe;&quot;&gt;$broodDAO&lt;/span&gt;&lt;span style=&quot;color: #d4d4d4;&quot;&gt; = &lt;/span&gt;&lt;span style=&quot;color: #569cd6;&quot;&gt;new&lt;/span&gt;&lt;span style=&quot;color: #d4d4d4;&quot;&gt; &lt;/span&gt;&lt;span style=&quot;color: #4ec9b0;&quot;&gt;BroodDAO&lt;/span&gt;&lt;span style=&quot;color: #d4d4d4;&quot;&gt;();&lt;/span&gt;&lt;/div&gt;&lt;div&gt;&lt;span style=&quot;color: #d4d4d4;&quot;&gt;&amp;nbsp; &amp;nbsp; &amp;nbsp; &amp;nbsp; &lt;/span&gt;&lt;span style=&quot;color: #9cdcfe;&quot;&gt;$lijst&lt;/span&gt;&lt;span style=&quot;color: #d4d4d4;&quot;&gt; = &lt;/span&gt;&lt;span style=&quot;color: #9cdcfe;&quot;&gt;$broodDAO&lt;/span&gt;&lt;span style=&quot;color: #d4d4d4;&quot;&gt;-&amp;gt;&lt;/span&gt;&lt;span style=&quot;color: #dcdcaa;&quot;&gt;getBroodjes&lt;/span&gt;&lt;span style=&quot;color: #d4d4d4;&quot;&gt;();&lt;/span&gt;&lt;/div&gt;&lt;div&gt;&lt;span style=&quot;color: #d4d4d4;&quot;&gt;&amp;nbsp; &amp;nbsp; &amp;nbsp; &amp;nbsp; &lt;/span&gt;&lt;span style=&quot;color: #c586c0;&quot;&gt;return&lt;/span&gt;&lt;span style=&quot;color: #d4d4d4;&quot;&gt; &lt;/span&gt;&lt;span style=&quot;color: #9cdcfe;&quot;&gt;$lijst&lt;/span&gt;&lt;span style=&quot;color: #d4d4d4;&quot;&gt;;&lt;/span&gt;&lt;/div&gt;&lt;div&gt;&lt;span style=&quot;color: #d4d4d4;&quot;&gt;&amp;nbsp; &amp;nbsp; }&lt;/span&gt;&lt;/div&gt;&lt;/div&gt;&lt;/div&gt;&lt;/div&gt;" style="text;html=1;align=left;verticalAlign=middle;resizable=0;points=[];autosize=1;strokeColor=none;fillColor=none;" parent="yM_bUhSgiwBoC7ienWPF-120" vertex="1">
          <mxGeometry x="10" y="59" width="350" height="130" as="geometry" />
        </mxCell>
        <mxCell id="yM_bUhSgiwBoC7ienWPF-89" value="SessionService" style="swimlane;fontStyle=1;childLayout=stackLayout;horizontal=1;startSize=26;horizontalStack=0;resizeParent=1;resizeParentMax=0;resizeLast=0;collapsible=1;marginBottom=0;align=center;fontSize=14;fillStyle=solid;fillColor=#dae8fc;strokeColor=#6c8ebf;" parent="yM_bUhSgiwBoC7ienWPF-16" vertex="1">
          <mxGeometry x="12.5" y="390" width="177.5" height="116" as="geometry">
            <mxRectangle x="12.5" y="390" width="140" height="30" as="alternateBounds" />
          </mxGeometry>
        </mxCell>
        <mxCell id="yM_bUhSgiwBoC7ienWPF-90" value="Check login" style="text;strokeColor=#6c8ebf;fillColor=#dae8fc;spacingLeft=4;spacingRight=4;overflow=hidden;rotatable=0;points=[[0,0.5],[1,0.5]];portConstraint=eastwest;fontSize=12;whiteSpace=wrap;html=1;" parent="yM_bUhSgiwBoC7ienWPF-89" vertex="1">
          <mxGeometry y="26" width="177.5" height="30" as="geometry" />
        </mxCell>
        <mxCell id="yM_bUhSgiwBoC7ienWPF-91" value="Create string from User Object" style="text;strokeColor=#6c8ebf;fillColor=#dae8fc;spacingLeft=4;spacingRight=4;overflow=hidden;rotatable=0;points=[[0,0.5],[1,0.5]];portConstraint=eastwest;fontSize=12;whiteSpace=wrap;html=1;" parent="yM_bUhSgiwBoC7ienWPF-89" vertex="1">
          <mxGeometry y="56" width="177.5" height="30" as="geometry" />
        </mxCell>
        <mxCell id="yM_bUhSgiwBoC7ienWPF-92" value="SessionService" style="swimlane;fillColor=#fff2cc;strokeColor=#d6b656;" parent="yM_bUhSgiwBoC7ienWPF-89" vertex="1" collapsed="1">
          <mxGeometry y="86" width="177.5" height="30" as="geometry">
            <mxRectangle y="86" width="177.5" height="390" as="alternateBounds" />
          </mxGeometry>
        </mxCell>
        <mxCell id="yM_bUhSgiwBoC7ienWPF-97" value="&lt;div style=&quot;color: rgb(204, 204, 204); background-color: rgb(31, 31, 31); font-family: Consolas, &amp;quot;Courier New&amp;quot;, monospace; font-size: 14px; line-height: 19px; white-space-collapse: preserve;&quot;&gt;&lt;div&gt;&lt;span style=&quot;color: #d4d4d4;&quot;&gt;&amp;nbsp;&lt;/span&gt;&lt;span style=&quot;color: #569cd6;&quot;&gt;public&lt;/span&gt;&lt;span style=&quot;color: #d4d4d4;&quot;&gt; &lt;/span&gt;&lt;span style=&quot;color: #569cd6;&quot;&gt;static&lt;/span&gt;&lt;span style=&quot;color: #d4d4d4;&quot;&gt; &lt;/span&gt;&lt;span style=&quot;color: #569cd6;&quot;&gt;function&lt;/span&gt;&lt;span style=&quot;color: #d4d4d4;&quot;&gt; &lt;/span&gt;&lt;span style=&quot;color: #dcdcaa;&quot;&gt;addUser&lt;/span&gt;&lt;span style=&quot;color: #d4d4d4;&quot;&gt;(&lt;/span&gt;&lt;span style=&quot;color: #4ec9b0;&quot;&gt;User&lt;/span&gt;&lt;span style=&quot;color: #d4d4d4;&quot;&gt; &lt;/span&gt;&lt;span style=&quot;color: #9cdcfe;&quot;&gt;$user&lt;/span&gt;&lt;span style=&quot;color: #d4d4d4;&quot;&gt;)&lt;/span&gt;&lt;/div&gt;&lt;div&gt;&lt;span style=&quot;color: #d4d4d4;&quot;&gt;&amp;nbsp; &amp;nbsp; {&lt;/span&gt;&lt;/div&gt;&lt;div&gt;&lt;span style=&quot;color: #d4d4d4;&quot;&gt;&amp;nbsp; &amp;nbsp; &amp;nbsp; &amp;nbsp; &lt;/span&gt;&lt;span style=&quot;color: #9cdcfe;&quot;&gt;$_SESSION&lt;/span&gt;&lt;span style=&quot;color: #d4d4d4;&quot;&gt;[&lt;/span&gt;&lt;span style=&quot;color: #ce9178;&quot;&gt;&#39;user&#39;&lt;/span&gt;&lt;span style=&quot;color: #d4d4d4;&quot;&gt;] = &lt;/span&gt;&lt;span style=&quot;color: #dcdcaa;&quot;&gt;serialize&lt;/span&gt;&lt;span style=&quot;color: #d4d4d4;&quot;&gt;(&lt;/span&gt;&lt;span style=&quot;color: #9cdcfe;&quot;&gt;$user&lt;/span&gt;&lt;span style=&quot;color: #d4d4d4;&quot;&gt;); &lt;/span&gt;&lt;span style=&quot;color: #6a9955;&quot;&gt;// makes a string from object&lt;/span&gt;&lt;/div&gt;&lt;div&gt;&lt;span style=&quot;color: #d4d4d4;&quot;&gt;&amp;nbsp; &amp;nbsp; }&lt;/span&gt;&lt;/div&gt;&lt;br&gt;&lt;div&gt;&lt;br&gt;&lt;/div&gt;&lt;/div&gt;" style="text;html=1;align=left;verticalAlign=middle;resizable=0;points=[];autosize=1;strokeColor=none;fillColor=none;" parent="yM_bUhSgiwBoC7ienWPF-92" vertex="1">
          <mxGeometry x="10" y="59" width="600" height="130" as="geometry" />
        </mxCell>
        <mxCell id="yM_bUhSgiwBoC7ienWPF-154" value="BroodService" style="swimlane;fontStyle=1;childLayout=stackLayout;horizontal=1;startSize=26;horizontalStack=0;resizeParent=1;resizeParentMax=0;resizeLast=0;collapsible=1;marginBottom=0;align=center;fontSize=14;strokeColor=#82b366;fillColor=#d5e8d4;" parent="yM_bUhSgiwBoC7ienWPF-16" vertex="1">
          <mxGeometry x="15" y="740" width="170" height="86" as="geometry">
            <mxRectangle x="12.5" y="390" width="140" height="30" as="alternateBounds" />
          </mxGeometry>
        </mxCell>
        <mxCell id="yM_bUhSgiwBoC7ienWPF-155" value="Get Brood object" style="text;strokeColor=#82b366;fillColor=#d5e8d4;spacingLeft=4;spacingRight=4;overflow=hidden;rotatable=0;points=[[0,0.5],[1,0.5]];portConstraint=eastwest;fontSize=12;whiteSpace=wrap;html=1;" parent="yM_bUhSgiwBoC7ienWPF-154" vertex="1">
          <mxGeometry y="26" width="170" height="30" as="geometry" />
        </mxCell>
        <mxCell id="yM_bUhSgiwBoC7ienWPF-156" value="BroodService" style="swimlane;fillColor=#fff2cc;strokeColor=#d6b656;" parent="yM_bUhSgiwBoC7ienWPF-154" vertex="1" collapsed="1">
          <mxGeometry y="56" width="170" height="30" as="geometry">
            <mxRectangle y="56" width="170" height="34" as="alternateBounds" />
          </mxGeometry>
        </mxCell>
        <mxCell id="yM_bUhSgiwBoC7ienWPF-157" value="&lt;div style=&quot;color: rgb(204, 204, 204); background-color: rgb(31, 31, 31); font-family: Consolas, &amp;quot;Courier New&amp;quot;, monospace; font-size: 14px; line-height: 19px; white-space-collapse: preserve;&quot;&gt;&lt;div style=&quot;line-height: 19px;&quot;&gt;&lt;div style=&quot;line-height: 19px;&quot;&gt;&lt;div&gt;&lt;span style=&quot;color: #d4d4d4;&quot;&gt;&amp;nbsp;&lt;/span&gt;&lt;span style=&quot;color: #569cd6;&quot;&gt;public&lt;/span&gt;&lt;span style=&quot;color: #d4d4d4;&quot;&gt; &lt;/span&gt;&lt;span style=&quot;color: #569cd6;&quot;&gt;function&lt;/span&gt;&lt;span style=&quot;color: #d4d4d4;&quot;&gt; &lt;/span&gt;&lt;span style=&quot;color: #dcdcaa;&quot;&gt;getBrood&lt;/span&gt;&lt;span style=&quot;color: #d4d4d4;&quot;&gt;(&lt;/span&gt;&lt;span style=&quot;color: #9cdcfe;&quot;&gt;$broodId&lt;/span&gt;&lt;span style=&quot;color: #d4d4d4;&quot;&gt;)&lt;/span&gt;&lt;/div&gt;&lt;div&gt;&lt;span style=&quot;color: #d4d4d4;&quot;&gt;&amp;nbsp; &amp;nbsp; {&lt;/span&gt;&lt;/div&gt;&lt;div&gt;&lt;span style=&quot;color: #d4d4d4;&quot;&gt;&amp;nbsp; &amp;nbsp; &amp;nbsp; &amp;nbsp; &lt;/span&gt;&lt;span style=&quot;color: #9cdcfe;&quot;&gt;$broodDAO&lt;/span&gt;&lt;span style=&quot;color: #d4d4d4;&quot;&gt; = &lt;/span&gt;&lt;span style=&quot;color: #569cd6;&quot;&gt;new&lt;/span&gt;&lt;span style=&quot;color: #d4d4d4;&quot;&gt; &lt;/span&gt;&lt;span style=&quot;color: #4ec9b0;&quot;&gt;BroodDAO&lt;/span&gt;&lt;span style=&quot;color: #d4d4d4;&quot;&gt;();&lt;/span&gt;&lt;/div&gt;&lt;div&gt;&lt;span style=&quot;color: #d4d4d4;&quot;&gt;&amp;nbsp; &amp;nbsp; &amp;nbsp; &amp;nbsp; &lt;/span&gt;&lt;span style=&quot;color: #9cdcfe;&quot;&gt;$brood&lt;/span&gt;&lt;span style=&quot;color: #d4d4d4;&quot;&gt; = &lt;/span&gt;&lt;span style=&quot;color: #9cdcfe;&quot;&gt;$broodDAO&lt;/span&gt;&lt;span style=&quot;color: #d4d4d4;&quot;&gt;-&amp;gt;&lt;/span&gt;&lt;span style=&quot;color: #dcdcaa;&quot;&gt;getBroodById&lt;/span&gt;&lt;span style=&quot;color: #d4d4d4;&quot;&gt;(&lt;/span&gt;&lt;span style=&quot;color: #9cdcfe;&quot;&gt;$broodId&lt;/span&gt;&lt;span style=&quot;color: #d4d4d4;&quot;&gt;);&lt;/span&gt;&lt;/div&gt;&lt;br&gt;&lt;div&gt;&lt;span style=&quot;color: #d4d4d4;&quot;&gt;&amp;nbsp; &amp;nbsp; &amp;nbsp; &amp;nbsp; &lt;/span&gt;&lt;span style=&quot;color: #c586c0;&quot;&gt;return&lt;/span&gt;&lt;span style=&quot;color: #d4d4d4;&quot;&gt; &lt;/span&gt;&lt;span style=&quot;color: #9cdcfe;&quot;&gt;$brood&lt;/span&gt;&lt;span style=&quot;color: #d4d4d4;&quot;&gt;;&lt;/span&gt;&lt;/div&gt;&lt;div&gt;&lt;span style=&quot;color: #d4d4d4;&quot;&gt;&amp;nbsp; &amp;nbsp; }&lt;/span&gt;&lt;/div&gt;&lt;/div&gt;&lt;/div&gt;&lt;/div&gt;" style="text;html=1;align=left;verticalAlign=middle;resizable=0;points=[];autosize=1;strokeColor=none;fillColor=none;" parent="yM_bUhSgiwBoC7ienWPF-156" vertex="1">
          <mxGeometry x="10" y="49" width="420" height="150" as="geometry" />
        </mxCell>
        <mxCell id="yM_bUhSgiwBoC7ienWPF-160" value="ExtraService" style="swimlane;fontStyle=1;childLayout=stackLayout;horizontal=1;startSize=26;horizontalStack=0;resizeParent=1;resizeParentMax=0;resizeLast=0;collapsible=1;marginBottom=0;align=center;fontSize=14;strokeColor=#82b366;fillColor=#d5e8d4;" parent="yM_bUhSgiwBoC7ienWPF-16" vertex="1">
          <mxGeometry x="15.01" y="840" width="164.99" height="100" as="geometry">
            <mxRectangle x="12.5" y="390" width="140" height="30" as="alternateBounds" />
          </mxGeometry>
        </mxCell>
        <mxCell id="yM_bUhSgiwBoC7ienWPF-161" value="Get Extra object" style="text;strokeColor=#82b366;fillColor=#d5e8d4;spacingLeft=4;spacingRight=4;overflow=hidden;rotatable=0;points=[[0,0.5],[1,0.5]];portConstraint=eastwest;fontSize=12;whiteSpace=wrap;html=1;" parent="yM_bUhSgiwBoC7ienWPF-160" vertex="1">
          <mxGeometry y="26" width="164.99" height="44" as="geometry" />
        </mxCell>
        <mxCell id="yM_bUhSgiwBoC7ienWPF-162" value="ExtraService" style="swimlane;fillColor=#fff2cc;strokeColor=#d6b656;" parent="yM_bUhSgiwBoC7ienWPF-160" vertex="1" collapsed="1">
          <mxGeometry y="70" width="164.99" height="30" as="geometry">
            <mxRectangle y="70" width="164.99" height="199" as="alternateBounds" />
          </mxGeometry>
        </mxCell>
        <mxCell id="yM_bUhSgiwBoC7ienWPF-163" value="&lt;div style=&quot;color: rgb(204, 204, 204); background-color: rgb(31, 31, 31); font-family: Consolas, &amp;quot;Courier New&amp;quot;, monospace; font-size: 14px; line-height: 19px; white-space-collapse: preserve;&quot;&gt;&lt;div style=&quot;line-height: 19px;&quot;&gt;&lt;div style=&quot;line-height: 19px;&quot;&gt;&lt;div style=&quot;line-height: 19px;&quot;&gt;&lt;div&gt;&lt;span style=&quot;color: #569cd6;&quot;&gt;public&lt;/span&gt;&lt;span style=&quot;color: #d4d4d4;&quot;&gt; &lt;/span&gt;&lt;span style=&quot;color: #569cd6;&quot;&gt;function&lt;/span&gt;&lt;span style=&quot;color: #d4d4d4;&quot;&gt; &lt;/span&gt;&lt;span style=&quot;color: #dcdcaa;&quot;&gt;getExtra&lt;/span&gt;&lt;span style=&quot;color: #d4d4d4;&quot;&gt;(&lt;/span&gt;&lt;span style=&quot;color: #9cdcfe;&quot;&gt;$extraId&lt;/span&gt;&lt;span style=&quot;color: #d4d4d4;&quot;&gt;)&lt;/span&gt;&lt;/div&gt;&lt;div&gt;&lt;span style=&quot;color: #d4d4d4;&quot;&gt;&amp;nbsp; &amp;nbsp; {&lt;/span&gt;&lt;/div&gt;&lt;div&gt;&lt;span style=&quot;color: #d4d4d4;&quot;&gt;&amp;nbsp; &amp;nbsp; &amp;nbsp; &amp;nbsp; &lt;/span&gt;&lt;span style=&quot;color: #9cdcfe;&quot;&gt;$extraDAO&lt;/span&gt;&lt;span style=&quot;color: #d4d4d4;&quot;&gt; = &lt;/span&gt;&lt;span style=&quot;color: #569cd6;&quot;&gt;new&lt;/span&gt;&lt;span style=&quot;color: #d4d4d4;&quot;&gt; &lt;/span&gt;&lt;span style=&quot;color: #4ec9b0;&quot;&gt;ExtraDAO&lt;/span&gt;&lt;span style=&quot;color: #d4d4d4;&quot;&gt;();&lt;/span&gt;&lt;/div&gt;&lt;div&gt;&lt;span style=&quot;color: #d4d4d4;&quot;&gt;&amp;nbsp; &amp;nbsp; &amp;nbsp; &amp;nbsp; &lt;/span&gt;&lt;span style=&quot;color: #9cdcfe;&quot;&gt;$extra&lt;/span&gt;&lt;span style=&quot;color: #d4d4d4;&quot;&gt; = &lt;/span&gt;&lt;span style=&quot;color: #9cdcfe;&quot;&gt;$extraDAO&lt;/span&gt;&lt;span style=&quot;color: #d4d4d4;&quot;&gt;-&amp;gt;&lt;/span&gt;&lt;span style=&quot;color: #dcdcaa;&quot;&gt;getExtraById&lt;/span&gt;&lt;span style=&quot;color: #d4d4d4;&quot;&gt;(&lt;/span&gt;&lt;span style=&quot;color: #9cdcfe;&quot;&gt;$extraId&lt;/span&gt;&lt;span style=&quot;color: #d4d4d4;&quot;&gt;);&lt;/span&gt;&lt;/div&gt;&lt;br&gt;&lt;div&gt;&lt;span style=&quot;color: #d4d4d4;&quot;&gt;&amp;nbsp; &amp;nbsp; &amp;nbsp; &amp;nbsp; &lt;/span&gt;&lt;span style=&quot;color: #c586c0;&quot;&gt;return&lt;/span&gt;&lt;span style=&quot;color: #d4d4d4;&quot;&gt; &lt;/span&gt;&lt;span style=&quot;color: #9cdcfe;&quot;&gt;$extra&lt;/span&gt;&lt;span style=&quot;color: #d4d4d4;&quot;&gt;;&lt;/span&gt;&lt;/div&gt;&lt;div&gt;&lt;span style=&quot;color: #d4d4d4;&quot;&gt;&amp;nbsp; &amp;nbsp; }&lt;/span&gt;&lt;/div&gt;&lt;/div&gt;&lt;/div&gt;&lt;/div&gt;&lt;/div&gt;" style="text;html=1;align=left;verticalAlign=middle;resizable=0;points=[];autosize=1;strokeColor=none;fillColor=none;" parent="yM_bUhSgiwBoC7ienWPF-162" vertex="1">
          <mxGeometry x="10" y="49" width="420" height="150" as="geometry" />
        </mxCell>
        <mxCell id="yM_bUhSgiwBoC7ienWPF-164" value="SessionService" style="swimlane;fontStyle=1;childLayout=stackLayout;horizontal=1;startSize=26;horizontalStack=0;resizeParent=1;resizeParentMax=0;resizeLast=0;collapsible=1;marginBottom=0;align=center;fontSize=14;fillStyle=solid;fillColor=#d5e8d4;strokeColor=#82b366;" parent="yM_bUhSgiwBoC7ienWPF-16" vertex="1">
          <mxGeometry x="11.26" y="960" width="168.74" height="86" as="geometry">
            <mxRectangle x="12.5" y="390" width="140" height="30" as="alternateBounds" />
          </mxGeometry>
        </mxCell>
        <mxCell id="yM_bUhSgiwBoC7ienWPF-165" value="add order line to session" style="text;strokeColor=#82b366;fillColor=#d5e8d4;spacingLeft=4;spacingRight=4;overflow=hidden;rotatable=0;points=[[0,0.5],[1,0.5]];portConstraint=eastwest;fontSize=12;whiteSpace=wrap;html=1;" parent="yM_bUhSgiwBoC7ienWPF-164" vertex="1">
          <mxGeometry y="26" width="168.74" height="30" as="geometry" />
        </mxCell>
        <mxCell id="yM_bUhSgiwBoC7ienWPF-167" value="SessionService" style="swimlane;fillColor=#fff2cc;strokeColor=#d6b656;" parent="yM_bUhSgiwBoC7ienWPF-164" vertex="1" collapsed="1">
          <mxGeometry y="56" width="168.74" height="30" as="geometry">
            <mxRectangle y="56" width="168.74" height="54" as="alternateBounds" />
          </mxGeometry>
        </mxCell>
        <mxCell id="yM_bUhSgiwBoC7ienWPF-168" value="&lt;div style=&quot;color: rgb(204, 204, 204); background-color: rgb(31, 31, 31); font-family: Consolas, &amp;quot;Courier New&amp;quot;, monospace; font-size: 14px; line-height: 19px; white-space-collapse: preserve;&quot;&gt;&lt;div&gt;&lt;div style=&quot;line-height: 19px;&quot;&gt;&lt;div&gt;&lt;span style=&quot;color: #569cd6;&quot;&gt;public&lt;/span&gt;&lt;span style=&quot;color: #d4d4d4;&quot;&gt; &lt;/span&gt;&lt;span style=&quot;color: #569cd6;&quot;&gt;static&lt;/span&gt;&lt;span style=&quot;color: #d4d4d4;&quot;&gt; &lt;/span&gt;&lt;span style=&quot;color: #569cd6;&quot;&gt;function&lt;/span&gt;&lt;span style=&quot;color: #d4d4d4;&quot;&gt; &lt;/span&gt;&lt;span style=&quot;color: #dcdcaa;&quot;&gt;addBestellijn&lt;/span&gt;&lt;span style=&quot;color: #d4d4d4;&quot;&gt;(&lt;/span&gt;&lt;span style=&quot;color: #569cd6;&quot;&gt;array&lt;/span&gt;&lt;span style=&quot;color: #d4d4d4;&quot;&gt; &lt;/span&gt;&lt;span style=&quot;color: #9cdcfe;&quot;&gt;$bestellijn&lt;/span&gt;&lt;span style=&quot;color: #d4d4d4;&quot;&gt;): &lt;/span&gt;&lt;span style=&quot;color: #569cd6;&quot;&gt;void&lt;/span&gt;&lt;/div&gt;&lt;div&gt;&lt;span style=&quot;color: #d4d4d4;&quot;&gt;&amp;nbsp; &amp;nbsp; {&lt;/span&gt;&lt;/div&gt;&lt;div&gt;&lt;span style=&quot;color: #d4d4d4;&quot;&gt;&amp;nbsp; &amp;nbsp; &amp;nbsp; &amp;nbsp; &lt;/span&gt;&lt;span style=&quot;color: #c586c0;&quot;&gt;if&lt;/span&gt;&lt;span style=&quot;color: #d4d4d4;&quot;&gt; (!&lt;/span&gt;&lt;span style=&quot;color: #dcdcaa;&quot;&gt;isset&lt;/span&gt;&lt;span style=&quot;color: #d4d4d4;&quot;&gt;(&lt;/span&gt;&lt;span style=&quot;color: #9cdcfe;&quot;&gt;$_SESSION&lt;/span&gt;&lt;span style=&quot;color: #d4d4d4;&quot;&gt;[&lt;/span&gt;&lt;span style=&quot;color: #ce9178;&quot;&gt;&#39;bestelling&#39;&lt;/span&gt;&lt;span style=&quot;color: #d4d4d4;&quot;&gt;])) {&lt;/span&gt;&lt;/div&gt;&lt;div&gt;&lt;span style=&quot;color: #d4d4d4;&quot;&gt;&amp;nbsp; &amp;nbsp; &amp;nbsp; &amp;nbsp; &amp;nbsp; &amp;nbsp; &lt;/span&gt;&lt;span style=&quot;color: #9cdcfe;&quot;&gt;$_SESSION&lt;/span&gt;&lt;span style=&quot;color: #d4d4d4;&quot;&gt;[&lt;/span&gt;&lt;span style=&quot;color: #ce9178;&quot;&gt;&#39;bestelling&#39;&lt;/span&gt;&lt;span style=&quot;color: #d4d4d4;&quot;&gt;] = [];&lt;/span&gt;&lt;/div&gt;&lt;div&gt;&lt;span style=&quot;color: #d4d4d4;&quot;&gt;&amp;nbsp; &amp;nbsp; &amp;nbsp; &amp;nbsp; }&lt;/span&gt;&lt;/div&gt;&lt;div&gt;&lt;span style=&quot;color: #d4d4d4;&quot;&gt;&amp;nbsp; &amp;nbsp; &amp;nbsp; &amp;nbsp; &lt;/span&gt;&lt;span style=&quot;color: #9cdcfe;&quot;&gt;$_SESSION&lt;/span&gt;&lt;span style=&quot;color: #d4d4d4;&quot;&gt;[&lt;/span&gt;&lt;span style=&quot;color: #ce9178;&quot;&gt;&#39;bestelling&#39;&lt;/span&gt;&lt;span style=&quot;color: #d4d4d4;&quot;&gt;][] = &lt;/span&gt;&lt;span style=&quot;color: #9cdcfe;&quot;&gt;$bestellijn&lt;/span&gt;&lt;span style=&quot;color: #d4d4d4;&quot;&gt;;&lt;/span&gt;&lt;/div&gt;&lt;div&gt;&lt;span style=&quot;color: #d4d4d4;&quot;&gt;&amp;nbsp; &amp;nbsp; }&lt;/span&gt;&lt;/div&gt;&lt;/div&gt;&lt;/div&gt;&lt;/div&gt;" style="text;html=1;align=left;verticalAlign=middle;resizable=0;points=[];autosize=1;strokeColor=none;fillColor=none;" parent="yM_bUhSgiwBoC7ienWPF-167" vertex="1">
          <mxGeometry x="10" y="49" width="490" height="150" as="geometry" />
        </mxCell>
        <mxCell id="yM_bUhSgiwBoC7ienWPF-195" value="SessionService" style="swimlane;fontStyle=1;childLayout=stackLayout;horizontal=1;startSize=26;horizontalStack=0;resizeParent=1;resizeParentMax=0;resizeLast=0;collapsible=1;marginBottom=0;align=center;fontSize=14;fillStyle=solid;fillColor=#CC99FF;strokeColor=#56517e;" parent="yM_bUhSgiwBoC7ienWPF-16" vertex="1">
          <mxGeometry x="15.63" y="1140" width="164.37" height="100" as="geometry">
            <mxRectangle x="12.5" y="390" width="140" height="30" as="alternateBounds" />
          </mxGeometry>
        </mxCell>
        <mxCell id="yM_bUhSgiwBoC7ienWPF-196" value="get user Object back (unserizalize)" style="text;strokeColor=#56517e;fillColor=#CC99FF;spacingLeft=4;spacingRight=4;overflow=hidden;rotatable=0;points=[[0,0.5],[1,0.5]];portConstraint=eastwest;fontSize=12;whiteSpace=wrap;html=1;" parent="yM_bUhSgiwBoC7ienWPF-195" vertex="1">
          <mxGeometry y="26" width="164.37" height="44" as="geometry" />
        </mxCell>
        <mxCell id="yM_bUhSgiwBoC7ienWPF-197" value="SessionService" style="swimlane;fillColor=#fff2cc;strokeColor=#d6b656;" parent="yM_bUhSgiwBoC7ienWPF-195" vertex="1" collapsed="1">
          <mxGeometry y="70" width="164.37" height="30" as="geometry">
            <mxRectangle y="70" width="164.37" height="179" as="alternateBounds" />
          </mxGeometry>
        </mxCell>
        <mxCell id="yM_bUhSgiwBoC7ienWPF-198" value="&lt;div style=&quot;color: rgb(204, 204, 204); background-color: rgb(31, 31, 31); font-family: Consolas, &amp;quot;Courier New&amp;quot;, monospace; font-size: 14px; line-height: 19px; white-space-collapse: preserve;&quot;&gt;&lt;div style=&quot;line-height: 19px;&quot;&gt;&lt;div style=&quot;line-height: 19px;&quot;&gt;&lt;div&gt;&lt;span style=&quot;color: #6a9955;&quot;&gt;//get user back in overzicht&lt;/span&gt;&lt;/div&gt;&lt;div&gt;&lt;span style=&quot;color: #d4d4d4;&quot;&gt;&amp;nbsp; &amp;nbsp; &lt;/span&gt;&lt;span style=&quot;color: #569cd6;&quot;&gt;public&lt;/span&gt;&lt;span style=&quot;color: #d4d4d4;&quot;&gt; &lt;/span&gt;&lt;span style=&quot;color: #569cd6;&quot;&gt;static&lt;/span&gt;&lt;span style=&quot;color: #d4d4d4;&quot;&gt; &lt;/span&gt;&lt;span style=&quot;color: #569cd6;&quot;&gt;function&lt;/span&gt;&lt;span style=&quot;color: #d4d4d4;&quot;&gt; &lt;/span&gt;&lt;span style=&quot;color: #dcdcaa;&quot;&gt;getUser&lt;/span&gt;&lt;span style=&quot;color: #d4d4d4;&quot;&gt;(): ?&lt;/span&gt;&lt;span style=&quot;color: #4ec9b0;&quot;&gt;User&lt;/span&gt;&lt;/div&gt;&lt;div&gt;&lt;span style=&quot;color: #d4d4d4;&quot;&gt;&amp;nbsp; &amp;nbsp; {&lt;/span&gt;&lt;/div&gt;&lt;div&gt;&lt;span style=&quot;color: #d4d4d4;&quot;&gt;&amp;nbsp; &amp;nbsp; &amp;nbsp; &amp;nbsp; &lt;/span&gt;&lt;span style=&quot;color: #c586c0;&quot;&gt;return&lt;/span&gt;&lt;span style=&quot;color: #d4d4d4;&quot;&gt; &lt;/span&gt;&lt;span style=&quot;color: #dcdcaa;&quot;&gt;isset&lt;/span&gt;&lt;span style=&quot;color: #d4d4d4;&quot;&gt;(&lt;/span&gt;&lt;span style=&quot;color: #9cdcfe;&quot;&gt;$_SESSION&lt;/span&gt;&lt;span style=&quot;color: #d4d4d4;&quot;&gt;[&lt;/span&gt;&lt;span style=&quot;color: #ce9178;&quot;&gt;&#39;user&#39;&lt;/span&gt;&lt;span style=&quot;color: #d4d4d4;&quot;&gt;]) ? &lt;/span&gt;&lt;span style=&quot;color: #dcdcaa;&quot;&gt;unserialize&lt;/span&gt;&lt;span style=&quot;color: #d4d4d4;&quot;&gt;(&lt;/span&gt;&lt;span style=&quot;color: #9cdcfe;&quot;&gt;$_SESSION&lt;/span&gt;&lt;span style=&quot;color: #d4d4d4;&quot;&gt;[&lt;/span&gt;&lt;span style=&quot;color: #ce9178;&quot;&gt;&#39;user&#39;&lt;/span&gt;&lt;span style=&quot;color: #d4d4d4;&quot;&gt;]) : &lt;/span&gt;&lt;span style=&quot;color: #569cd6;&quot;&gt;null&lt;/span&gt;&lt;span style=&quot;color: #d4d4d4;&quot;&gt;; &lt;/span&gt;&lt;span style=&quot;color: #6a9955;&quot;&gt;// turn it back to object&lt;/span&gt;&lt;/div&gt;&lt;div&gt;&lt;span style=&quot;color: #d4d4d4;&quot;&gt;&amp;nbsp; &amp;nbsp; }&lt;/span&gt;&lt;/div&gt;&lt;/div&gt;&lt;/div&gt;&lt;/div&gt;" style="text;html=1;align=left;verticalAlign=middle;resizable=0;points=[];autosize=1;strokeColor=none;fillColor=none;" parent="yM_bUhSgiwBoC7ienWPF-197" vertex="1">
          <mxGeometry x="10" y="69" width="840" height="110" as="geometry" />
        </mxCell>
        <mxCell id="yM_bUhSgiwBoC7ienWPF-1" value="Presentation" style="swimlane;whiteSpace=wrap;html=1;fillColor=#f5f5f5;fontColor=#333333;strokeColor=#666666;" parent="1" vertex="1">
          <mxGeometry x="240" y="40" width="200" height="1440" as="geometry" />
        </mxCell>
        <mxCell id="yM_bUhSgiwBoC7ienWPF-31" value="&lt;font color=&quot;#ffffff&quot;&gt;RegisterForm&lt;/font&gt;" style="shape=ext;margin=3;double=1;whiteSpace=wrap;html=1;align=center;fillColor=#CC0000;" parent="yM_bUhSgiwBoC7ienWPF-1" vertex="1">
          <mxGeometry x="40" y="60" width="100" height="40" as="geometry" />
        </mxCell>
        <mxCell id="yM_bUhSgiwBoC7ienWPF-61" value="&lt;font color=&quot;#ffffff&quot;&gt;LoginForm&lt;/font&gt;" style="shape=ext;margin=3;double=1;whiteSpace=wrap;html=1;align=center;fillColor=#007FFF;" parent="yM_bUhSgiwBoC7ienWPF-1" vertex="1">
          <mxGeometry x="50" y="264" width="100" height="40" as="geometry" />
        </mxCell>
        <mxCell id="yM_bUhSgiwBoC7ienWPF-189" style="edgeStyle=orthogonalEdgeStyle;rounded=0;orthogonalLoop=1;jettySize=auto;html=1;exitX=0.25;exitY=1;exitDx=0;exitDy=0;entryX=0.25;entryY=0;entryDx=0;entryDy=0;fillColor=#ffe6cc;strokeColor=#d79b00;dashed=1;strokeWidth=2;" parent="yM_bUhSgiwBoC7ienWPF-1" source="yM_bUhSgiwBoC7ienWPF-114" target="yM_bUhSgiwBoC7ienWPF-144" edge="1">
          <mxGeometry relative="1" as="geometry" />
        </mxCell>
        <mxCell id="yM_bUhSgiwBoC7ienWPF-114" value="&lt;font&gt;broodLijst&lt;/font&gt;" style="shape=ext;margin=3;double=1;whiteSpace=wrap;html=1;align=center;fillColor=#FF8000;shadow=1;strokeColor=#000000;fontColor=#FFFFFF;" parent="yM_bUhSgiwBoC7ienWPF-1" vertex="1">
          <mxGeometry x="50" y="520" width="100" height="40" as="geometry" />
        </mxCell>
        <mxCell id="yM_bUhSgiwBoC7ienWPF-144" value="extraLijst" style="shape=ext;margin=3;double=1;whiteSpace=wrap;html=1;align=center;fillColor=#009900;shadow=1;strokeColor=#000000;fontColor=#FFFFFF;" parent="yM_bUhSgiwBoC7ienWPF-1" vertex="1">
          <mxGeometry x="50" y="740" width="100" height="40" as="geometry" />
        </mxCell>
        <mxCell id="yM_bUhSgiwBoC7ienWPF-191" value="bestelOverzicht" style="shape=ext;margin=3;double=1;whiteSpace=wrap;html=1;align=center;fillColor=#6a00ff;shadow=1;strokeColor=#3700CC;fontColor=#ffffff;" parent="yM_bUhSgiwBoC7ienWPF-1" vertex="1">
          <mxGeometry x="40" y="1150" width="100" height="40" as="geometry" />
        </mxCell>
        <mxCell id="yM_bUhSgiwBoC7ienWPF-15" value="Controller" style="swimlane;whiteSpace=wrap;html=1;startSize=23;fillColor=#f9f7ed;strokeColor=#36393d;" parent="1" vertex="1">
          <mxGeometry x="480" y="40" width="200" height="1440" as="geometry" />
        </mxCell>
        <mxCell id="yM_bUhSgiwBoC7ienWPF-26" value="&lt;b&gt;RegisterController&lt;/b&gt;" style="swimlane;fontStyle=0;childLayout=stackLayout;horizontal=1;startSize=30;horizontalStack=0;resizeParent=1;resizeParentMax=0;resizeLast=0;collapsible=1;marginBottom=0;whiteSpace=wrap;html=1;strokeColor=#ae4132;fillColor=#fad9d5;" parent="yM_bUhSgiwBoC7ienWPF-15" vertex="1">
          <mxGeometry x="30" y="50" width="140" height="150" as="geometry">
            <mxRectangle x="35" y="110" width="60" height="30" as="alternateBounds" />
          </mxGeometry>
        </mxCell>
        <mxCell id="yM_bUhSgiwBoC7ienWPF-27" value="Validate email input" style="text;strokeColor=#ae4132;fillColor=#fad9d5;align=left;verticalAlign=middle;spacingLeft=4;spacingRight=4;overflow=hidden;points=[[0,0.5],[1,0.5]];portConstraint=eastwest;rotatable=0;whiteSpace=wrap;html=1;" parent="yM_bUhSgiwBoC7ienWPF-26" vertex="1">
          <mxGeometry y="30" width="140" height="30" as="geometry" />
        </mxCell>
        <mxCell id="yM_bUhSgiwBoC7ienWPF-28" value="Register user" style="text;strokeColor=#ae4132;fillColor=#fad9d5;align=left;verticalAlign=middle;spacingLeft=4;spacingRight=4;overflow=hidden;points=[[0,0.5],[1,0.5]];portConstraint=eastwest;rotatable=0;whiteSpace=wrap;html=1;" parent="yM_bUhSgiwBoC7ienWPF-26" vertex="1">
          <mxGeometry y="60" width="140" height="30" as="geometry" />
        </mxCell>
        <mxCell id="yM_bUhSgiwBoC7ienWPF-29" value="Redirect to index" style="text;strokeColor=#ae4132;fillColor=#fad9d5;align=left;verticalAlign=middle;spacingLeft=4;spacingRight=4;overflow=hidden;points=[[0,0.5],[1,0.5]];portConstraint=eastwest;rotatable=0;whiteSpace=wrap;html=1;" parent="yM_bUhSgiwBoC7ienWPF-26" vertex="1">
          <mxGeometry y="90" width="140" height="30" as="geometry" />
        </mxCell>
        <mxCell id="yM_bUhSgiwBoC7ienWPF-37" value="RegisterController" style="swimlane;fillColor=#f9f7ed;strokeColor=#36393d;" parent="yM_bUhSgiwBoC7ienWPF-26" vertex="1" collapsed="1">
          <mxGeometry y="120" width="140" height="30" as="geometry">
            <mxRectangle y="120" width="140" height="700" as="alternateBounds" />
          </mxGeometry>
        </mxCell>
        <mxCell id="yM_bUhSgiwBoC7ienWPF-40" value="&lt;div style=&quot;background-color: rgb(31, 31, 31); line-height: 19px;&quot;&gt;&lt;div style=&quot;color: rgb(204, 204, 204); font-family: Consolas, &amp;quot;Courier New&amp;quot;, monospace; font-size: 14px; white-space-collapse: preserve; text-align: left;&quot;&gt;&lt;span style=&quot;color: #569cd6;&quot;&gt;&amp;lt;?php&lt;/span&gt;&lt;/div&gt;&lt;div style=&quot;color: rgb(204, 204, 204); font-family: Consolas, &amp;quot;Courier New&amp;quot;, monospace; font-size: 14px; white-space-collapse: preserve; text-align: left;&quot;&gt;&lt;span style=&quot;color: #6a9955;&quot;&gt;// registerController.php&lt;/span&gt;&lt;/div&gt;&lt;div style=&quot;text-align: left;&quot;&gt;&lt;font face=&quot;Consolas, Courier New, monospace&quot; color=&quot;#cccccc&quot;&gt;&lt;span style=&quot;font-size: 14px; white-space-collapse: preserve;&quot;&gt;&lt;br&gt;&lt;/span&gt;&lt;/font&gt;&lt;/div&gt;&lt;div style=&quot;text-align: left; color: rgb(204, 204, 204); font-family: Consolas, &amp;quot;Courier New&amp;quot;, monospace; font-size: 14px; white-space-collapse: preserve;&quot;&gt;&lt;span style=&quot;color: #c586c0;&quot;&gt;declare&lt;/span&gt;&lt;span style=&quot;color: #d4d4d4;&quot;&gt;(strict_types=&lt;/span&gt;&lt;span style=&quot;color: #b5cea8;&quot;&gt;1&lt;/span&gt;&lt;span style=&quot;color: #d4d4d4;&quot;&gt;);&lt;/span&gt;&lt;/div&gt;&lt;div style=&quot;text-align: left;&quot;&gt;&lt;br&gt;&lt;/div&gt;&lt;div style=&quot;text-align: left; color: rgb(204, 204, 204); font-family: Consolas, &amp;quot;Courier New&amp;quot;, monospace; font-size: 14px; white-space-collapse: preserve;&quot;&gt;&lt;span style=&quot;color: #dcdcaa;&quot;&gt;session_start&lt;/span&gt;&lt;span style=&quot;color: #d4d4d4;&quot;&gt;();&lt;/span&gt;&lt;/div&gt;&lt;div style=&quot;text-align: left;&quot;&gt;&lt;br&gt;&lt;/div&gt;&lt;div style=&quot;text-align: left; color: rgb(204, 204, 204); font-family: Consolas, &amp;quot;Courier New&amp;quot;, monospace; font-size: 14px; white-space-collapse: preserve;&quot;&gt;&lt;span style=&quot;color: #dcdcaa;&quot;&gt;spl_autoload_register&lt;/span&gt;&lt;span style=&quot;color: #d4d4d4;&quot;&gt;();&lt;/span&gt;&lt;/div&gt;&lt;div style=&quot;text-align: left;&quot;&gt;&lt;br&gt;&lt;/div&gt;&lt;div style=&quot;text-align: left; color: rgb(204, 204, 204); font-family: Consolas, &amp;quot;Courier New&amp;quot;, monospace; font-size: 14px; white-space-collapse: preserve;&quot;&gt;&lt;span style=&quot;color: #569cd6;&quot;&gt;use&lt;/span&gt;&lt;span style=&quot;color: #d4d4d4;&quot;&gt; Business\&lt;/span&gt;&lt;span style=&quot;color: #4ec9b0;&quot;&gt;UserService&lt;/span&gt;&lt;span style=&quot;color: #d4d4d4;&quot;&gt;;&lt;/span&gt;&lt;/div&gt;&lt;div style=&quot;text-align: left; color: rgb(204, 204, 204); font-family: Consolas, &amp;quot;Courier New&amp;quot;, monospace; font-size: 14px; white-space-collapse: preserve;&quot;&gt;&lt;span style=&quot;color: #569cd6;&quot;&gt;use&lt;/span&gt;&lt;span style=&quot;color: #d4d4d4;&quot;&gt; Exceptions\&lt;/span&gt;&lt;span style=&quot;color: #4ec9b0;&quot;&gt;RegistrationException&lt;/span&gt;&lt;span style=&quot;color: #d4d4d4;&quot;&gt;;&lt;/span&gt;&lt;/div&gt;&lt;div style=&quot;text-align: left;&quot;&gt;&lt;br&gt;&lt;/div&gt;&lt;div style=&quot;text-align: left; color: rgb(204, 204, 204); font-family: Consolas, &amp;quot;Courier New&amp;quot;, monospace; font-size: 14px; white-space-collapse: preserve;&quot;&gt;&lt;span style=&quot;color: #c586c0;&quot;&gt;if&lt;/span&gt;&lt;span style=&quot;color: #d4d4d4;&quot;&gt; (&lt;/span&gt;&lt;span style=&quot;color: #9cdcfe;&quot;&gt;$_SERVER&lt;/span&gt;&lt;span style=&quot;color: #d4d4d4;&quot;&gt;[&lt;/span&gt;&lt;span style=&quot;color: #ce9178;&quot;&gt;&#39;REQUEST_METHOD&#39;&lt;/span&gt;&lt;span style=&quot;color: #d4d4d4;&quot;&gt;] === &lt;/span&gt;&lt;span style=&quot;color: #ce9178;&quot;&gt;&#39;POST&#39;&lt;/span&gt;&lt;span style=&quot;color: #d4d4d4;&quot;&gt;) {&lt;/span&gt;&lt;/div&gt;&lt;div style=&quot;text-align: left;&quot;&gt;&lt;br&gt;&lt;/div&gt;&lt;div style=&quot;text-align: left; color: rgb(204, 204, 204); font-family: Consolas, &amp;quot;Courier New&amp;quot;, monospace; font-size: 14px; white-space-collapse: preserve;&quot;&gt;&lt;span style=&quot;color: #d4d4d4;&quot;&gt;&amp;nbsp; &amp;nbsp; &lt;/span&gt;&lt;span style=&quot;color: #c586c0;&quot;&gt;try&lt;/span&gt;&lt;span style=&quot;color: #d4d4d4;&quot;&gt; {&lt;/span&gt;&lt;/div&gt;&lt;div style=&quot;text-align: left; color: rgb(204, 204, 204); font-family: Consolas, &amp;quot;Courier New&amp;quot;, monospace; font-size: 14px; white-space-collapse: preserve;&quot;&gt;&lt;span style=&quot;color: #d4d4d4;&quot;&gt;&amp;nbsp; &amp;nbsp; &amp;nbsp; &amp;nbsp; &lt;/span&gt;&lt;span style=&quot;color: #9cdcfe;&quot;&gt;$email&lt;/span&gt;&lt;span style=&quot;color: #d4d4d4;&quot;&gt; = &lt;/span&gt;&lt;span style=&quot;color: #dcdcaa;&quot;&gt;filter_input&lt;/span&gt;&lt;span style=&quot;color: #d4d4d4;&quot;&gt;(INPUT_POST, &lt;/span&gt;&lt;span style=&quot;color: #ce9178;&quot;&gt;&#39;email&#39;&lt;/span&gt;&lt;span style=&quot;color: #d4d4d4;&quot;&gt;, FILTER_SANITIZE_EMAIL);&lt;/span&gt;&lt;/div&gt;&lt;div style=&quot;text-align: left;&quot;&gt;&lt;br&gt;&lt;/div&gt;&lt;div style=&quot;text-align: left; color: rgb(204, 204, 204); font-family: Consolas, &amp;quot;Courier New&amp;quot;, monospace; font-size: 14px; white-space-collapse: preserve;&quot;&gt;&lt;span style=&quot;color: #d4d4d4;&quot;&gt;&amp;nbsp; &amp;nbsp; &amp;nbsp; &amp;nbsp; &lt;/span&gt;&lt;span style=&quot;color: #6a9955;&quot;&gt;// validate email &lt;/span&gt;&lt;/div&gt;&lt;div style=&quot;text-align: left; color: rgb(204, 204, 204); font-family: Consolas, &amp;quot;Courier New&amp;quot;, monospace; font-size: 14px; white-space-collapse: preserve;&quot;&gt;&lt;span style=&quot;color: #d4d4d4;&quot;&gt;&amp;nbsp; &amp;nbsp; &amp;nbsp; &amp;nbsp; &lt;/span&gt;&lt;span style=&quot;color: #c586c0;&quot;&gt;if&lt;/span&gt;&lt;span style=&quot;color: #d4d4d4;&quot;&gt; (&lt;/span&gt;&lt;span style=&quot;color: #dcdcaa;&quot;&gt;filter_var&lt;/span&gt;&lt;span style=&quot;color: #d4d4d4;&quot;&gt;(&lt;/span&gt;&lt;span style=&quot;color: #9cdcfe;&quot;&gt;$email&lt;/span&gt;&lt;span style=&quot;color: #d4d4d4;&quot;&gt;, FILTER_VALIDATE_EMAIL)) {&lt;/span&gt;&lt;/div&gt;&lt;div style=&quot;text-align: left; color: rgb(204, 204, 204); font-family: Consolas, &amp;quot;Courier New&amp;quot;, monospace; font-size: 14px; white-space-collapse: preserve;&quot;&gt;&lt;span style=&quot;color: #d4d4d4;&quot;&gt;&amp;nbsp; &amp;nbsp; &amp;nbsp; &amp;nbsp; &amp;nbsp; &amp;nbsp; &lt;/span&gt;&lt;span style=&quot;color: #9cdcfe;&quot;&gt;$userService&lt;/span&gt;&lt;span style=&quot;color: #d4d4d4;&quot;&gt; = &lt;/span&gt;&lt;span style=&quot;color: #569cd6;&quot;&gt;new&lt;/span&gt;&lt;span style=&quot;color: #d4d4d4;&quot;&gt; &lt;/span&gt;&lt;span style=&quot;color: #4ec9b0;&quot;&gt;UserService&lt;/span&gt;&lt;span style=&quot;color: #d4d4d4;&quot;&gt;();&lt;/span&gt;&lt;/div&gt;&lt;div style=&quot;text-align: left; color: rgb(204, 204, 204); font-family: Consolas, &amp;quot;Courier New&amp;quot;, monospace; font-size: 14px; white-space-collapse: preserve;&quot;&gt;&lt;span style=&quot;color: #d4d4d4;&quot;&gt;&amp;nbsp; &amp;nbsp; &amp;nbsp; &amp;nbsp; &amp;nbsp; &amp;nbsp; &lt;/span&gt;&lt;span style=&quot;color: #9cdcfe;&quot;&gt;$newUser&lt;/span&gt;&lt;span style=&quot;color: #d4d4d4;&quot;&gt; = &lt;/span&gt;&lt;span style=&quot;color: #9cdcfe;&quot;&gt;$userService&lt;/span&gt;&lt;span style=&quot;color: #d4d4d4;&quot;&gt;-&amp;gt;&lt;/span&gt;&lt;span style=&quot;color: #dcdcaa;&quot;&gt;registerUser&lt;/span&gt;&lt;span style=&quot;color: #d4d4d4;&quot;&gt;(&lt;/span&gt;&lt;span style=&quot;color: #9cdcfe;&quot;&gt;$email&lt;/span&gt;&lt;span style=&quot;color: #d4d4d4;&quot;&gt;);&lt;/span&gt;&lt;/div&gt;&lt;div style=&quot;text-align: left; color: rgb(204, 204, 204); font-family: Consolas, &amp;quot;Courier New&amp;quot;, monospace; font-size: 14px; white-space-collapse: preserve;&quot;&gt;&lt;span style=&quot;color: #d4d4d4;&quot;&gt;&amp;nbsp; &amp;nbsp; &amp;nbsp; &amp;nbsp; &amp;nbsp; &amp;nbsp; &lt;/span&gt;&lt;span style=&quot;color: #dcdcaa;&quot;&gt;header&lt;/span&gt;&lt;span style=&quot;color: #d4d4d4;&quot;&gt;(&lt;/span&gt;&lt;span style=&quot;color: #ce9178;&quot;&gt;&quot;Location: index.php&quot;&lt;/span&gt;&lt;span style=&quot;color: #d4d4d4;&quot;&gt;);&lt;/span&gt;&lt;/div&gt;&lt;div style=&quot;text-align: left; color: rgb(204, 204, 204); font-family: Consolas, &amp;quot;Courier New&amp;quot;, monospace; font-size: 14px; white-space-collapse: preserve;&quot;&gt;&lt;span style=&quot;color: #d4d4d4;&quot;&gt;&amp;nbsp; &amp;nbsp; &amp;nbsp; &amp;nbsp; } &lt;/span&gt;&lt;span style=&quot;color: #c586c0;&quot;&gt;else&lt;/span&gt;&lt;span style=&quot;color: #d4d4d4;&quot;&gt; {&lt;/span&gt;&lt;/div&gt;&lt;div style=&quot;text-align: left; color: rgb(204, 204, 204); font-family: Consolas, &amp;quot;Courier New&amp;quot;, monospace; font-size: 14px; white-space-collapse: preserve;&quot;&gt;&lt;span style=&quot;color: #d4d4d4;&quot;&gt;&amp;nbsp; &amp;nbsp; &amp;nbsp; &amp;nbsp; &amp;nbsp; &amp;nbsp; &lt;/span&gt;&lt;span style=&quot;color: #c586c0;&quot;&gt;throw&lt;/span&gt;&lt;span style=&quot;color: #d4d4d4;&quot;&gt; &lt;/span&gt;&lt;span style=&quot;color: #569cd6;&quot;&gt;new&lt;/span&gt;&lt;span style=&quot;color: #d4d4d4;&quot;&gt; &lt;/span&gt;&lt;span style=&quot;color: #4ec9b0;&quot;&gt;RegistrationException&lt;/span&gt;&lt;span style=&quot;color: #d4d4d4;&quot;&gt;(&lt;/span&gt;&lt;span style=&quot;color: #ce9178;&quot;&gt;&#39;Invalid email!&#39;&lt;/span&gt;&lt;span style=&quot;color: #d4d4d4;&quot;&gt;);&lt;/span&gt;&lt;/div&gt;&lt;div style=&quot;text-align: left; color: rgb(204, 204, 204); font-family: Consolas, &amp;quot;Courier New&amp;quot;, monospace; font-size: 14px; white-space-collapse: preserve;&quot;&gt;&lt;span style=&quot;color: #d4d4d4;&quot;&gt;&amp;nbsp; &amp;nbsp; &amp;nbsp; &amp;nbsp; }&lt;/span&gt;&lt;/div&gt;&lt;div style=&quot;text-align: left; color: rgb(204, 204, 204); font-family: Consolas, &amp;quot;Courier New&amp;quot;, monospace; font-size: 14px; white-space-collapse: preserve;&quot;&gt;&lt;span style=&quot;color: #d4d4d4;&quot;&gt;&amp;nbsp; &amp;nbsp; } &lt;/span&gt;&lt;span style=&quot;color: #c586c0;&quot;&gt;catch&lt;/span&gt;&lt;span style=&quot;color: #d4d4d4;&quot;&gt; (&lt;/span&gt;&lt;span style=&quot;color: #4ec9b0;&quot;&gt;RegistrationException&lt;/span&gt;&lt;span style=&quot;color: #d4d4d4;&quot;&gt; &lt;/span&gt;&lt;span style=&quot;color: #9cdcfe;&quot;&gt;$e&lt;/span&gt;&lt;span style=&quot;color: #d4d4d4;&quot;&gt;) {&lt;/span&gt;&lt;/div&gt;&lt;div style=&quot;text-align: left; color: rgb(204, 204, 204); font-family: Consolas, &amp;quot;Courier New&amp;quot;, monospace; font-size: 14px; white-space-collapse: preserve;&quot;&gt;&lt;span style=&quot;color: #d4d4d4;&quot;&gt;&amp;nbsp; &amp;nbsp; &amp;nbsp; &amp;nbsp; &lt;/span&gt;&lt;span style=&quot;color: #9cdcfe;&quot;&gt;$error&lt;/span&gt;&lt;span style=&quot;color: #d4d4d4;&quot;&gt; = &lt;/span&gt;&lt;span style=&quot;color: #dcdcaa;&quot;&gt;urlencode&lt;/span&gt;&lt;span style=&quot;color: #d4d4d4;&quot;&gt;(&lt;/span&gt;&lt;span style=&quot;color: #9cdcfe;&quot;&gt;$e&lt;/span&gt;&lt;span style=&quot;color: #d4d4d4;&quot;&gt;-&amp;gt;&lt;/span&gt;&lt;span style=&quot;color: #dcdcaa;&quot;&gt;getMessage&lt;/span&gt;&lt;span style=&quot;color: #d4d4d4;&quot;&gt;());&lt;/span&gt;&lt;/div&gt;&lt;div style=&quot;text-align: left; color: rgb(204, 204, 204); font-family: Consolas, &amp;quot;Courier New&amp;quot;, monospace; font-size: 14px; white-space-collapse: preserve;&quot;&gt;&lt;span style=&quot;color: #d4d4d4;&quot;&gt;&amp;nbsp; &amp;nbsp; &amp;nbsp; &amp;nbsp; &lt;/span&gt;&lt;span style=&quot;color: #dcdcaa;&quot;&gt;header&lt;/span&gt;&lt;span style=&quot;color: #d4d4d4;&quot;&gt;(&lt;/span&gt;&lt;span style=&quot;color: #ce9178;&quot;&gt;&quot;Location: registration.php?error=&lt;/span&gt;&lt;span style=&quot;color: #9cdcfe;&quot;&gt;$error&lt;/span&gt;&lt;span style=&quot;color: #ce9178;&quot;&gt;&quot;&lt;/span&gt;&lt;span style=&quot;color: #d4d4d4;&quot;&gt;);&lt;/span&gt;&lt;/div&gt;&lt;div style=&quot;text-align: left; color: rgb(204, 204, 204); font-family: Consolas, &amp;quot;Courier New&amp;quot;, monospace; font-size: 14px; white-space-collapse: preserve;&quot;&gt;&lt;span style=&quot;color: #d4d4d4;&quot;&gt;&amp;nbsp; &amp;nbsp; }&lt;/span&gt;&lt;/div&gt;&lt;div style=&quot;text-align: left; color: rgb(204, 204, 204); font-family: Consolas, &amp;quot;Courier New&amp;quot;, monospace; font-size: 14px; white-space-collapse: preserve;&quot;&gt;&lt;span style=&quot;color: #d4d4d4;&quot;&gt;}&lt;/span&gt;&lt;/div&gt;&lt;br&gt;&lt;/div&gt;" style="text;html=1;align=center;verticalAlign=middle;resizable=0;points=[];autosize=1;strokeColor=none;fillColor=none;" parent="yM_bUhSgiwBoC7ienWPF-37" vertex="1">
          <mxGeometry x="-5" y="20" width="590" height="600" as="geometry" />
        </mxCell>
        <mxCell id="yM_bUhSgiwBoC7ienWPF-62" value="LoginController" style="swimlane;fontStyle=1;childLayout=stackLayout;horizontal=1;startSize=26;horizontalStack=0;resizeParent=1;resizeParentMax=0;resizeLast=0;collapsible=1;marginBottom=0;align=center;fontSize=14;strokeColor=#6c8ebf;fillColor=#dae8fc;" parent="yM_bUhSgiwBoC7ienWPF-15" vertex="1">
          <mxGeometry x="10" y="264" width="160" height="230" as="geometry" />
        </mxCell>
        <mxCell id="yM_bUhSgiwBoC7ienWPF-63" value="Filter/sanitize email" style="text;strokeColor=#6c8ebf;fillColor=#dae8fc;spacingLeft=4;spacingRight=4;overflow=hidden;rotatable=0;points=[[0,0.5],[1,0.5]];portConstraint=eastwest;fontSize=12;whiteSpace=wrap;html=1;" parent="yM_bUhSgiwBoC7ienWPF-62" vertex="1">
          <mxGeometry y="26" width="160" height="30" as="geometry" />
        </mxCell>
        <mxCell id="yM_bUhSgiwBoC7ienWPF-64" value="Control errors" style="text;strokeColor=#6c8ebf;fillColor=#dae8fc;spacingLeft=4;spacingRight=4;overflow=hidden;rotatable=0;points=[[0,0.5],[1,0.5]];portConstraint=eastwest;fontSize=12;whiteSpace=wrap;html=1;" parent="yM_bUhSgiwBoC7ienWPF-62" vertex="1">
          <mxGeometry y="56" width="160" height="30" as="geometry" />
        </mxCell>
        <mxCell id="yM_bUhSgiwBoC7ienWPF-65" value="Check username and password" style="text;strokeColor=#6c8ebf;fillColor=#dae8fc;spacingLeft=4;spacingRight=4;overflow=hidden;rotatable=0;points=[[0,0.5],[1,0.5]];portConstraint=eastwest;fontSize=12;whiteSpace=wrap;html=1;" parent="yM_bUhSgiwBoC7ienWPF-62" vertex="1">
          <mxGeometry y="86" width="160" height="44" as="geometry" />
        </mxCell>
        <mxCell id="yM_bUhSgiwBoC7ienWPF-86" value="Start session with User object" style="text;strokeColor=#6c8ebf;fillColor=#dae8fc;spacingLeft=4;spacingRight=4;overflow=hidden;rotatable=0;points=[[0,0.5],[1,0.5]];portConstraint=eastwest;fontSize=12;whiteSpace=wrap;html=1;" parent="yM_bUhSgiwBoC7ienWPF-62" vertex="1">
          <mxGeometry y="130" width="160" height="40" as="geometry" />
        </mxCell>
        <mxCell id="yM_bUhSgiwBoC7ienWPF-72" value="Redirect to index" style="text;strokeColor=#6c8ebf;fillColor=#dae8fc;align=left;verticalAlign=middle;spacingLeft=4;spacingRight=4;overflow=hidden;points=[[0,0.5],[1,0.5]];portConstraint=eastwest;rotatable=0;whiteSpace=wrap;html=1;" parent="yM_bUhSgiwBoC7ienWPF-62" vertex="1">
          <mxGeometry y="170" width="160" height="30" as="geometry" />
        </mxCell>
        <mxCell id="yM_bUhSgiwBoC7ienWPF-80" value="loginController" style="swimlane;fillColor=#f9f7ed;strokeColor=#36393d;" parent="yM_bUhSgiwBoC7ienWPF-62" vertex="1" collapsed="1">
          <mxGeometry y="200" width="160" height="30" as="geometry">
            <mxRectangle y="200" width="160" height="970" as="alternateBounds" />
          </mxGeometry>
        </mxCell>
        <mxCell id="yM_bUhSgiwBoC7ienWPF-81" value="&lt;div style=&quot;color: rgb(204, 204, 204); background-color: rgb(31, 31, 31); font-family: Consolas, &amp;quot;Courier New&amp;quot;, monospace; font-size: 14px; line-height: 19px; white-space-collapse: preserve;&quot;&gt;&lt;div&gt;&lt;span style=&quot;color: #569cd6;&quot;&gt;&amp;lt;?php&lt;/span&gt;&lt;/div&gt;&lt;div&gt;&lt;span style=&quot;color: #6a9955;&quot;&gt;// loginController.php&lt;/span&gt;&lt;/div&gt;&lt;br&gt;&lt;div&gt;&lt;span style=&quot;color: #c586c0;&quot;&gt;declare&lt;/span&gt;&lt;span style=&quot;color: #d4d4d4;&quot;&gt;(strict_types=&lt;/span&gt;&lt;span style=&quot;color: #b5cea8;&quot;&gt;1&lt;/span&gt;&lt;span style=&quot;color: #d4d4d4;&quot;&gt;);&lt;/span&gt;&lt;/div&gt;&lt;br&gt;&lt;div&gt;&lt;span style=&quot;color: #dcdcaa;&quot;&gt;session_start&lt;/span&gt;&lt;span style=&quot;color: #d4d4d4;&quot;&gt;();&lt;/span&gt;&lt;/div&gt;&lt;br&gt;&lt;div&gt;&lt;span style=&quot;color: #dcdcaa;&quot;&gt;spl_autoload_register&lt;/span&gt;&lt;span style=&quot;color: #d4d4d4;&quot;&gt;();&lt;/span&gt;&lt;/div&gt;&lt;br&gt;&lt;div&gt;&lt;span style=&quot;color: #569cd6;&quot;&gt;use&lt;/span&gt;&lt;span style=&quot;color: #d4d4d4;&quot;&gt; Exceptions\&lt;/span&gt;&lt;span style=&quot;color: #4ec9b0;&quot;&gt;LoginException&lt;/span&gt;&lt;span style=&quot;color: #d4d4d4;&quot;&gt;;&lt;/span&gt;&lt;/div&gt;&lt;div&gt;&lt;span style=&quot;color: #569cd6;&quot;&gt;use&lt;/span&gt;&lt;span style=&quot;color: #d4d4d4;&quot;&gt; Business\&lt;/span&gt;&lt;span style=&quot;color: #4ec9b0;&quot;&gt;UserService&lt;/span&gt;&lt;span style=&quot;color: #d4d4d4;&quot;&gt;;&lt;/span&gt;&lt;/div&gt;&lt;div&gt;&lt;span style=&quot;color: #569cd6;&quot;&gt;use&lt;/span&gt;&lt;span style=&quot;color: #d4d4d4;&quot;&gt; Business\&lt;/span&gt;&lt;span style=&quot;color: #4ec9b0;&quot;&gt;SessionService&lt;/span&gt;&lt;span style=&quot;color: #d4d4d4;&quot;&gt;;&lt;/span&gt;&lt;/div&gt;&lt;br&gt;&lt;div&gt;&lt;span style=&quot;color: #c586c0;&quot;&gt;if&lt;/span&gt;&lt;span style=&quot;color: #d4d4d4;&quot;&gt; (&lt;/span&gt;&lt;span style=&quot;color: #9cdcfe;&quot;&gt;$_SERVER&lt;/span&gt;&lt;span style=&quot;color: #d4d4d4;&quot;&gt;[&lt;/span&gt;&lt;span style=&quot;color: #ce9178;&quot;&gt;&#39;REQUEST_METHOD&#39;&lt;/span&gt;&lt;span style=&quot;color: #d4d4d4;&quot;&gt;] === &lt;/span&gt;&lt;span style=&quot;color: #ce9178;&quot;&gt;&#39;POST&#39;&lt;/span&gt;&lt;span style=&quot;color: #d4d4d4;&quot;&gt;) {&lt;/span&gt;&lt;/div&gt;&lt;br&gt;&lt;div&gt;&lt;span style=&quot;color: #d4d4d4;&quot;&gt;&amp;nbsp; &amp;nbsp; &lt;/span&gt;&lt;span style=&quot;color: #c586c0;&quot;&gt;try&lt;/span&gt;&lt;span style=&quot;color: #d4d4d4;&quot;&gt; {&lt;/span&gt;&lt;/div&gt;&lt;div&gt;&lt;span style=&quot;color: #d4d4d4;&quot;&gt;&amp;nbsp; &amp;nbsp; &amp;nbsp; &amp;nbsp; &lt;/span&gt;&lt;span style=&quot;color: #9cdcfe;&quot;&gt;$email&lt;/span&gt;&lt;span style=&quot;color: #d4d4d4;&quot;&gt; = &lt;/span&gt;&lt;span style=&quot;color: #dcdcaa;&quot;&gt;filter_input&lt;/span&gt;&lt;span style=&quot;color: #d4d4d4;&quot;&gt;(INPUT_POST, &lt;/span&gt;&lt;span style=&quot;color: #ce9178;&quot;&gt;&#39;email&#39;&lt;/span&gt;&lt;span style=&quot;color: #d4d4d4;&quot;&gt;, FILTER_SANITIZE_EMAIL);&lt;/span&gt;&lt;/div&gt;&lt;div&gt;&lt;span style=&quot;color: #d4d4d4;&quot;&gt;&amp;nbsp; &amp;nbsp; &amp;nbsp; &amp;nbsp; &lt;/span&gt;&lt;span style=&quot;color: #9cdcfe;&quot;&gt;$password&lt;/span&gt;&lt;span style=&quot;color: #d4d4d4;&quot;&gt; = &lt;/span&gt;&lt;span style=&quot;color: #9cdcfe;&quot;&gt;$_POST&lt;/span&gt;&lt;span style=&quot;color: #d4d4d4;&quot;&gt;[&lt;/span&gt;&lt;span style=&quot;color: #ce9178;&quot;&gt;&#39;password&#39;&lt;/span&gt;&lt;span style=&quot;color: #d4d4d4;&quot;&gt;];&lt;/span&gt;&lt;/div&gt;&lt;br&gt;&lt;div&gt;&lt;span style=&quot;color: #d4d4d4;&quot;&gt;&amp;nbsp; &amp;nbsp; &amp;nbsp; &amp;nbsp; &lt;/span&gt;&lt;span style=&quot;color: #c586c0;&quot;&gt;if&lt;/span&gt;&lt;span style=&quot;color: #d4d4d4;&quot;&gt; (&lt;/span&gt;&lt;span style=&quot;color: #dcdcaa;&quot;&gt;empty&lt;/span&gt;&lt;span style=&quot;color: #d4d4d4;&quot;&gt;(&lt;/span&gt;&lt;span style=&quot;color: #9cdcfe;&quot;&gt;$email&lt;/span&gt;&lt;span style=&quot;color: #d4d4d4;&quot;&gt;) || &lt;/span&gt;&lt;span style=&quot;color: #dcdcaa;&quot;&gt;empty&lt;/span&gt;&lt;span style=&quot;color: #d4d4d4;&quot;&gt;(&lt;/span&gt;&lt;span style=&quot;color: #9cdcfe;&quot;&gt;$password&lt;/span&gt;&lt;span style=&quot;color: #d4d4d4;&quot;&gt;)) {&lt;/span&gt;&lt;/div&gt;&lt;div&gt;&lt;span style=&quot;color: #d4d4d4;&quot;&gt;&amp;nbsp; &amp;nbsp; &amp;nbsp; &amp;nbsp; &amp;nbsp; &amp;nbsp; &lt;/span&gt;&lt;span style=&quot;color: #c586c0;&quot;&gt;throw&lt;/span&gt;&lt;span style=&quot;color: #d4d4d4;&quot;&gt; &lt;/span&gt;&lt;span style=&quot;color: #569cd6;&quot;&gt;new&lt;/span&gt;&lt;span style=&quot;color: #d4d4d4;&quot;&gt; &lt;/span&gt;&lt;span style=&quot;color: #4ec9b0;&quot;&gt;LoginException&lt;/span&gt;&lt;span style=&quot;color: #d4d4d4;&quot;&gt;(&lt;/span&gt;&lt;span style=&quot;color: #ce9178;&quot;&gt;&#39;E-mail en/of wachtwoord mag niet leeg zijn!&#39;&lt;/span&gt;&lt;span style=&quot;color: #d4d4d4;&quot;&gt;);&lt;/span&gt;&lt;/div&gt;&lt;div&gt;&lt;span style=&quot;color: #d4d4d4;&quot;&gt;&amp;nbsp; &amp;nbsp; &amp;nbsp; &amp;nbsp; }&lt;/span&gt;&lt;/div&gt;&lt;br&gt;&lt;div&gt;&lt;span style=&quot;color: #d4d4d4;&quot;&gt;&amp;nbsp; &amp;nbsp; &amp;nbsp; &amp;nbsp; &lt;/span&gt;&lt;span style=&quot;color: #c586c0;&quot;&gt;if&lt;/span&gt;&lt;span style=&quot;color: #d4d4d4;&quot;&gt; (&lt;/span&gt;&lt;span style=&quot;color: #dcdcaa;&quot;&gt;filter_var&lt;/span&gt;&lt;span style=&quot;color: #d4d4d4;&quot;&gt;(&lt;/span&gt;&lt;span style=&quot;color: #9cdcfe;&quot;&gt;$email&lt;/span&gt;&lt;span style=&quot;color: #d4d4d4;&quot;&gt;, FILTER_VALIDATE_EMAIL)) {&lt;/span&gt;&lt;/div&gt;&lt;div&gt;&lt;span style=&quot;color: #d4d4d4;&quot;&gt;&amp;nbsp; &amp;nbsp; &amp;nbsp; &amp;nbsp; &amp;nbsp; &amp;nbsp; &lt;/span&gt;&lt;span style=&quot;color: #9cdcfe;&quot;&gt;$userService&lt;/span&gt;&lt;span style=&quot;color: #d4d4d4;&quot;&gt; = &lt;/span&gt;&lt;span style=&quot;color: #569cd6;&quot;&gt;new&lt;/span&gt;&lt;span style=&quot;color: #d4d4d4;&quot;&gt; &lt;/span&gt;&lt;span style=&quot;color: #4ec9b0;&quot;&gt;UserService&lt;/span&gt;&lt;span style=&quot;color: #d4d4d4;&quot;&gt;();&lt;/span&gt;&lt;/div&gt;&lt;br&gt;&lt;div&gt;&lt;span style=&quot;color: #d4d4d4;&quot;&gt;&amp;nbsp; &amp;nbsp; &amp;nbsp; &amp;nbsp; &amp;nbsp; &amp;nbsp; &lt;/span&gt;&lt;span style=&quot;color: #c586c0;&quot;&gt;if&lt;/span&gt;&lt;span style=&quot;color: #d4d4d4;&quot;&gt; (&lt;/span&gt;&lt;span style=&quot;color: #9cdcfe;&quot;&gt;$userService&lt;/span&gt;&lt;span style=&quot;color: #d4d4d4;&quot;&gt;-&amp;gt;&lt;/span&gt;&lt;span style=&quot;color: #dcdcaa;&quot;&gt;checkLogin&lt;/span&gt;&lt;span style=&quot;color: #d4d4d4;&quot;&gt;(&lt;/span&gt;&lt;span style=&quot;color: #9cdcfe;&quot;&gt;$email&lt;/span&gt;&lt;span style=&quot;color: #d4d4d4;&quot;&gt;, &lt;/span&gt;&lt;span style=&quot;color: #9cdcfe;&quot;&gt;$password&lt;/span&gt;&lt;span style=&quot;color: #d4d4d4;&quot;&gt;)) {&lt;/span&gt;&lt;/div&gt;&lt;div&gt;&lt;span style=&quot;color: #d4d4d4;&quot;&gt;&amp;nbsp; &amp;nbsp; &amp;nbsp; &amp;nbsp; &amp;nbsp; &amp;nbsp; &amp;nbsp; &amp;nbsp; &lt;/span&gt;&lt;span style=&quot;color: #9cdcfe;&quot;&gt;$user&lt;/span&gt;&lt;span style=&quot;color: #d4d4d4;&quot;&gt; = &lt;/span&gt;&lt;span style=&quot;color: #9cdcfe;&quot;&gt;$userService&lt;/span&gt;&lt;span style=&quot;color: #d4d4d4;&quot;&gt;-&amp;gt;&lt;/span&gt;&lt;span style=&quot;color: #dcdcaa;&quot;&gt;findUserbyEmail&lt;/span&gt;&lt;span style=&quot;color: #d4d4d4;&quot;&gt;(&lt;/span&gt;&lt;span style=&quot;color: #9cdcfe;&quot;&gt;$email&lt;/span&gt;&lt;span style=&quot;color: #d4d4d4;&quot;&gt;);&lt;/span&gt;&lt;/div&gt;&lt;div&gt;&lt;span style=&quot;color: #d4d4d4;&quot;&gt;&amp;nbsp; &amp;nbsp; &amp;nbsp; &amp;nbsp; &amp;nbsp; &amp;nbsp; &amp;nbsp; &amp;nbsp; &lt;/span&gt;&lt;span style=&quot;color: #4ec9b0;&quot;&gt;SessionService&lt;/span&gt;&lt;span style=&quot;color: #d4d4d4;&quot;&gt;::&lt;/span&gt;&lt;span style=&quot;color: #dcdcaa;&quot;&gt;addUser&lt;/span&gt;&lt;span style=&quot;color: #d4d4d4;&quot;&gt;(&lt;/span&gt;&lt;span style=&quot;color: #9cdcfe;&quot;&gt;$user&lt;/span&gt;&lt;span style=&quot;color: #d4d4d4;&quot;&gt;);&lt;/span&gt;&lt;/div&gt;&lt;br&gt;&lt;div&gt;&lt;span style=&quot;color: #d4d4d4;&quot;&gt;&amp;nbsp; &amp;nbsp; &amp;nbsp; &amp;nbsp; &amp;nbsp; &amp;nbsp; &amp;nbsp; &amp;nbsp; &lt;/span&gt;&lt;span style=&quot;color: #9cdcfe;&quot;&gt;$_SESSION&lt;/span&gt;&lt;span style=&quot;color: #d4d4d4;&quot;&gt;[&lt;/span&gt;&lt;span style=&quot;color: #ce9178;&quot;&gt;&#39;loggedin&#39;&lt;/span&gt;&lt;span style=&quot;color: #d4d4d4;&quot;&gt;] = &lt;/span&gt;&lt;span style=&quot;color: #569cd6;&quot;&gt;true&lt;/span&gt;&lt;span style=&quot;color: #d4d4d4;&quot;&gt;;&lt;/span&gt;&lt;/div&gt;&lt;br&gt;&lt;div&gt;&lt;span style=&quot;color: #d4d4d4;&quot;&gt;&amp;nbsp; &amp;nbsp; &amp;nbsp; &amp;nbsp; &amp;nbsp; &amp;nbsp; &amp;nbsp; &amp;nbsp; &lt;/span&gt;&lt;span style=&quot;color: #dcdcaa;&quot;&gt;header&lt;/span&gt;&lt;span style=&quot;color: #d4d4d4;&quot;&gt;(&lt;/span&gt;&lt;span style=&quot;color: #ce9178;&quot;&gt;&quot;Location: index.php&quot;&lt;/span&gt;&lt;span style=&quot;color: #d4d4d4;&quot;&gt;);&lt;/span&gt;&lt;/div&gt;&lt;div&gt;&lt;span style=&quot;color: #d4d4d4;&quot;&gt;&amp;nbsp; &amp;nbsp; &amp;nbsp; &amp;nbsp; &amp;nbsp; &amp;nbsp; &amp;nbsp; &amp;nbsp; &lt;/span&gt;&lt;span style=&quot;color: #c586c0;&quot;&gt;exit&lt;/span&gt;&lt;span style=&quot;color: #d4d4d4;&quot;&gt;(&lt;/span&gt;&lt;span style=&quot;color: #b5cea8;&quot;&gt;0&lt;/span&gt;&lt;span style=&quot;color: #d4d4d4;&quot;&gt;);&lt;/span&gt;&lt;/div&gt;&lt;div&gt;&lt;span style=&quot;color: #d4d4d4;&quot;&gt;&amp;nbsp; &amp;nbsp; &amp;nbsp; &amp;nbsp; &amp;nbsp; &amp;nbsp; } &lt;/span&gt;&lt;span style=&quot;color: #c586c0;&quot;&gt;else&lt;/span&gt;&lt;span style=&quot;color: #d4d4d4;&quot;&gt; {&lt;/span&gt;&lt;/div&gt;&lt;div&gt;&lt;span style=&quot;color: #d4d4d4;&quot;&gt;&amp;nbsp; &amp;nbsp; &amp;nbsp; &amp;nbsp; &amp;nbsp; &amp;nbsp; &amp;nbsp; &amp;nbsp; &lt;/span&gt;&lt;span style=&quot;color: #c586c0;&quot;&gt;throw&lt;/span&gt;&lt;span style=&quot;color: #d4d4d4;&quot;&gt; &lt;/span&gt;&lt;span style=&quot;color: #569cd6;&quot;&gt;new&lt;/span&gt;&lt;span style=&quot;color: #d4d4d4;&quot;&gt; &lt;/span&gt;&lt;span style=&quot;color: #4ec9b0;&quot;&gt;LoginException&lt;/span&gt;&lt;span style=&quot;color: #d4d4d4;&quot;&gt;(&lt;/span&gt;&lt;span style=&quot;color: #ce9178;&quot;&gt;&#39;E-mail bestaat niet of het wachtwoord is onjuist!&#39;&lt;/span&gt;&lt;span style=&quot;color: #d4d4d4;&quot;&gt;);&lt;/span&gt;&lt;/div&gt;&lt;div&gt;&lt;span style=&quot;color: #d4d4d4;&quot;&gt;&amp;nbsp; &amp;nbsp; &amp;nbsp; &amp;nbsp; &amp;nbsp; &amp;nbsp; }&lt;/span&gt;&lt;/div&gt;&lt;div&gt;&lt;span style=&quot;color: #d4d4d4;&quot;&gt;&amp;nbsp; &amp;nbsp; &amp;nbsp; &amp;nbsp; } &lt;/span&gt;&lt;span style=&quot;color: #c586c0;&quot;&gt;else&lt;/span&gt;&lt;span style=&quot;color: #d4d4d4;&quot;&gt; {&lt;/span&gt;&lt;/div&gt;&lt;div&gt;&lt;span style=&quot;color: #d4d4d4;&quot;&gt;&amp;nbsp; &amp;nbsp; &amp;nbsp; &amp;nbsp; &amp;nbsp; &amp;nbsp; &lt;/span&gt;&lt;span style=&quot;color: #c586c0;&quot;&gt;throw&lt;/span&gt;&lt;span style=&quot;color: #d4d4d4;&quot;&gt; &lt;/span&gt;&lt;span style=&quot;color: #569cd6;&quot;&gt;new&lt;/span&gt;&lt;span style=&quot;color: #d4d4d4;&quot;&gt; &lt;/span&gt;&lt;span style=&quot;color: #4ec9b0;&quot;&gt;LoginException&lt;/span&gt;&lt;span style=&quot;color: #d4d4d4;&quot;&gt;(&lt;/span&gt;&lt;span style=&quot;color: #ce9178;&quot;&gt;&#39;Ongeldig e-mailadres!&#39;&lt;/span&gt;&lt;span style=&quot;color: #d4d4d4;&quot;&gt;);&lt;/span&gt;&lt;/div&gt;&lt;div&gt;&lt;span style=&quot;color: #d4d4d4;&quot;&gt;&amp;nbsp; &amp;nbsp; &amp;nbsp; &amp;nbsp; }&lt;/span&gt;&lt;/div&gt;&lt;div&gt;&lt;span style=&quot;color: #d4d4d4;&quot;&gt;&amp;nbsp; &amp;nbsp; } &lt;/span&gt;&lt;span style=&quot;color: #c586c0;&quot;&gt;catch&lt;/span&gt;&lt;span style=&quot;color: #d4d4d4;&quot;&gt; (&lt;/span&gt;&lt;span style=&quot;color: #4ec9b0;&quot;&gt;LoginException&lt;/span&gt;&lt;span style=&quot;color: #d4d4d4;&quot;&gt; &lt;/span&gt;&lt;span style=&quot;color: #9cdcfe;&quot;&gt;$e&lt;/span&gt;&lt;span style=&quot;color: #d4d4d4;&quot;&gt;) {&lt;/span&gt;&lt;/div&gt;&lt;div&gt;&lt;span style=&quot;color: #d4d4d4;&quot;&gt;&amp;nbsp; &amp;nbsp; &amp;nbsp; &amp;nbsp; &lt;/span&gt;&lt;span style=&quot;color: #9cdcfe;&quot;&gt;$error&lt;/span&gt;&lt;span style=&quot;color: #d4d4d4;&quot;&gt; = &lt;/span&gt;&lt;span style=&quot;color: #dcdcaa;&quot;&gt;urlencode&lt;/span&gt;&lt;span style=&quot;color: #d4d4d4;&quot;&gt;(&lt;/span&gt;&lt;span style=&quot;color: #9cdcfe;&quot;&gt;$e&lt;/span&gt;&lt;span style=&quot;color: #d4d4d4;&quot;&gt;-&amp;gt;&lt;/span&gt;&lt;span style=&quot;color: #dcdcaa;&quot;&gt;getMessage&lt;/span&gt;&lt;span style=&quot;color: #d4d4d4;&quot;&gt;());&lt;/span&gt;&lt;/div&gt;&lt;div&gt;&lt;span style=&quot;color: #d4d4d4;&quot;&gt;&amp;nbsp; &amp;nbsp; &amp;nbsp; &amp;nbsp; &lt;/span&gt;&lt;span style=&quot;color: #dcdcaa;&quot;&gt;header&lt;/span&gt;&lt;span style=&quot;color: #d4d4d4;&quot;&gt;(&lt;/span&gt;&lt;span style=&quot;color: #ce9178;&quot;&gt;&quot;Location: login.php?error=&lt;/span&gt;&lt;span style=&quot;color: #9cdcfe;&quot;&gt;$error&lt;/span&gt;&lt;span style=&quot;color: #ce9178;&quot;&gt;&quot;&lt;/span&gt;&lt;span style=&quot;color: #d4d4d4;&quot;&gt;);&lt;/span&gt;&lt;/div&gt;&lt;div&gt;&lt;span style=&quot;color: #d4d4d4;&quot;&gt;&amp;nbsp; &amp;nbsp; &amp;nbsp; &amp;nbsp; &lt;/span&gt;&lt;span style=&quot;color: #c586c0;&quot;&gt;exit&lt;/span&gt;&lt;span style=&quot;color: #d4d4d4;&quot;&gt;(&lt;/span&gt;&lt;span style=&quot;color: #b5cea8;&quot;&gt;0&lt;/span&gt;&lt;span style=&quot;color: #d4d4d4;&quot;&gt;);&lt;/span&gt;&lt;/div&gt;&lt;div&gt;&lt;span style=&quot;color: #d4d4d4;&quot;&gt;&amp;nbsp; &amp;nbsp; }&lt;/span&gt;&lt;/div&gt;&lt;div&gt;&lt;span style=&quot;color: #d4d4d4;&quot;&gt;}&lt;/span&gt;&lt;/div&gt;&lt;br&gt;&lt;/div&gt;" style="text;html=1;align=left;verticalAlign=middle;resizable=0;points=[];autosize=1;strokeColor=none;fillColor=none;" parent="yM_bUhSgiwBoC7ienWPF-80" vertex="1">
          <mxGeometry x="10" y="20" width="750" height="910" as="geometry" />
        </mxCell>
        <mxCell id="yM_bUhSgiwBoC7ienWPF-145" value="bestelController" style="swimlane;fontStyle=1;childLayout=stackLayout;horizontal=1;startSize=26;horizontalStack=0;resizeParent=1;resizeParentMax=0;resizeLast=0;collapsible=1;marginBottom=0;align=center;fontSize=14;strokeColor=#82b366;fillColor=#d5e8d4;" parent="yM_bUhSgiwBoC7ienWPF-15" vertex="1">
          <mxGeometry x="20" y="740" width="170" height="214" as="geometry" />
        </mxCell>
        <mxCell id="yM_bUhSgiwBoC7ienWPF-146" value="validate order time" style="text;strokeColor=#82b366;fillColor=#d5e8d4;spacingLeft=4;spacingRight=4;overflow=hidden;rotatable=0;points=[[0,0.5],[1,0.5]];portConstraint=eastwest;fontSize=12;whiteSpace=wrap;html=1;" parent="yM_bUhSgiwBoC7ienWPF-145" vertex="1">
          <mxGeometry y="26" width="170" height="30" as="geometry" />
        </mxCell>
        <mxCell id="yM_bUhSgiwBoC7ienWPF-147" value="make object from sanwich and extras" style="text;strokeColor=#82b366;fillColor=#d5e8d4;spacingLeft=4;spacingRight=4;overflow=hidden;rotatable=0;points=[[0,0.5],[1,0.5]];portConstraint=eastwest;fontSize=12;whiteSpace=wrap;html=1;" parent="yM_bUhSgiwBoC7ienWPF-145" vertex="1">
          <mxGeometry y="56" width="170" height="44" as="geometry" />
        </mxCell>
        <mxCell id="yM_bUhSgiwBoC7ienWPF-148" value="Create array for order line (sand and extras)" style="text;strokeColor=#82b366;fillColor=#d5e8d4;spacingLeft=4;spacingRight=4;overflow=hidden;rotatable=0;points=[[0,0.5],[1,0.5]];portConstraint=eastwest;fontSize=12;whiteSpace=wrap;html=1;" parent="yM_bUhSgiwBoC7ienWPF-145" vertex="1">
          <mxGeometry y="100" width="170" height="44" as="geometry" />
        </mxCell>
        <mxCell id="yM_bUhSgiwBoC7ienWPF-149" value="Start session with order line" style="text;strokeColor=#82b366;fillColor=#d5e8d4;spacingLeft=4;spacingRight=4;overflow=hidden;rotatable=0;points=[[0,0.5],[1,0.5]];portConstraint=eastwest;fontSize=12;whiteSpace=wrap;html=1;" parent="yM_bUhSgiwBoC7ienWPF-145" vertex="1">
          <mxGeometry y="144" width="170" height="40" as="geometry" />
        </mxCell>
        <mxCell id="yM_bUhSgiwBoC7ienWPF-151" value="bestelController" style="swimlane;fillColor=#f9f7ed;strokeColor=#36393d;" parent="yM_bUhSgiwBoC7ienWPF-145" vertex="1" collapsed="1">
          <mxGeometry y="184" width="170" height="30" as="geometry">
            <mxRectangle y="184" width="170" height="36" as="alternateBounds" />
          </mxGeometry>
        </mxCell>
        <mxCell id="yM_bUhSgiwBoC7ienWPF-152" value="&lt;div style=&quot;color: rgb(204, 204, 204); background-color: rgb(31, 31, 31); font-family: Consolas, &amp;quot;Courier New&amp;quot;, monospace; font-size: 14px; line-height: 19px; white-space-collapse: preserve;&quot;&gt;&lt;div&gt;&lt;div style=&quot;line-height: 19px;&quot;&gt;&lt;div&gt;&lt;div style=&quot;line-height: 19px;&quot;&gt;&lt;div&gt;&lt;span style=&quot;color: #569cd6;&quot;&gt;&amp;lt;?php&lt;/span&gt;&lt;/div&gt;&lt;div&gt;&lt;span style=&quot;color: #6a9955;&quot;&gt;// bestelController.php&lt;/span&gt;&lt;/div&gt;&lt;br&gt;&lt;div&gt;&lt;span style=&quot;color: #c586c0;&quot;&gt;declare&lt;/span&gt;&lt;span style=&quot;color: #d4d4d4;&quot;&gt;(strict_types=&lt;/span&gt;&lt;span style=&quot;color: #b5cea8;&quot;&gt;1&lt;/span&gt;&lt;span style=&quot;color: #d4d4d4;&quot;&gt;);&lt;/span&gt;&lt;/div&gt;&lt;br&gt;&lt;div&gt;&lt;span style=&quot;color: #dcdcaa;&quot;&gt;spl_autoload_register&lt;/span&gt;&lt;span style=&quot;color: #d4d4d4;&quot;&gt;();&lt;/span&gt;&lt;/div&gt;&lt;br&gt;&lt;div&gt;&lt;span style=&quot;color: #569cd6;&quot;&gt;use&lt;/span&gt;&lt;span style=&quot;color: #d4d4d4;&quot;&gt; Business\&lt;/span&gt;&lt;span style=&quot;color: #4ec9b0;&quot;&gt;BroodService&lt;/span&gt;&lt;span style=&quot;color: #d4d4d4;&quot;&gt;;&lt;/span&gt;&lt;/div&gt;&lt;div&gt;&lt;span style=&quot;color: #569cd6;&quot;&gt;use&lt;/span&gt;&lt;span style=&quot;color: #d4d4d4;&quot;&gt; Business\&lt;/span&gt;&lt;span style=&quot;color: #4ec9b0;&quot;&gt;ExtraService&lt;/span&gt;&lt;span style=&quot;color: #d4d4d4;&quot;&gt;;&lt;/span&gt;&lt;/div&gt;&lt;div&gt;&lt;span style=&quot;color: #569cd6;&quot;&gt;use&lt;/span&gt;&lt;span style=&quot;color: #d4d4d4;&quot;&gt; Business\&lt;/span&gt;&lt;span style=&quot;color: #4ec9b0;&quot;&gt;SessionService&lt;/span&gt;&lt;span style=&quot;color: #d4d4d4;&quot;&gt;;&lt;/span&gt;&lt;/div&gt;&lt;div&gt;&lt;span style=&quot;color: #569cd6;&quot;&gt;use&lt;/span&gt;&lt;span style=&quot;color: #d4d4d4;&quot;&gt; Exceptions\&lt;/span&gt;&lt;span style=&quot;color: #4ec9b0;&quot;&gt;BestellingException&lt;/span&gt;&lt;span style=&quot;color: #d4d4d4;&quot;&gt;;&lt;/span&gt;&lt;/div&gt;&lt;br&gt;&lt;div&gt;&lt;span style=&quot;color: #9cdcfe;&quot;&gt;$totalPrijs&lt;/span&gt;&lt;span style=&quot;color: #d4d4d4;&quot;&gt; = &lt;/span&gt;&lt;span style=&quot;color: #b5cea8;&quot;&gt;0&lt;/span&gt;&lt;span style=&quot;color: #d4d4d4;&quot;&gt;;&lt;/span&gt;&lt;/div&gt;&lt;br&gt;&lt;div&gt;&lt;span style=&quot;color: #c586c0;&quot;&gt;try&lt;/span&gt;&lt;span style=&quot;color: #d4d4d4;&quot;&gt; {&lt;/span&gt;&lt;/div&gt;&lt;div&gt;&lt;span style=&quot;color: #d4d4d4;&quot;&gt;&amp;nbsp; &amp;nbsp; &lt;/span&gt;&lt;span style=&quot;color: #c586c0;&quot;&gt;if&lt;/span&gt;&lt;span style=&quot;color: #d4d4d4;&quot;&gt; (&lt;/span&gt;&lt;span style=&quot;color: #9cdcfe;&quot;&gt;$_SERVER&lt;/span&gt;&lt;span style=&quot;color: #d4d4d4;&quot;&gt;[&lt;/span&gt;&lt;span style=&quot;color: #ce9178;&quot;&gt;&quot;REQUEST_METHOD&quot;&lt;/span&gt;&lt;span style=&quot;color: #d4d4d4;&quot;&gt;] === &lt;/span&gt;&lt;span style=&quot;color: #ce9178;&quot;&gt;&quot;POST&quot;&lt;/span&gt;&lt;span style=&quot;color: #d4d4d4;&quot;&gt;) {&lt;/span&gt;&lt;/div&gt;&lt;br&gt;&lt;div&gt;&lt;span style=&quot;color: #d4d4d4;&quot;&gt;&amp;nbsp; &amp;nbsp; &amp;nbsp; &amp;nbsp; &lt;/span&gt;&lt;span style=&quot;color: #6a9955;&quot;&gt;// time for order validation - WORKING, BUT I NEED TO TEST OTHER THINGS FIRST&lt;/span&gt;&lt;/div&gt;&lt;div&gt;&lt;span style=&quot;color: #d4d4d4;&quot;&gt;&amp;nbsp; &amp;nbsp; &amp;nbsp; &amp;nbsp; &lt;/span&gt;&lt;span style=&quot;color: #6a9955;&quot;&gt;// $currentTime = new DateTime();&lt;/span&gt;&lt;/div&gt;&lt;div&gt;&lt;span style=&quot;color: #d4d4d4;&quot;&gt;&amp;nbsp; &amp;nbsp; &amp;nbsp; &amp;nbsp; &lt;/span&gt;&lt;span style=&quot;color: #6a9955;&quot;&gt;// $limitTime = new DateTime(&#39;09:59&#39;);&lt;/span&gt;&lt;/div&gt;&lt;div&gt;&lt;span style=&quot;color: #d4d4d4;&quot;&gt;&amp;nbsp; &amp;nbsp; &amp;nbsp; &amp;nbsp; &lt;/span&gt;&lt;span style=&quot;color: #6a9955;&quot;&gt;// &lt;/span&gt;&lt;/div&gt;&lt;div&gt;&lt;span style=&quot;color: #d4d4d4;&quot;&gt;&amp;nbsp; &amp;nbsp; &amp;nbsp; &amp;nbsp; &lt;/span&gt;&lt;span style=&quot;color: #6a9955;&quot;&gt;// if ($currentTime &amp;gt; $limitTime) {&lt;/span&gt;&lt;/div&gt;&lt;div&gt;&lt;span style=&quot;color: #d4d4d4;&quot;&gt;&amp;nbsp; &amp;nbsp; &amp;nbsp; &amp;nbsp; &lt;/span&gt;&lt;span style=&quot;color: #6a9955;&quot;&gt;// &amp;nbsp; &amp;nbsp; throw new BestellingException(&quot;Je kan tot 9:59u bestellen. Probeer opnieuw morgen!&quot;);&lt;/span&gt;&lt;/div&gt;&lt;div&gt;&lt;span style=&quot;color: #d4d4d4;&quot;&gt;&amp;nbsp; &amp;nbsp; &amp;nbsp; &amp;nbsp; &lt;/span&gt;&lt;span style=&quot;color: #6a9955;&quot;&gt;// }&lt;/span&gt;&lt;/div&gt;&lt;br&gt;&lt;div&gt;&lt;span style=&quot;color: #d4d4d4;&quot;&gt;&amp;nbsp; &amp;nbsp; &amp;nbsp; &amp;nbsp; &lt;/span&gt;&lt;span style=&quot;color: #c586c0;&quot;&gt;if&lt;/span&gt;&lt;span style=&quot;color: #d4d4d4;&quot;&gt; (&lt;/span&gt;&lt;span style=&quot;color: #dcdcaa;&quot;&gt;isset&lt;/span&gt;&lt;span style=&quot;color: #d4d4d4;&quot;&gt;(&lt;/span&gt;&lt;span style=&quot;color: #9cdcfe;&quot;&gt;$_POST&lt;/span&gt;&lt;span style=&quot;color: #d4d4d4;&quot;&gt;[&lt;/span&gt;&lt;span style=&quot;color: #ce9178;&quot;&gt;&#39;broodId&#39;&lt;/span&gt;&lt;span style=&quot;color: #d4d4d4;&quot;&gt;])) {&lt;/span&gt;&lt;/div&gt;&lt;div&gt;&lt;span style=&quot;color: #d4d4d4;&quot;&gt;&amp;nbsp; &amp;nbsp; &amp;nbsp; &amp;nbsp; &amp;nbsp; &amp;nbsp; &lt;/span&gt;&lt;span style=&quot;color: #9cdcfe;&quot;&gt;$broodId&lt;/span&gt;&lt;span style=&quot;color: #d4d4d4;&quot;&gt; = (&lt;/span&gt;&lt;span style=&quot;color: #569cd6;&quot;&gt;int&lt;/span&gt;&lt;span style=&quot;color: #d4d4d4;&quot;&gt;)&lt;/span&gt;&lt;span style=&quot;color: #9cdcfe;&quot;&gt;$_POST&lt;/span&gt;&lt;span style=&quot;color: #d4d4d4;&quot;&gt;[&lt;/span&gt;&lt;span style=&quot;color: #ce9178;&quot;&gt;&#39;broodId&#39;&lt;/span&gt;&lt;span style=&quot;color: #d4d4d4;&quot;&gt;];&lt;/span&gt;&lt;/div&gt;&lt;br&gt;&lt;div&gt;&lt;span style=&quot;color: #d4d4d4;&quot;&gt;&amp;nbsp; &amp;nbsp; &amp;nbsp; &amp;nbsp; &amp;nbsp; &amp;nbsp; &lt;/span&gt;&lt;span style=&quot;color: #9cdcfe;&quot;&gt;$broodDAO&lt;/span&gt;&lt;span style=&quot;color: #d4d4d4;&quot;&gt; = &lt;/span&gt;&lt;span style=&quot;color: #569cd6;&quot;&gt;new&lt;/span&gt;&lt;span style=&quot;color: #d4d4d4;&quot;&gt; &lt;/span&gt;&lt;span style=&quot;color: #4ec9b0;&quot;&gt;BroodService&lt;/span&gt;&lt;span style=&quot;color: #d4d4d4;&quot;&gt;();&lt;/span&gt;&lt;/div&gt;&lt;div&gt;&lt;span style=&quot;color: #d4d4d4;&quot;&gt;&amp;nbsp; &amp;nbsp; &amp;nbsp; &amp;nbsp; &amp;nbsp; &amp;nbsp; &lt;/span&gt;&lt;span style=&quot;color: #9cdcfe;&quot;&gt;$eenBrood&lt;/span&gt;&lt;span style=&quot;color: #d4d4d4;&quot;&gt; = &lt;/span&gt;&lt;span style=&quot;color: #9cdcfe;&quot;&gt;$broodDAO&lt;/span&gt;&lt;span style=&quot;color: #d4d4d4;&quot;&gt;-&amp;gt;&lt;/span&gt;&lt;span style=&quot;color: #dcdcaa;&quot;&gt;getBrood&lt;/span&gt;&lt;span style=&quot;color: #d4d4d4;&quot;&gt;(&lt;/span&gt;&lt;span style=&quot;color: #9cdcfe;&quot;&gt;$broodId&lt;/span&gt;&lt;span style=&quot;color: #d4d4d4;&quot;&gt;);&lt;/span&gt;&lt;/div&gt;&lt;br&gt;&lt;div&gt;&lt;span style=&quot;color: #d4d4d4;&quot;&gt;&amp;nbsp; &amp;nbsp; &amp;nbsp; &amp;nbsp; &amp;nbsp; &amp;nbsp; &lt;/span&gt;&lt;span style=&quot;color: #9cdcfe;&quot;&gt;$bestellijn&lt;/span&gt;&lt;span style=&quot;color: #d4d4d4;&quot;&gt; = [&lt;/span&gt;&lt;/div&gt;&lt;div&gt;&lt;span style=&quot;color: #d4d4d4;&quot;&gt;&amp;nbsp; &amp;nbsp; &amp;nbsp; &amp;nbsp; &amp;nbsp; &amp;nbsp; &amp;nbsp; &amp;nbsp; &lt;/span&gt;&lt;span style=&quot;color: #ce9178;&quot;&gt;&#39;broodje&#39;&lt;/span&gt;&lt;span style=&quot;color: #d4d4d4;&quot;&gt; =&amp;gt; &lt;/span&gt;&lt;span style=&quot;color: #9cdcfe;&quot;&gt;$eenBrood&lt;/span&gt;&lt;span style=&quot;color: #d4d4d4;&quot;&gt;,&lt;/span&gt;&lt;/div&gt;&lt;div&gt;&lt;span style=&quot;color: #d4d4d4;&quot;&gt;&amp;nbsp; &amp;nbsp; &amp;nbsp; &amp;nbsp; &amp;nbsp; &amp;nbsp; &amp;nbsp; &amp;nbsp; &lt;/span&gt;&lt;span style=&quot;color: #ce9178;&quot;&gt;&#39;extras&#39;&lt;/span&gt;&lt;span style=&quot;color: #d4d4d4;&quot;&gt; =&amp;gt; [],&lt;/span&gt;&lt;/div&gt;&lt;div&gt;&lt;span style=&quot;color: #d4d4d4;&quot;&gt;&amp;nbsp; &amp;nbsp; &amp;nbsp; &amp;nbsp; &amp;nbsp; &amp;nbsp; ];&lt;/span&gt;&lt;/div&gt;&lt;br&gt;&lt;br&gt;&lt;div&gt;&lt;span style=&quot;color: #d4d4d4;&quot;&gt;&amp;nbsp; &amp;nbsp; &amp;nbsp; &amp;nbsp; &amp;nbsp; &amp;nbsp; &lt;/span&gt;&lt;span style=&quot;color: #c586c0;&quot;&gt;if&lt;/span&gt;&lt;span style=&quot;color: #d4d4d4;&quot;&gt; (&lt;/span&gt;&lt;span style=&quot;color: #dcdcaa;&quot;&gt;isset&lt;/span&gt;&lt;span style=&quot;color: #d4d4d4;&quot;&gt;(&lt;/span&gt;&lt;span style=&quot;color: #9cdcfe;&quot;&gt;$_POST&lt;/span&gt;&lt;span style=&quot;color: #d4d4d4;&quot;&gt;[&lt;/span&gt;&lt;span style=&quot;color: #ce9178;&quot;&gt;&#39;extras&#39;&lt;/span&gt;&lt;span style=&quot;color: #d4d4d4;&quot;&gt;])) {&lt;/span&gt;&lt;/div&gt;&lt;div&gt;&lt;span style=&quot;color: #d4d4d4;&quot;&gt;&amp;nbsp; &amp;nbsp; &amp;nbsp; &amp;nbsp; &amp;nbsp; &amp;nbsp; &amp;nbsp; &amp;nbsp; &lt;/span&gt;&lt;span style=&quot;color: #9cdcfe;&quot;&gt;$extrasIds&lt;/span&gt;&lt;span style=&quot;color: #d4d4d4;&quot;&gt; = &lt;/span&gt;&lt;span style=&quot;color: #9cdcfe;&quot;&gt;$_POST&lt;/span&gt;&lt;span style=&quot;color: #d4d4d4;&quot;&gt;[&lt;/span&gt;&lt;span style=&quot;color: #ce9178;&quot;&gt;&#39;extras&#39;&lt;/span&gt;&lt;span style=&quot;color: #d4d4d4;&quot;&gt;];&lt;/span&gt;&lt;/div&gt;&lt;br&gt;&lt;div&gt;&lt;span style=&quot;color: #d4d4d4;&quot;&gt;&amp;nbsp; &amp;nbsp; &amp;nbsp; &amp;nbsp; &amp;nbsp; &amp;nbsp; &amp;nbsp; &amp;nbsp; &lt;/span&gt;&lt;span style=&quot;color: #9cdcfe;&quot;&gt;$extraDAO&lt;/span&gt;&lt;span style=&quot;color: #d4d4d4;&quot;&gt; = &lt;/span&gt;&lt;span style=&quot;color: #569cd6;&quot;&gt;new&lt;/span&gt;&lt;span style=&quot;color: #d4d4d4;&quot;&gt; &lt;/span&gt;&lt;span style=&quot;color: #4ec9b0;&quot;&gt;ExtraService&lt;/span&gt;&lt;span style=&quot;color: #d4d4d4;&quot;&gt;();&lt;/span&gt;&lt;/div&gt;&lt;br&gt;&lt;div&gt;&lt;span style=&quot;color: #d4d4d4;&quot;&gt;&amp;nbsp; &amp;nbsp; &amp;nbsp; &amp;nbsp; &amp;nbsp; &amp;nbsp; &amp;nbsp; &amp;nbsp; &lt;/span&gt;&lt;span style=&quot;color: #c586c0;&quot;&gt;foreach&lt;/span&gt;&lt;span style=&quot;color: #d4d4d4;&quot;&gt; (&lt;/span&gt;&lt;span style=&quot;color: #9cdcfe;&quot;&gt;$extrasIds&lt;/span&gt;&lt;span style=&quot;color: #d4d4d4;&quot;&gt; as &lt;/span&gt;&lt;span style=&quot;color: #9cdcfe;&quot;&gt;$extraId&lt;/span&gt;&lt;span style=&quot;color: #d4d4d4;&quot;&gt;) {&lt;/span&gt;&lt;/div&gt;&lt;div&gt;&lt;span style=&quot;color: #d4d4d4;&quot;&gt;&amp;nbsp; &amp;nbsp; &amp;nbsp; &amp;nbsp; &amp;nbsp; &amp;nbsp; &amp;nbsp; &amp;nbsp; &amp;nbsp; &amp;nbsp; &lt;/span&gt;&lt;span style=&quot;color: #9cdcfe;&quot;&gt;$extra&lt;/span&gt;&lt;span style=&quot;color: #d4d4d4;&quot;&gt; = &lt;/span&gt;&lt;span style=&quot;color: #9cdcfe;&quot;&gt;$extraDAO&lt;/span&gt;&lt;span style=&quot;color: #d4d4d4;&quot;&gt;-&amp;gt;&lt;/span&gt;&lt;span style=&quot;color: #dcdcaa;&quot;&gt;getExtra&lt;/span&gt;&lt;span style=&quot;color: #d4d4d4;&quot;&gt;((&lt;/span&gt;&lt;span style=&quot;color: #569cd6;&quot;&gt;int&lt;/span&gt;&lt;span style=&quot;color: #d4d4d4;&quot;&gt;)(&lt;/span&gt;&lt;span style=&quot;color: #9cdcfe;&quot;&gt;$extraId&lt;/span&gt;&lt;span style=&quot;color: #d4d4d4;&quot;&gt;));&lt;/span&gt;&lt;/div&gt;&lt;div&gt;&lt;span style=&quot;color: #d4d4d4;&quot;&gt;&amp;nbsp; &amp;nbsp; &amp;nbsp; &amp;nbsp; &amp;nbsp; &amp;nbsp; &amp;nbsp; &amp;nbsp; &amp;nbsp; &amp;nbsp; &lt;/span&gt;&lt;span style=&quot;color: #9cdcfe;&quot;&gt;$bestellijn&lt;/span&gt;&lt;span style=&quot;color: #d4d4d4;&quot;&gt;[&lt;/span&gt;&lt;span style=&quot;color: #ce9178;&quot;&gt;&#39;extras&#39;&lt;/span&gt;&lt;span style=&quot;color: #d4d4d4;&quot;&gt;][] = &lt;/span&gt;&lt;span style=&quot;color: #9cdcfe;&quot;&gt;$extra&lt;/span&gt;&lt;span style=&quot;color: #d4d4d4;&quot;&gt;;&lt;/span&gt;&lt;/div&gt;&lt;div&gt;&lt;span style=&quot;color: #d4d4d4;&quot;&gt;&amp;nbsp; &amp;nbsp; &amp;nbsp; &amp;nbsp; &amp;nbsp; &amp;nbsp; &amp;nbsp; &amp;nbsp; }&lt;/span&gt;&lt;/div&gt;&lt;div&gt;&lt;span style=&quot;color: #d4d4d4;&quot;&gt;&amp;nbsp; &amp;nbsp; &amp;nbsp; &amp;nbsp; &amp;nbsp; &amp;nbsp; } &lt;/span&gt;&lt;span style=&quot;color: #c586c0;&quot;&gt;else&lt;/span&gt;&lt;span style=&quot;color: #d4d4d4;&quot;&gt; {&lt;/span&gt;&lt;/div&gt;&lt;div&gt;&lt;span style=&quot;color: #d4d4d4;&quot;&gt;&amp;nbsp; &amp;nbsp; &amp;nbsp; &amp;nbsp; &amp;nbsp; &amp;nbsp; &amp;nbsp; &amp;nbsp; &lt;/span&gt;&lt;span style=&quot;color: #9cdcfe;&quot;&gt;$bestellijn&lt;/span&gt;&lt;span style=&quot;color: #d4d4d4;&quot;&gt;[&lt;/span&gt;&lt;span style=&quot;color: #ce9178;&quot;&gt;&#39;extras&#39;&lt;/span&gt;&lt;span style=&quot;color: #d4d4d4;&quot;&gt;][] = [];&lt;/span&gt;&lt;/div&gt;&lt;div&gt;&lt;span style=&quot;color: #d4d4d4;&quot;&gt;&amp;nbsp; &amp;nbsp; &amp;nbsp; &amp;nbsp; &amp;nbsp; &amp;nbsp; }&lt;/span&gt;&lt;/div&gt;&lt;br&gt;&lt;div&gt;&lt;span style=&quot;color: #d4d4d4;&quot;&gt;&amp;nbsp; &amp;nbsp; &amp;nbsp; &amp;nbsp; &amp;nbsp; &amp;nbsp; &lt;/span&gt;&lt;span style=&quot;color: #4ec9b0;&quot;&gt;SessionService&lt;/span&gt;&lt;span style=&quot;color: #d4d4d4;&quot;&gt;::&lt;/span&gt;&lt;span style=&quot;color: #dcdcaa;&quot;&gt;addBestellijn&lt;/span&gt;&lt;span style=&quot;color: #d4d4d4;&quot;&gt;(&lt;/span&gt;&lt;span style=&quot;color: #9cdcfe;&quot;&gt;$bestellijn&lt;/span&gt;&lt;span style=&quot;color: #d4d4d4;&quot;&gt;);&lt;/span&gt;&lt;/div&gt;&lt;br&gt;&lt;div&gt;&lt;span style=&quot;color: #d4d4d4;&quot;&gt;&amp;nbsp; &amp;nbsp; &amp;nbsp; &amp;nbsp; &amp;nbsp; &amp;nbsp; &lt;/span&gt;&lt;span style=&quot;color: #dcdcaa;&quot;&gt;header&lt;/span&gt;&lt;span style=&quot;color: #d4d4d4;&quot;&gt;(&lt;/span&gt;&lt;span style=&quot;color: #ce9178;&quot;&gt;&quot;Location: &quot;&lt;/span&gt;&lt;span style=&quot;color: #d4d4d4;&quot;&gt; &lt;/span&gt;&lt;span style=&quot;color: #d4d4d4;&quot;&gt;.&lt;/span&gt;&lt;span style=&quot;color: #d4d4d4;&quot;&gt; &lt;/span&gt;&lt;span style=&quot;color: #9cdcfe;&quot;&gt;$_SERVER&lt;/span&gt;&lt;span style=&quot;color: #d4d4d4;&quot;&gt;[&lt;/span&gt;&lt;span style=&quot;color: #ce9178;&quot;&gt;&#39;REQUEST_URI&#39;&lt;/span&gt;&lt;span style=&quot;color: #d4d4d4;&quot;&gt;]);&lt;/span&gt;&lt;/div&gt;&lt;div&gt;&lt;span style=&quot;color: #d4d4d4;&quot;&gt;&amp;nbsp; &amp;nbsp; &amp;nbsp; &amp;nbsp; &amp;nbsp; &amp;nbsp; &lt;/span&gt;&lt;span style=&quot;color: #c586c0;&quot;&gt;exit&lt;/span&gt;&lt;span style=&quot;color: #d4d4d4;&quot;&gt;;&lt;/span&gt;&lt;/div&gt;&lt;div&gt;&lt;span style=&quot;color: #d4d4d4;&quot;&gt;&amp;nbsp; &amp;nbsp; &amp;nbsp; &amp;nbsp; }&lt;/span&gt;&lt;/div&gt;&lt;div&gt;&lt;span style=&quot;color: #d4d4d4;&quot;&gt;&amp;nbsp; &amp;nbsp; }&lt;/span&gt;&lt;/div&gt;&lt;div&gt;&lt;span style=&quot;color: #d4d4d4;&quot;&gt;} &lt;/span&gt;&lt;span style=&quot;color: #c586c0;&quot;&gt;catch&lt;/span&gt;&lt;span style=&quot;color: #d4d4d4;&quot;&gt; (&lt;/span&gt;&lt;span style=&quot;color: #4ec9b0;&quot;&gt;BestellingException&lt;/span&gt;&lt;span style=&quot;color: #d4d4d4;&quot;&gt; &lt;/span&gt;&lt;span style=&quot;color: #9cdcfe;&quot;&gt;$e&lt;/span&gt;&lt;span style=&quot;color: #d4d4d4;&quot;&gt;) {&lt;/span&gt;&lt;/div&gt;&lt;div&gt;&lt;span style=&quot;color: #d4d4d4;&quot;&gt;&amp;nbsp; &amp;nbsp; &lt;/span&gt;&lt;span style=&quot;color: #9cdcfe;&quot;&gt;$errorMessage&lt;/span&gt;&lt;span style=&quot;color: #d4d4d4;&quot;&gt; = &lt;/span&gt;&lt;span style=&quot;color: #9cdcfe;&quot;&gt;$e&lt;/span&gt;&lt;span style=&quot;color: #d4d4d4;&quot;&gt;-&amp;gt;&lt;/span&gt;&lt;span style=&quot;color: #dcdcaa;&quot;&gt;getMessage&lt;/span&gt;&lt;span style=&quot;color: #d4d4d4;&quot;&gt;();&lt;/span&gt;&lt;/div&gt;&lt;div&gt;&lt;span style=&quot;color: #d4d4d4;&quot;&gt;}&lt;/span&gt;&lt;/div&gt;&lt;br&gt;&lt;div&gt;&lt;span style=&quot;color: #dcdcaa;&quot;&gt;header&lt;/span&gt;&lt;span style=&quot;color: #d4d4d4;&quot;&gt;(&lt;/span&gt;&lt;span style=&quot;color: #ce9178;&quot;&gt;&quot;Location: toonMandje.php&quot;&lt;/span&gt;&lt;span style=&quot;color: #d4d4d4;&quot;&gt;);&lt;/span&gt;&lt;/div&gt;&lt;div&gt;&lt;span style=&quot;color: #c586c0;&quot;&gt;exit&lt;/span&gt;&lt;span style=&quot;color: #d4d4d4;&quot;&gt;(&lt;/span&gt;&lt;span style=&quot;color: #b5cea8;&quot;&gt;0&lt;/span&gt;&lt;span style=&quot;color: #d4d4d4;&quot;&gt;);&lt;/span&gt;&lt;/div&gt;&lt;br&gt;&lt;/div&gt;&lt;/div&gt;&lt;/div&gt;&lt;/div&gt;&lt;/div&gt;" style="text;html=1;align=left;verticalAlign=middle;resizable=0;points=[];autosize=1;strokeColor=none;fillColor=none;" parent="yM_bUhSgiwBoC7ienWPF-151" vertex="1">
          <mxGeometry x="10" y="26" width="790" height="1210" as="geometry" />
        </mxCell>
        <mxCell id="yM_bUhSgiwBoC7ienWPF-17" value="Data" style="swimlane;whiteSpace=wrap;html=1;startSize=23;fillColor=#bac8d3;strokeColor=#23445d;" parent="1" vertex="1">
          <mxGeometry x="960" y="40" width="200" height="1440" as="geometry" />
        </mxCell>
        <mxCell id="yM_bUhSgiwBoC7ienWPF-50" value="&lt;b&gt;UserDAO&lt;/b&gt;" style="swimlane;fontStyle=0;childLayout=stackLayout;horizontal=1;startSize=30;horizontalStack=0;resizeParent=1;resizeParentMax=0;resizeLast=0;collapsible=1;marginBottom=0;whiteSpace=wrap;html=1;strokeColor=#ae4132;fillColor=#fad9d5;" parent="yM_bUhSgiwBoC7ienWPF-17" vertex="1">
          <mxGeometry x="30" y="50" width="140" height="180" as="geometry">
            <mxRectangle x="35" y="110" width="60" height="30" as="alternateBounds" />
          </mxGeometry>
        </mxCell>
        <mxCell id="yM_bUhSgiwBoC7ienWPF-51" value="Connect to DB" style="text;strokeColor=#ae4132;fillColor=#fad9d5;align=left;verticalAlign=middle;spacingLeft=4;spacingRight=4;overflow=hidden;points=[[0,0.5],[1,0.5]];portConstraint=eastwest;rotatable=0;whiteSpace=wrap;html=1;" parent="yM_bUhSgiwBoC7ienWPF-50" vertex="1">
          <mxGeometry y="30" width="140" height="30" as="geometry" />
        </mxCell>
        <mxCell id="yM_bUhSgiwBoC7ienWPF-52" value="Check if user exists" style="text;strokeColor=#ae4132;fillColor=#fad9d5;align=left;verticalAlign=middle;spacingLeft=4;spacingRight=4;overflow=hidden;points=[[0,0.5],[1,0.5]];portConstraint=eastwest;rotatable=0;whiteSpace=wrap;html=1;" parent="yM_bUhSgiwBoC7ienWPF-50" vertex="1">
          <mxGeometry y="60" width="140" height="30" as="geometry" />
        </mxCell>
        <mxCell id="yM_bUhSgiwBoC7ienWPF-56" value="Generate password" style="text;strokeColor=#ae4132;fillColor=#fad9d5;align=left;verticalAlign=middle;spacingLeft=4;spacingRight=4;overflow=hidden;points=[[0,0.5],[1,0.5]];portConstraint=eastwest;rotatable=0;whiteSpace=wrap;html=1;" parent="yM_bUhSgiwBoC7ienWPF-50" vertex="1">
          <mxGeometry y="90" width="140" height="30" as="geometry" />
        </mxCell>
        <mxCell id="yM_bUhSgiwBoC7ienWPF-53" value="add User in DB" style="text;strokeColor=#ae4132;fillColor=#fad9d5;align=left;verticalAlign=middle;spacingLeft=4;spacingRight=4;overflow=hidden;points=[[0,0.5],[1,0.5]];portConstraint=eastwest;rotatable=0;whiteSpace=wrap;html=1;" parent="yM_bUhSgiwBoC7ienWPF-50" vertex="1">
          <mxGeometry y="120" width="140" height="30" as="geometry" />
        </mxCell>
        <mxCell id="yM_bUhSgiwBoC7ienWPF-57" value="UserDAO" style="swimlane;fillColor=#bac8d3;strokeColor=#23445d;" parent="yM_bUhSgiwBoC7ienWPF-50" vertex="1" collapsed="1">
          <mxGeometry y="150" width="140" height="30" as="geometry">
            <mxRectangle y="150" width="140" height="800" as="alternateBounds" />
          </mxGeometry>
        </mxCell>
        <mxCell id="yM_bUhSgiwBoC7ienWPF-58" value="&lt;div style=&quot;color: rgb(204, 204, 204); background-color: rgb(31, 31, 31); font-family: Consolas, &amp;quot;Courier New&amp;quot;, monospace; font-size: 14px; line-height: 19px; white-space-collapse: preserve;&quot;&gt;&lt;div&gt;&lt;span style=&quot;color: #569cd6;&quot;&gt;public&lt;/span&gt;&lt;span style=&quot;color: #d4d4d4;&quot;&gt; &lt;/span&gt;&lt;span style=&quot;color: #569cd6;&quot;&gt;function&lt;/span&gt;&lt;span style=&quot;color: #d4d4d4;&quot;&gt; &lt;/span&gt;&lt;span style=&quot;color: #dcdcaa;&quot;&gt;isUser&lt;/span&gt;&lt;span style=&quot;color: #d4d4d4;&quot;&gt;(&lt;/span&gt;&lt;span style=&quot;color: #569cd6;&quot;&gt;string&lt;/span&gt;&lt;span style=&quot;color: #d4d4d4;&quot;&gt; &lt;/span&gt;&lt;span style=&quot;color: #9cdcfe;&quot;&gt;$email&lt;/span&gt;&lt;span style=&quot;color: #d4d4d4;&quot;&gt;): ?&lt;/span&gt;&lt;span style=&quot;color: #569cd6;&quot;&gt;int&lt;/span&gt;&lt;/div&gt;&lt;div&gt;&lt;span style=&quot;color: #d4d4d4;&quot;&gt;&amp;nbsp; &amp;nbsp; {&lt;/span&gt;&lt;/div&gt;&lt;div&gt;&lt;span style=&quot;color: #d4d4d4;&quot;&gt;&amp;nbsp; &amp;nbsp; &amp;nbsp; &amp;nbsp; &lt;/span&gt;&lt;span style=&quot;color: #9cdcfe;&quot;&gt;$dbh&lt;/span&gt;&lt;span style=&quot;color: #d4d4d4;&quot;&gt; = &lt;/span&gt;&lt;span style=&quot;color: #569cd6;&quot;&gt;new&lt;/span&gt;&lt;span style=&quot;color: #d4d4d4;&quot;&gt; &lt;/span&gt;&lt;span style=&quot;color: #4ec9b0;&quot;&gt;PDO&lt;/span&gt;&lt;span style=&quot;color: #d4d4d4;&quot;&gt;(&lt;/span&gt;&lt;span style=&quot;color: #4ec9b0;&quot;&gt;DBConfig&lt;/span&gt;&lt;span style=&quot;color: #d4d4d4;&quot;&gt;::&lt;/span&gt;&lt;span style=&quot;color: #9cdcfe;&quot;&gt;$DB_CONNSTRING&lt;/span&gt;&lt;span style=&quot;color: #d4d4d4;&quot;&gt;, &lt;/span&gt;&lt;span style=&quot;color: #4ec9b0;&quot;&gt;DBConfig&lt;/span&gt;&lt;span style=&quot;color: #d4d4d4;&quot;&gt;::&lt;/span&gt;&lt;span style=&quot;color: #9cdcfe;&quot;&gt;$DB_USERNAME&lt;/span&gt;&lt;span style=&quot;color: #d4d4d4;&quot;&gt;, &lt;/span&gt;&lt;span style=&quot;color: #4ec9b0;&quot;&gt;DBConfig&lt;/span&gt;&lt;span style=&quot;color: #d4d4d4;&quot;&gt;::&lt;/span&gt;&lt;span style=&quot;color: #9cdcfe;&quot;&gt;$DB_PASSWORD&lt;/span&gt;&lt;span style=&quot;color: #d4d4d4;&quot;&gt;);&lt;/span&gt;&lt;/div&gt;&lt;br&gt;&lt;div&gt;&lt;span style=&quot;color: #d4d4d4;&quot;&gt;&amp;nbsp; &amp;nbsp; &amp;nbsp; &amp;nbsp; &lt;/span&gt;&lt;span style=&quot;color: #9cdcfe;&quot;&gt;$sql&lt;/span&gt;&lt;span style=&quot;color: #d4d4d4;&quot;&gt; = &lt;/span&gt;&lt;span style=&quot;color: #ce9178;&quot;&gt;&quot;&lt;/span&gt;&lt;span style=&quot;color: #569cd6;&quot;&gt;SELECT&lt;/span&gt;&lt;span style=&quot;color: #ce9178;&quot;&gt; id &lt;/span&gt;&lt;span style=&quot;color: #569cd6;&quot;&gt;FROM&lt;/span&gt;&lt;span style=&quot;color: #ce9178;&quot;&gt; users &lt;/span&gt;&lt;span style=&quot;color: #569cd6;&quot;&gt;WHERE&lt;/span&gt;&lt;span style=&quot;color: #ce9178;&quot;&gt; email &lt;/span&gt;&lt;span style=&quot;color: #d4d4d4;&quot;&gt;=&lt;/span&gt;&lt;span style=&quot;color: #ce9178;&quot;&gt;:email&lt;/span&gt;&lt;span style=&quot;color: #ce9178;&quot;&gt;&quot;&lt;/span&gt;&lt;span style=&quot;color: #d4d4d4;&quot;&gt;;&lt;/span&gt;&lt;/div&gt;&lt;div&gt;&lt;span style=&quot;color: #d4d4d4;&quot;&gt;&amp;nbsp; &amp;nbsp; &amp;nbsp; &amp;nbsp; &lt;/span&gt;&lt;span style=&quot;color: #9cdcfe;&quot;&gt;$stmt&lt;/span&gt;&lt;span style=&quot;color: #d4d4d4;&quot;&gt; = &lt;/span&gt;&lt;span style=&quot;color: #9cdcfe;&quot;&gt;$dbh&lt;/span&gt;&lt;span style=&quot;color: #d4d4d4;&quot;&gt;-&amp;gt;&lt;/span&gt;&lt;span style=&quot;color: #dcdcaa;&quot;&gt;prepare&lt;/span&gt;&lt;span style=&quot;color: #d4d4d4;&quot;&gt;(&lt;/span&gt;&lt;span style=&quot;color: #9cdcfe;&quot;&gt;$sql&lt;/span&gt;&lt;span style=&quot;color: #d4d4d4;&quot;&gt;);&lt;/span&gt;&lt;/div&gt;&lt;div&gt;&lt;span style=&quot;color: #d4d4d4;&quot;&gt;&amp;nbsp; &amp;nbsp; &amp;nbsp; &amp;nbsp; &lt;/span&gt;&lt;span style=&quot;color: #9cdcfe;&quot;&gt;$stmt&lt;/span&gt;&lt;span style=&quot;color: #d4d4d4;&quot;&gt;-&amp;gt;&lt;/span&gt;&lt;span style=&quot;color: #dcdcaa;&quot;&gt;execute&lt;/span&gt;&lt;span style=&quot;color: #d4d4d4;&quot;&gt;([&lt;/span&gt;&lt;span style=&quot;color: #ce9178;&quot;&gt;&#39;:email&#39;&lt;/span&gt;&lt;span style=&quot;color: #d4d4d4;&quot;&gt; =&amp;gt; &lt;/span&gt;&lt;span style=&quot;color: #9cdcfe;&quot;&gt;$email&lt;/span&gt;&lt;span style=&quot;color: #d4d4d4;&quot;&gt;]);&lt;/span&gt;&lt;/div&gt;&lt;div&gt;&lt;span style=&quot;color: #d4d4d4;&quot;&gt;&amp;nbsp; &amp;nbsp; &amp;nbsp; &amp;nbsp; &lt;/span&gt;&lt;span style=&quot;color: #9cdcfe;&quot;&gt;$result&lt;/span&gt;&lt;span style=&quot;color: #d4d4d4;&quot;&gt; = &lt;/span&gt;&lt;span style=&quot;color: #9cdcfe;&quot;&gt;$stmt&lt;/span&gt;&lt;span style=&quot;color: #d4d4d4;&quot;&gt;-&amp;gt;&lt;/span&gt;&lt;span style=&quot;color: #dcdcaa;&quot;&gt;fetch&lt;/span&gt;&lt;span style=&quot;color: #d4d4d4;&quot;&gt;(&lt;/span&gt;&lt;span style=&quot;color: #4ec9b0;&quot;&gt;PDO&lt;/span&gt;&lt;span style=&quot;color: #d4d4d4;&quot;&gt;::FETCH_ASSOC);&lt;/span&gt;&lt;/div&gt;&lt;div&gt;&lt;span style=&quot;color: #d4d4d4;&quot;&gt;&amp;nbsp; &amp;nbsp; &amp;nbsp; &amp;nbsp; &lt;/span&gt;&lt;span style=&quot;color: #9cdcfe;&quot;&gt;$dbh&lt;/span&gt;&lt;span style=&quot;color: #d4d4d4;&quot;&gt; = &lt;/span&gt;&lt;span style=&quot;color: #569cd6;&quot;&gt;null&lt;/span&gt;&lt;span style=&quot;color: #d4d4d4;&quot;&gt;;&lt;/span&gt;&lt;/div&gt;&lt;br&gt;&lt;div&gt;&lt;span style=&quot;color: #d4d4d4;&quot;&gt;&amp;nbsp; &amp;nbsp; &amp;nbsp; &amp;nbsp; &lt;/span&gt;&lt;span style=&quot;color: #c586c0;&quot;&gt;return&lt;/span&gt;&lt;span style=&quot;color: #d4d4d4;&quot;&gt; &lt;/span&gt;&lt;span style=&quot;color: #9cdcfe;&quot;&gt;$result&lt;/span&gt;&lt;span style=&quot;color: #d4d4d4;&quot;&gt; ? (&lt;/span&gt;&lt;span style=&quot;color: #569cd6;&quot;&gt;int&lt;/span&gt;&lt;span style=&quot;color: #d4d4d4;&quot;&gt;) &lt;/span&gt;&lt;span style=&quot;color: #9cdcfe;&quot;&gt;$result&lt;/span&gt;&lt;span style=&quot;color: #d4d4d4;&quot;&gt;[&lt;/span&gt;&lt;span style=&quot;color: #ce9178;&quot;&gt;&#39;id&#39;&lt;/span&gt;&lt;span style=&quot;color: #d4d4d4;&quot;&gt;] : &lt;/span&gt;&lt;span style=&quot;color: #569cd6;&quot;&gt;null&lt;/span&gt;&lt;span style=&quot;color: #d4d4d4;&quot;&gt;;&lt;/span&gt;&lt;/div&gt;&lt;div&gt;&lt;span style=&quot;color: #d4d4d4;&quot;&gt;&amp;nbsp; &amp;nbsp; }&lt;/span&gt;&lt;/div&gt;&lt;div&gt;&lt;span style=&quot;color: #d4d4d4;&quot;&gt;&lt;br&gt;&lt;/span&gt;&lt;/div&gt;&lt;div&gt;&lt;div style=&quot;line-height: 19px;&quot;&gt;&lt;div&gt;&lt;span style=&quot;color: #569cd6;&quot;&gt;private&lt;/span&gt;&lt;span style=&quot;color: #d4d4d4;&quot;&gt; &lt;/span&gt;&lt;span style=&quot;color: #569cd6;&quot;&gt;function&lt;/span&gt;&lt;span style=&quot;color: #d4d4d4;&quot;&gt; &lt;/span&gt;&lt;span style=&quot;color: #dcdcaa;&quot;&gt;generateRandomPassword&lt;/span&gt;&lt;span style=&quot;color: #d4d4d4;&quot;&gt;(&lt;/span&gt;&lt;span style=&quot;color: #569cd6;&quot;&gt;int&lt;/span&gt;&lt;span style=&quot;color: #d4d4d4;&quot;&gt; &lt;/span&gt;&lt;span style=&quot;color: #9cdcfe;&quot;&gt;$length&lt;/span&gt;&lt;span style=&quot;color: #d4d4d4;&quot;&gt; = &lt;/span&gt;&lt;span style=&quot;color: #b5cea8;&quot;&gt;4&lt;/span&gt;&lt;span style=&quot;color: #d4d4d4;&quot;&gt;): &lt;/span&gt;&lt;span style=&quot;color: #569cd6;&quot;&gt;string&lt;/span&gt;&lt;/div&gt;&lt;div&gt;&lt;span style=&quot;color: #d4d4d4;&quot;&gt;&amp;nbsp; &amp;nbsp; {&lt;/span&gt;&lt;/div&gt;&lt;div&gt;&lt;span style=&quot;color: #d4d4d4;&quot;&gt;&amp;nbsp; &amp;nbsp; &amp;nbsp; &amp;nbsp; &lt;/span&gt;&lt;span style=&quot;color: #9cdcfe;&quot;&gt;$karakters&lt;/span&gt;&lt;span style=&quot;color: #d4d4d4;&quot;&gt; = &lt;/span&gt;&lt;span style=&quot;color: #ce9178;&quot;&gt;&#39;0123456789abcdefghijklmnopqrstuvwxyzABCDEFGHIJKLMNOPQRSTUVWXYZ&#39;&lt;/span&gt;&lt;span style=&quot;color: #d4d4d4;&quot;&gt;;&lt;/span&gt;&lt;/div&gt;&lt;div&gt;&lt;span style=&quot;color: #d4d4d4;&quot;&gt;&amp;nbsp; &amp;nbsp; &amp;nbsp; &amp;nbsp; &lt;/span&gt;&lt;span style=&quot;color: #9cdcfe;&quot;&gt;$password&lt;/span&gt;&lt;span style=&quot;color: #d4d4d4;&quot;&gt; = &lt;/span&gt;&lt;span style=&quot;color: #ce9178;&quot;&gt;&#39;&#39;&lt;/span&gt;&lt;span style=&quot;color: #d4d4d4;&quot;&gt;;&lt;/span&gt;&lt;/div&gt;&lt;br&gt;&lt;div&gt;&lt;span style=&quot;color: #d4d4d4;&quot;&gt;&amp;nbsp; &amp;nbsp; &amp;nbsp; &amp;nbsp; &lt;/span&gt;&lt;span style=&quot;color: #c586c0;&quot;&gt;for&lt;/span&gt;&lt;span style=&quot;color: #d4d4d4;&quot;&gt; (&lt;/span&gt;&lt;span style=&quot;color: #9cdcfe;&quot;&gt;$i&lt;/span&gt;&lt;span style=&quot;color: #d4d4d4;&quot;&gt; = &lt;/span&gt;&lt;span style=&quot;color: #b5cea8;&quot;&gt;0&lt;/span&gt;&lt;span style=&quot;color: #d4d4d4;&quot;&gt;; &lt;/span&gt;&lt;span style=&quot;color: #9cdcfe;&quot;&gt;$i&lt;/span&gt;&lt;span style=&quot;color: #d4d4d4;&quot;&gt; &amp;lt; &lt;/span&gt;&lt;span style=&quot;color: #9cdcfe;&quot;&gt;$length&lt;/span&gt;&lt;span style=&quot;color: #d4d4d4;&quot;&gt;; &lt;/span&gt;&lt;span style=&quot;color: #9cdcfe;&quot;&gt;$i&lt;/span&gt;&lt;span style=&quot;color: #d4d4d4;&quot;&gt;++) {&lt;/span&gt;&lt;/div&gt;&lt;div&gt;&lt;span style=&quot;color: #d4d4d4;&quot;&gt;&amp;nbsp; &amp;nbsp; &amp;nbsp; &amp;nbsp; &amp;nbsp; &amp;nbsp; &lt;/span&gt;&lt;span style=&quot;color: #9cdcfe;&quot;&gt;$random&lt;/span&gt;&lt;span style=&quot;color: #d4d4d4;&quot;&gt; = &lt;/span&gt;&lt;span style=&quot;color: #dcdcaa;&quot;&gt;random_int&lt;/span&gt;&lt;span style=&quot;color: #d4d4d4;&quot;&gt;(&lt;/span&gt;&lt;span style=&quot;color: #b5cea8;&quot;&gt;0&lt;/span&gt;&lt;span style=&quot;color: #d4d4d4;&quot;&gt;, &lt;/span&gt;&lt;span style=&quot;color: #dcdcaa;&quot;&gt;strlen&lt;/span&gt;&lt;span style=&quot;color: #d4d4d4;&quot;&gt;(&lt;/span&gt;&lt;span style=&quot;color: #9cdcfe;&quot;&gt;$karakters&lt;/span&gt;&lt;span style=&quot;color: #d4d4d4;&quot;&gt;) - &lt;/span&gt;&lt;span style=&quot;color: #b5cea8;&quot;&gt;1&lt;/span&gt;&lt;span style=&quot;color: #d4d4d4;&quot;&gt;);&lt;/span&gt;&lt;/div&gt;&lt;div&gt;&lt;span style=&quot;color: #d4d4d4;&quot;&gt;&amp;nbsp; &amp;nbsp; &amp;nbsp; &amp;nbsp; &amp;nbsp; &amp;nbsp; &lt;/span&gt;&lt;span style=&quot;color: #9cdcfe;&quot;&gt;$password&lt;/span&gt;&lt;span style=&quot;color: #d4d4d4;&quot;&gt; &lt;/span&gt;&lt;span style=&quot;color: #d4d4d4;&quot;&gt;.=&lt;/span&gt;&lt;span style=&quot;color: #d4d4d4;&quot;&gt; &lt;/span&gt;&lt;span style=&quot;color: #9cdcfe;&quot;&gt;$karakters&lt;/span&gt;&lt;span style=&quot;color: #d4d4d4;&quot;&gt;[&lt;/span&gt;&lt;span style=&quot;color: #9cdcfe;&quot;&gt;$random&lt;/span&gt;&lt;span style=&quot;color: #d4d4d4;&quot;&gt;];&lt;/span&gt;&lt;/div&gt;&lt;div&gt;&lt;span style=&quot;color: #d4d4d4;&quot;&gt;&amp;nbsp; &amp;nbsp; &amp;nbsp; &amp;nbsp; }&lt;/span&gt;&lt;/div&gt;&lt;br&gt;&lt;div&gt;&lt;span style=&quot;color: #d4d4d4;&quot;&gt;&amp;nbsp; &amp;nbsp; &amp;nbsp; &amp;nbsp; &lt;/span&gt;&lt;span style=&quot;color: #c586c0;&quot;&gt;return&lt;/span&gt;&lt;span style=&quot;color: #d4d4d4;&quot;&gt; &lt;/span&gt;&lt;span style=&quot;color: #9cdcfe;&quot;&gt;$password&lt;/span&gt;&lt;span style=&quot;color: #d4d4d4;&quot;&gt;;&lt;/span&gt;&lt;/div&gt;&lt;div&gt;&lt;span style=&quot;color: #d4d4d4;&quot;&gt;&amp;nbsp; &amp;nbsp; }&lt;/span&gt;&lt;/div&gt;&lt;br&gt;&lt;div&gt;&lt;span style=&quot;color: #d4d4d4;&quot;&gt;&amp;nbsp; &amp;nbsp; &lt;/span&gt;&lt;span style=&quot;color: #569cd6;&quot;&gt;public&lt;/span&gt;&lt;span style=&quot;color: #d4d4d4;&quot;&gt; &lt;/span&gt;&lt;span style=&quot;color: #569cd6;&quot;&gt;function&lt;/span&gt;&lt;span style=&quot;color: #d4d4d4;&quot;&gt; &lt;/span&gt;&lt;span style=&quot;color: #dcdcaa;&quot;&gt;addUser&lt;/span&gt;&lt;span style=&quot;color: #d4d4d4;&quot;&gt;(&lt;/span&gt;&lt;span style=&quot;color: #569cd6;&quot;&gt;string&lt;/span&gt;&lt;span style=&quot;color: #d4d4d4;&quot;&gt; &lt;/span&gt;&lt;span style=&quot;color: #9cdcfe;&quot;&gt;$email&lt;/span&gt;&lt;span style=&quot;color: #d4d4d4;&quot;&gt;): &lt;/span&gt;&lt;span style=&quot;color: #569cd6;&quot;&gt;int&lt;/span&gt;&lt;/div&gt;&lt;div&gt;&lt;span style=&quot;color: #d4d4d4;&quot;&gt;&amp;nbsp; &amp;nbsp; {&lt;/span&gt;&lt;/div&gt;&lt;div&gt;&lt;span style=&quot;color: #d4d4d4;&quot;&gt;&amp;nbsp; &amp;nbsp; &amp;nbsp; &amp;nbsp; &lt;/span&gt;&lt;span style=&quot;color: #9cdcfe;&quot;&gt;$dbh&lt;/span&gt;&lt;span style=&quot;color: #d4d4d4;&quot;&gt; = &lt;/span&gt;&lt;span style=&quot;color: #569cd6;&quot;&gt;new&lt;/span&gt;&lt;span style=&quot;color: #d4d4d4;&quot;&gt; &lt;/span&gt;&lt;span style=&quot;color: #4ec9b0;&quot;&gt;PDO&lt;/span&gt;&lt;span style=&quot;color: #d4d4d4;&quot;&gt;(&lt;/span&gt;&lt;span style=&quot;color: #4ec9b0;&quot;&gt;DBConfig&lt;/span&gt;&lt;span style=&quot;color: #d4d4d4;&quot;&gt;::&lt;/span&gt;&lt;span style=&quot;color: #9cdcfe;&quot;&gt;$DB_CONNSTRING&lt;/span&gt;&lt;span style=&quot;color: #d4d4d4;&quot;&gt;, &lt;/span&gt;&lt;span style=&quot;color: #4ec9b0;&quot;&gt;DBConfig&lt;/span&gt;&lt;span style=&quot;color: #d4d4d4;&quot;&gt;::&lt;/span&gt;&lt;span style=&quot;color: #9cdcfe;&quot;&gt;$DB_USERNAME&lt;/span&gt;&lt;span style=&quot;color: #d4d4d4;&quot;&gt;, &lt;/span&gt;&lt;span style=&quot;color: #4ec9b0;&quot;&gt;DBConfig&lt;/span&gt;&lt;span style=&quot;color: #d4d4d4;&quot;&gt;::&lt;/span&gt;&lt;span style=&quot;color: #9cdcfe;&quot;&gt;$DB_PASSWORD&lt;/span&gt;&lt;span style=&quot;color: #d4d4d4;&quot;&gt;);&lt;/span&gt;&lt;/div&gt;&lt;br&gt;&lt;div&gt;&lt;span style=&quot;color: #d4d4d4;&quot;&gt;&amp;nbsp; &amp;nbsp; &amp;nbsp; &amp;nbsp; &lt;/span&gt;&lt;span style=&quot;color: #9cdcfe;&quot;&gt;$sql&lt;/span&gt;&lt;span style=&quot;color: #d4d4d4;&quot;&gt; = &lt;/span&gt;&lt;span style=&quot;color: #ce9178;&quot;&gt;&quot;&lt;/span&gt;&lt;span style=&quot;color: #569cd6;&quot;&gt;INSERT&lt;/span&gt;&lt;span style=&quot;color: #ce9178;&quot;&gt; &lt;/span&gt;&lt;span style=&quot;color: #569cd6;&quot;&gt;INTO&lt;/span&gt;&lt;span style=&quot;color: #ce9178;&quot;&gt; users (email, &lt;/span&gt;&lt;span style=&quot;color: #569cd6;&quot;&gt;password&lt;/span&gt;&lt;span style=&quot;color: #ce9178;&quot;&gt;) &lt;/span&gt;&lt;span style=&quot;color: #569cd6;&quot;&gt;VALUES&lt;/span&gt;&lt;span style=&quot;color: #ce9178;&quot;&gt; (:email, :&lt;/span&gt;&lt;span style=&quot;color: #569cd6;&quot;&gt;password&lt;/span&gt;&lt;span style=&quot;color: #ce9178;&quot;&gt;)&lt;/span&gt;&lt;span style=&quot;color: #ce9178;&quot;&gt;&quot;&lt;/span&gt;&lt;span style=&quot;color: #d4d4d4;&quot;&gt;;&lt;/span&gt;&lt;/div&gt;&lt;div&gt;&lt;span style=&quot;color: #d4d4d4;&quot;&gt;&amp;nbsp; &amp;nbsp; &amp;nbsp; &amp;nbsp; &lt;/span&gt;&lt;span style=&quot;color: #9cdcfe;&quot;&gt;$stmt&lt;/span&gt;&lt;span style=&quot;color: #d4d4d4;&quot;&gt; = &lt;/span&gt;&lt;span style=&quot;color: #9cdcfe;&quot;&gt;$dbh&lt;/span&gt;&lt;span style=&quot;color: #d4d4d4;&quot;&gt;-&amp;gt;&lt;/span&gt;&lt;span style=&quot;color: #dcdcaa;&quot;&gt;prepare&lt;/span&gt;&lt;span style=&quot;color: #d4d4d4;&quot;&gt;(&lt;/span&gt;&lt;span style=&quot;color: #9cdcfe;&quot;&gt;$sql&lt;/span&gt;&lt;span style=&quot;color: #d4d4d4;&quot;&gt;);&lt;/span&gt;&lt;/div&gt;&lt;div&gt;&lt;span style=&quot;color: #d4d4d4;&quot;&gt;&amp;nbsp; &amp;nbsp; &amp;nbsp; &amp;nbsp; &lt;/span&gt;&lt;span style=&quot;color: #9cdcfe;&quot;&gt;$password&lt;/span&gt;&lt;span style=&quot;color: #d4d4d4;&quot;&gt; = &lt;/span&gt;&lt;span style=&quot;color: #569cd6;&quot;&gt;$this&lt;/span&gt;&lt;span style=&quot;color: #d4d4d4;&quot;&gt;-&amp;gt;&lt;/span&gt;&lt;span style=&quot;color: #dcdcaa;&quot;&gt;generateRandomPassword&lt;/span&gt;&lt;span style=&quot;color: #d4d4d4;&quot;&gt;();&lt;/span&gt;&lt;/div&gt;&lt;div&gt;&lt;span style=&quot;color: #d4d4d4;&quot;&gt;&amp;nbsp; &amp;nbsp; &amp;nbsp; &amp;nbsp; &lt;/span&gt;&lt;span style=&quot;color: #9cdcfe;&quot;&gt;$stmt&lt;/span&gt;&lt;span style=&quot;color: #d4d4d4;&quot;&gt;-&amp;gt;&lt;/span&gt;&lt;span style=&quot;color: #dcdcaa;&quot;&gt;execute&lt;/span&gt;&lt;span style=&quot;color: #d4d4d4;&quot;&gt;([&lt;/span&gt;&lt;span style=&quot;color: #ce9178;&quot;&gt;&#39;:email&#39;&lt;/span&gt;&lt;span style=&quot;color: #d4d4d4;&quot;&gt; =&amp;gt; &lt;/span&gt;&lt;span style=&quot;color: #9cdcfe;&quot;&gt;$email&lt;/span&gt;&lt;span style=&quot;color: #d4d4d4;&quot;&gt;, &lt;/span&gt;&lt;span style=&quot;color: #ce9178;&quot;&gt;&#39;:password&#39;&lt;/span&gt;&lt;span style=&quot;color: #d4d4d4;&quot;&gt; =&amp;gt; &lt;/span&gt;&lt;span style=&quot;color: #9cdcfe;&quot;&gt;$password&lt;/span&gt;&lt;span style=&quot;color: #d4d4d4;&quot;&gt;]);&lt;/span&gt;&lt;/div&gt;&lt;div&gt;&lt;span style=&quot;color: #d4d4d4;&quot;&gt;&amp;nbsp; &amp;nbsp; &amp;nbsp; &amp;nbsp; &lt;/span&gt;&lt;span style=&quot;color: #9cdcfe;&quot;&gt;$userID&lt;/span&gt;&lt;span style=&quot;color: #d4d4d4;&quot;&gt; = &lt;/span&gt;&lt;span style=&quot;color: #9cdcfe;&quot;&gt;$dbh&lt;/span&gt;&lt;span style=&quot;color: #d4d4d4;&quot;&gt;-&amp;gt;&lt;/span&gt;&lt;span style=&quot;color: #dcdcaa;&quot;&gt;lastInsertId&lt;/span&gt;&lt;span style=&quot;color: #d4d4d4;&quot;&gt;();&lt;/span&gt;&lt;/div&gt;&lt;div&gt;&lt;span style=&quot;color: #d4d4d4;&quot;&gt;&amp;nbsp; &amp;nbsp; &amp;nbsp; &amp;nbsp; &lt;/span&gt;&lt;span style=&quot;color: #9cdcfe;&quot;&gt;$dbh&lt;/span&gt;&lt;span style=&quot;color: #d4d4d4;&quot;&gt; = &lt;/span&gt;&lt;span style=&quot;color: #569cd6;&quot;&gt;null&lt;/span&gt;&lt;span style=&quot;color: #d4d4d4;&quot;&gt;;&lt;/span&gt;&lt;/div&gt;&lt;br&gt;&lt;div&gt;&lt;span style=&quot;color: #d4d4d4;&quot;&gt;&amp;nbsp; &amp;nbsp; &amp;nbsp; &amp;nbsp; &lt;/span&gt;&lt;span style=&quot;color: #c586c0;&quot;&gt;return&lt;/span&gt;&lt;span style=&quot;color: #d4d4d4;&quot;&gt; (&lt;/span&gt;&lt;span style=&quot;color: #569cd6;&quot;&gt;int&lt;/span&gt;&lt;span style=&quot;color: #d4d4d4;&quot;&gt;) &lt;/span&gt;&lt;span style=&quot;color: #9cdcfe;&quot;&gt;$userID&lt;/span&gt;&lt;span style=&quot;color: #d4d4d4;&quot;&gt;;&lt;/span&gt;&lt;/div&gt;&lt;div&gt;&lt;span style=&quot;color: #d4d4d4;&quot;&gt;&amp;nbsp; &amp;nbsp; }&lt;/span&gt;&lt;/div&gt;&lt;/div&gt;&lt;/div&gt;&lt;div&gt;&lt;span style=&quot;color: #d4d4d4;&quot;&gt;&lt;br&gt;&lt;/span&gt;&lt;/div&gt;&lt;/div&gt;" style="text;html=1;align=left;verticalAlign=middle;resizable=0;points=[];autosize=1;strokeColor=none;fillColor=none;" parent="yM_bUhSgiwBoC7ienWPF-57" vertex="1">
          <mxGeometry x="10" y="20" width="770" height="770" as="geometry" />
        </mxCell>
        <mxCell id="yM_bUhSgiwBoC7ienWPF-103" value="&lt;b&gt;UserDAO&lt;/b&gt;" style="swimlane;fontStyle=0;childLayout=stackLayout;horizontal=1;startSize=30;horizontalStack=0;resizeParent=1;resizeParentMax=0;resizeLast=0;collapsible=1;marginBottom=0;whiteSpace=wrap;html=1;strokeColor=#6c8ebf;fillColor=#dae8fc;" parent="yM_bUhSgiwBoC7ienWPF-17" vertex="1">
          <mxGeometry x="20" y="276" width="160" height="120" as="geometry">
            <mxRectangle x="35" y="110" width="60" height="30" as="alternateBounds" />
          </mxGeometry>
        </mxCell>
        <mxCell id="yM_bUhSgiwBoC7ienWPF-105" value="Get User by Email" style="text;strokeColor=#6c8ebf;fillColor=#dae8fc;align=left;verticalAlign=middle;spacingLeft=4;spacingRight=4;overflow=hidden;points=[[0,0.5],[1,0.5]];portConstraint=eastwest;rotatable=0;whiteSpace=wrap;html=1;" parent="yM_bUhSgiwBoC7ienWPF-103" vertex="1">
          <mxGeometry y="30" width="160" height="30" as="geometry" />
        </mxCell>
        <mxCell id="yM_bUhSgiwBoC7ienWPF-104" value="Connect to DB" style="text;strokeColor=#6c8ebf;fillColor=#dae8fc;align=left;verticalAlign=middle;spacingLeft=4;spacingRight=4;overflow=hidden;points=[[0,0.5],[1,0.5]];portConstraint=eastwest;rotatable=0;whiteSpace=wrap;html=1;" parent="yM_bUhSgiwBoC7ienWPF-103" vertex="1">
          <mxGeometry y="60" width="160" height="30" as="geometry" />
        </mxCell>
        <mxCell id="yM_bUhSgiwBoC7ienWPF-108" value="UserDAO" style="swimlane;fillColor=#bac8d3;strokeColor=#23445d;" parent="yM_bUhSgiwBoC7ienWPF-103" vertex="1" collapsed="1">
          <mxGeometry y="90" width="160" height="30" as="geometry">
            <mxRectangle y="90" width="160" height="800" as="alternateBounds" />
          </mxGeometry>
        </mxCell>
        <mxCell id="yM_bUhSgiwBoC7ienWPF-109" value="&lt;div style=&quot;color: rgb(204, 204, 204); background-color: rgb(31, 31, 31); font-family: Consolas, &amp;quot;Courier New&amp;quot;, monospace; font-size: 14px; line-height: 19px; white-space-collapse: preserve;&quot;&gt;&lt;div&gt;&lt;div style=&quot;line-height: 19px;&quot;&gt;&lt;div&gt;&lt;span style=&quot;color: #569cd6;&quot;&gt;public&lt;/span&gt;&lt;span style=&quot;color: #d4d4d4;&quot;&gt; &lt;/span&gt;&lt;span style=&quot;color: #569cd6;&quot;&gt;function&lt;/span&gt;&lt;span style=&quot;color: #d4d4d4;&quot;&gt; &lt;/span&gt;&lt;span style=&quot;color: #dcdcaa;&quot;&gt;getUserByEmail&lt;/span&gt;&lt;span style=&quot;color: #d4d4d4;&quot;&gt;(&lt;/span&gt;&lt;span style=&quot;color: #569cd6;&quot;&gt;string&lt;/span&gt;&lt;span style=&quot;color: #d4d4d4;&quot;&gt; &lt;/span&gt;&lt;span style=&quot;color: #9cdcfe;&quot;&gt;$email&lt;/span&gt;&lt;span style=&quot;color: #d4d4d4;&quot;&gt;): ?&lt;/span&gt;&lt;span style=&quot;color: #4ec9b0;&quot;&gt;User&lt;/span&gt;&lt;/div&gt;&lt;div&gt;&lt;span style=&quot;color: #d4d4d4;&quot;&gt;&amp;nbsp; &amp;nbsp; {&lt;/span&gt;&lt;/div&gt;&lt;div&gt;&lt;span style=&quot;color: #d4d4d4;&quot;&gt;&amp;nbsp; &amp;nbsp; &amp;nbsp; &amp;nbsp; &lt;/span&gt;&lt;span style=&quot;color: #9cdcfe;&quot;&gt;$dbh&lt;/span&gt;&lt;span style=&quot;color: #d4d4d4;&quot;&gt; = &lt;/span&gt;&lt;span style=&quot;color: #569cd6;&quot;&gt;new&lt;/span&gt;&lt;span style=&quot;color: #d4d4d4;&quot;&gt; &lt;/span&gt;&lt;span style=&quot;color: #4ec9b0;&quot;&gt;PDO&lt;/span&gt;&lt;span style=&quot;color: #d4d4d4;&quot;&gt;(&lt;/span&gt;&lt;span style=&quot;color: #4ec9b0;&quot;&gt;DBConfig&lt;/span&gt;&lt;span style=&quot;color: #d4d4d4;&quot;&gt;::&lt;/span&gt;&lt;span style=&quot;color: #9cdcfe;&quot;&gt;$DB_CONNSTRING&lt;/span&gt;&lt;span style=&quot;color: #d4d4d4;&quot;&gt;, &lt;/span&gt;&lt;span style=&quot;color: #4ec9b0;&quot;&gt;DBConfig&lt;/span&gt;&lt;span style=&quot;color: #d4d4d4;&quot;&gt;::&lt;/span&gt;&lt;span style=&quot;color: #9cdcfe;&quot;&gt;$DB_USERNAME&lt;/span&gt;&lt;span style=&quot;color: #d4d4d4;&quot;&gt;, &lt;/span&gt;&lt;span style=&quot;color: #4ec9b0;&quot;&gt;DBConfig&lt;/span&gt;&lt;span style=&quot;color: #d4d4d4;&quot;&gt;::&lt;/span&gt;&lt;span style=&quot;color: #9cdcfe;&quot;&gt;$DB_PASSWORD&lt;/span&gt;&lt;span style=&quot;color: #d4d4d4;&quot;&gt;);&lt;/span&gt;&lt;/div&gt;&lt;br&gt;&lt;div&gt;&lt;span style=&quot;color: #d4d4d4;&quot;&gt;&amp;nbsp; &amp;nbsp; &amp;nbsp; &amp;nbsp; &lt;/span&gt;&lt;span style=&quot;color: #9cdcfe;&quot;&gt;$sql&lt;/span&gt;&lt;span style=&quot;color: #d4d4d4;&quot;&gt; = &lt;/span&gt;&lt;span style=&quot;color: #ce9178;&quot;&gt;&quot;&lt;/span&gt;&lt;span style=&quot;color: #569cd6;&quot;&gt;SELECT&lt;/span&gt;&lt;span style=&quot;color: #ce9178;&quot;&gt; id, email, &lt;/span&gt;&lt;span style=&quot;color: #569cd6;&quot;&gt;password&lt;/span&gt;&lt;span style=&quot;color: #ce9178;&quot;&gt; &lt;/span&gt;&lt;span style=&quot;color: #569cd6;&quot;&gt;FROM&lt;/span&gt;&lt;span style=&quot;color: #ce9178;&quot;&gt; users &lt;/span&gt;&lt;span style=&quot;color: #569cd6;&quot;&gt;WHERE&lt;/span&gt;&lt;span style=&quot;color: #ce9178;&quot;&gt; email &lt;/span&gt;&lt;span style=&quot;color: #d4d4d4;&quot;&gt;=&lt;/span&gt;&lt;span style=&quot;color: #ce9178;&quot;&gt; :email&lt;/span&gt;&lt;span style=&quot;color: #ce9178;&quot;&gt;&quot;&lt;/span&gt;&lt;span style=&quot;color: #d4d4d4;&quot;&gt;;&lt;/span&gt;&lt;/div&gt;&lt;div&gt;&lt;span style=&quot;color: #d4d4d4;&quot;&gt;&amp;nbsp; &amp;nbsp; &amp;nbsp; &amp;nbsp; &lt;/span&gt;&lt;span style=&quot;color: #9cdcfe;&quot;&gt;$stmt&lt;/span&gt;&lt;span style=&quot;color: #d4d4d4;&quot;&gt; = &lt;/span&gt;&lt;span style=&quot;color: #9cdcfe;&quot;&gt;$dbh&lt;/span&gt;&lt;span style=&quot;color: #d4d4d4;&quot;&gt;-&amp;gt;&lt;/span&gt;&lt;span style=&quot;color: #dcdcaa;&quot;&gt;prepare&lt;/span&gt;&lt;span style=&quot;color: #d4d4d4;&quot;&gt;(&lt;/span&gt;&lt;span style=&quot;color: #9cdcfe;&quot;&gt;$sql&lt;/span&gt;&lt;span style=&quot;color: #d4d4d4;&quot;&gt;);&lt;/span&gt;&lt;/div&gt;&lt;div&gt;&lt;span style=&quot;color: #d4d4d4;&quot;&gt;&amp;nbsp; &amp;nbsp; &amp;nbsp; &amp;nbsp; &lt;/span&gt;&lt;span style=&quot;color: #9cdcfe;&quot;&gt;$stmt&lt;/span&gt;&lt;span style=&quot;color: #d4d4d4;&quot;&gt;-&amp;gt;&lt;/span&gt;&lt;span style=&quot;color: #dcdcaa;&quot;&gt;execute&lt;/span&gt;&lt;span style=&quot;color: #d4d4d4;&quot;&gt;([&lt;/span&gt;&lt;span style=&quot;color: #ce9178;&quot;&gt;&#39;:email&#39;&lt;/span&gt;&lt;span style=&quot;color: #d4d4d4;&quot;&gt; =&amp;gt; &lt;/span&gt;&lt;span style=&quot;color: #9cdcfe;&quot;&gt;$email&lt;/span&gt;&lt;span style=&quot;color: #d4d4d4;&quot;&gt;]);&lt;/span&gt;&lt;/div&gt;&lt;br&gt;&lt;div&gt;&lt;span style=&quot;color: #d4d4d4;&quot;&gt;&amp;nbsp; &amp;nbsp; &amp;nbsp; &amp;nbsp; &lt;/span&gt;&lt;span style=&quot;color: #9cdcfe;&quot;&gt;$result&lt;/span&gt;&lt;span style=&quot;color: #d4d4d4;&quot;&gt; = &lt;/span&gt;&lt;span style=&quot;color: #9cdcfe;&quot;&gt;$stmt&lt;/span&gt;&lt;span style=&quot;color: #d4d4d4;&quot;&gt;-&amp;gt;&lt;/span&gt;&lt;span style=&quot;color: #dcdcaa;&quot;&gt;fetch&lt;/span&gt;&lt;span style=&quot;color: #d4d4d4;&quot;&gt;(&lt;/span&gt;&lt;span style=&quot;color: #4ec9b0;&quot;&gt;PDO&lt;/span&gt;&lt;span style=&quot;color: #d4d4d4;&quot;&gt;::FETCH_ASSOC);&lt;/span&gt;&lt;/div&gt;&lt;div&gt;&lt;span style=&quot;color: #d4d4d4;&quot;&gt;&amp;nbsp; &amp;nbsp; &amp;nbsp; &amp;nbsp; &lt;/span&gt;&lt;span style=&quot;color: #9cdcfe;&quot;&gt;$dbh&lt;/span&gt;&lt;span style=&quot;color: #d4d4d4;&quot;&gt; = &lt;/span&gt;&lt;span style=&quot;color: #569cd6;&quot;&gt;null&lt;/span&gt;&lt;span style=&quot;color: #d4d4d4;&quot;&gt;;&lt;/span&gt;&lt;/div&gt;&lt;br&gt;&lt;div&gt;&lt;span style=&quot;color: #d4d4d4;&quot;&gt;&amp;nbsp; &amp;nbsp; &amp;nbsp; &amp;nbsp; &lt;/span&gt;&lt;span style=&quot;color: #c586c0;&quot;&gt;if&lt;/span&gt;&lt;span style=&quot;color: #d4d4d4;&quot;&gt; (&lt;/span&gt;&lt;span style=&quot;color: #9cdcfe;&quot;&gt;$result&lt;/span&gt;&lt;span style=&quot;color: #d4d4d4;&quot;&gt;) {&lt;/span&gt;&lt;/div&gt;&lt;div&gt;&lt;span style=&quot;color: #d4d4d4;&quot;&gt;&amp;nbsp; &amp;nbsp; &amp;nbsp; &amp;nbsp; &amp;nbsp; &amp;nbsp; &lt;/span&gt;&lt;span style=&quot;color: #c586c0;&quot;&gt;return&lt;/span&gt;&lt;span style=&quot;color: #d4d4d4;&quot;&gt; &lt;/span&gt;&lt;span style=&quot;color: #569cd6;&quot;&gt;new&lt;/span&gt;&lt;span style=&quot;color: #d4d4d4;&quot;&gt; &lt;/span&gt;&lt;span style=&quot;color: #4ec9b0;&quot;&gt;User&lt;/span&gt;&lt;span style=&quot;color: #d4d4d4;&quot;&gt;((&lt;/span&gt;&lt;span style=&quot;color: #569cd6;&quot;&gt;int&lt;/span&gt;&lt;span style=&quot;color: #d4d4d4;&quot;&gt;) &lt;/span&gt;&lt;span style=&quot;color: #9cdcfe;&quot;&gt;$result&lt;/span&gt;&lt;span style=&quot;color: #d4d4d4;&quot;&gt;[&lt;/span&gt;&lt;span style=&quot;color: #ce9178;&quot;&gt;&#39;id&#39;&lt;/span&gt;&lt;span style=&quot;color: #d4d4d4;&quot;&gt;], &lt;/span&gt;&lt;span style=&quot;color: #9cdcfe;&quot;&gt;$result&lt;/span&gt;&lt;span style=&quot;color: #d4d4d4;&quot;&gt;[&lt;/span&gt;&lt;span style=&quot;color: #ce9178;&quot;&gt;&#39;email&#39;&lt;/span&gt;&lt;span style=&quot;color: #d4d4d4;&quot;&gt;], &lt;/span&gt;&lt;span style=&quot;color: #9cdcfe;&quot;&gt;$result&lt;/span&gt;&lt;span style=&quot;color: #d4d4d4;&quot;&gt;[&lt;/span&gt;&lt;span style=&quot;color: #ce9178;&quot;&gt;&#39;password&#39;&lt;/span&gt;&lt;span style=&quot;color: #d4d4d4;&quot;&gt;]);&lt;/span&gt;&lt;/div&gt;&lt;div&gt;&lt;span style=&quot;color: #d4d4d4;&quot;&gt;&amp;nbsp; &amp;nbsp; &amp;nbsp; &amp;nbsp; } &lt;/span&gt;&lt;span style=&quot;color: #c586c0;&quot;&gt;else&lt;/span&gt;&lt;span style=&quot;color: #d4d4d4;&quot;&gt; {&lt;/span&gt;&lt;/div&gt;&lt;div&gt;&lt;span style=&quot;color: #d4d4d4;&quot;&gt;&amp;nbsp; &amp;nbsp; &amp;nbsp; &amp;nbsp; &amp;nbsp; &amp;nbsp; &lt;/span&gt;&lt;span style=&quot;color: #c586c0;&quot;&gt;return&lt;/span&gt;&lt;span style=&quot;color: #d4d4d4;&quot;&gt; &lt;/span&gt;&lt;span style=&quot;color: #569cd6;&quot;&gt;null&lt;/span&gt;&lt;span style=&quot;color: #d4d4d4;&quot;&gt;;&lt;/span&gt;&lt;/div&gt;&lt;div&gt;&lt;span style=&quot;color: #d4d4d4;&quot;&gt;&amp;nbsp; &amp;nbsp; &amp;nbsp; &amp;nbsp; }&lt;/span&gt;&lt;/div&gt;&lt;div&gt;&lt;span style=&quot;color: #d4d4d4;&quot;&gt;&amp;nbsp; &amp;nbsp; }&lt;/span&gt;&lt;/div&gt;&lt;br&gt;&lt;/div&gt;&lt;/div&gt;&lt;/div&gt;" style="text;html=1;align=left;verticalAlign=middle;resizable=0;points=[];autosize=1;strokeColor=none;fillColor=none;" parent="yM_bUhSgiwBoC7ienWPF-108" vertex="1">
          <mxGeometry x="10" y="225" width="770" height="360" as="geometry" />
        </mxCell>
        <mxCell id="yM_bUhSgiwBoC7ienWPF-128" value="&lt;b&gt;BroodDAO&lt;/b&gt;" style="swimlane;fontStyle=0;childLayout=stackLayout;horizontal=1;startSize=30;horizontalStack=0;resizeParent=1;resizeParentMax=0;resizeLast=0;collapsible=1;marginBottom=0;whiteSpace=wrap;html=1;strokeColor=#d79b00;fillColor=#ffe6cc;fontColor=default;" parent="yM_bUhSgiwBoC7ienWPF-17" vertex="1">
          <mxGeometry x="20" y="520" width="160" height="120" as="geometry">
            <mxRectangle x="35" y="110" width="60" height="30" as="alternateBounds" />
          </mxGeometry>
        </mxCell>
        <mxCell id="yM_bUhSgiwBoC7ienWPF-130" value="Connect to DB" style="text;strokeColor=#d79b00;fillColor=#ffe6cc;align=left;verticalAlign=middle;spacingLeft=4;spacingRight=4;overflow=hidden;points=[[0,0.5],[1,0.5]];portConstraint=eastwest;rotatable=0;whiteSpace=wrap;html=1;fontColor=default;" parent="yM_bUhSgiwBoC7ienWPF-128" vertex="1">
          <mxGeometry y="30" width="160" height="30" as="geometry" />
        </mxCell>
        <mxCell id="yM_bUhSgiwBoC7ienWPF-129" value="Get full list of sandwiches" style="text;strokeColor=#d79b00;fillColor=#ffe6cc;align=left;verticalAlign=middle;spacingLeft=4;spacingRight=4;overflow=hidden;points=[[0,0.5],[1,0.5]];portConstraint=eastwest;rotatable=0;whiteSpace=wrap;html=1;fontColor=default;" parent="yM_bUhSgiwBoC7ienWPF-128" vertex="1">
          <mxGeometry y="60" width="160" height="30" as="geometry" />
        </mxCell>
        <mxCell id="yM_bUhSgiwBoC7ienWPF-131" value="BroodDAO" style="swimlane;fillColor=#bac8d3;strokeColor=#23445d;" parent="yM_bUhSgiwBoC7ienWPF-128" vertex="1" collapsed="1">
          <mxGeometry y="90" width="160" height="30" as="geometry">
            <mxRectangle y="90" width="160" height="800" as="alternateBounds" />
          </mxGeometry>
        </mxCell>
        <mxCell id="yM_bUhSgiwBoC7ienWPF-132" value="&lt;div style=&quot;color: rgb(204, 204, 204); background-color: rgb(31, 31, 31); font-family: Consolas, &amp;quot;Courier New&amp;quot;, monospace; font-size: 14px; line-height: 19px; white-space-collapse: preserve;&quot;&gt;&lt;div&gt;&lt;div style=&quot;line-height: 19px;&quot;&gt;&lt;div&gt;&lt;div style=&quot;line-height: 19px;&quot;&gt;&lt;div&gt;&lt;span style=&quot;color: #d4d4d4;&quot;&gt;&amp;nbsp; &lt;/span&gt;&lt;span style=&quot;color: #569cd6;&quot;&gt;public&lt;/span&gt;&lt;span style=&quot;color: #d4d4d4;&quot;&gt; &lt;/span&gt;&lt;span style=&quot;color: #569cd6;&quot;&gt;function&lt;/span&gt;&lt;span style=&quot;color: #d4d4d4;&quot;&gt; &lt;/span&gt;&lt;span style=&quot;color: #dcdcaa;&quot;&gt;getBroodjes&lt;/span&gt;&lt;span style=&quot;color: #d4d4d4;&quot;&gt;(): &lt;/span&gt;&lt;span style=&quot;color: #569cd6;&quot;&gt;array&lt;/span&gt;&lt;/div&gt;&lt;div&gt;&lt;span style=&quot;color: #d4d4d4;&quot;&gt;&amp;nbsp; &amp;nbsp; {&lt;/span&gt;&lt;/div&gt;&lt;div&gt;&lt;span style=&quot;color: #d4d4d4;&quot;&gt;&amp;nbsp; &amp;nbsp; &amp;nbsp; &amp;nbsp; &lt;/span&gt;&lt;span style=&quot;color: #9cdcfe;&quot;&gt;$dbh&lt;/span&gt;&lt;span style=&quot;color: #d4d4d4;&quot;&gt; = &lt;/span&gt;&lt;span style=&quot;color: #569cd6;&quot;&gt;new&lt;/span&gt;&lt;span style=&quot;color: #d4d4d4;&quot;&gt; &lt;/span&gt;&lt;span style=&quot;color: #4ec9b0;&quot;&gt;PDO&lt;/span&gt;&lt;span style=&quot;color: #d4d4d4;&quot;&gt;(&lt;/span&gt;&lt;span style=&quot;color: #4ec9b0;&quot;&gt;DBConfig&lt;/span&gt;&lt;span style=&quot;color: #d4d4d4;&quot;&gt;::&lt;/span&gt;&lt;span style=&quot;color: #9cdcfe;&quot;&gt;$DB_CONNSTRING&lt;/span&gt;&lt;span style=&quot;color: #d4d4d4;&quot;&gt;, &lt;/span&gt;&lt;span style=&quot;color: #4ec9b0;&quot;&gt;DBConfig&lt;/span&gt;&lt;span style=&quot;color: #d4d4d4;&quot;&gt;::&lt;/span&gt;&lt;span style=&quot;color: #9cdcfe;&quot;&gt;$DB_USERNAME&lt;/span&gt;&lt;span style=&quot;color: #d4d4d4;&quot;&gt;, &lt;/span&gt;&lt;span style=&quot;color: #4ec9b0;&quot;&gt;DBConfig&lt;/span&gt;&lt;span style=&quot;color: #d4d4d4;&quot;&gt;::&lt;/span&gt;&lt;span style=&quot;color: #9cdcfe;&quot;&gt;$DB_PASSWORD&lt;/span&gt;&lt;span style=&quot;color: #d4d4d4;&quot;&gt;);&lt;/span&gt;&lt;/div&gt;&lt;br&gt;&lt;div&gt;&lt;span style=&quot;color: #d4d4d4;&quot;&gt;&amp;nbsp; &amp;nbsp; &amp;nbsp; &amp;nbsp; &lt;/span&gt;&lt;span style=&quot;color: #9cdcfe;&quot;&gt;$sql&lt;/span&gt;&lt;span style=&quot;color: #d4d4d4;&quot;&gt; = &lt;/span&gt;&lt;span style=&quot;color: #ce9178;&quot;&gt;&quot;&lt;/span&gt;&lt;span style=&quot;color: #569cd6;&quot;&gt;SELECT&lt;/span&gt;&lt;span style=&quot;color: #ce9178;&quot;&gt; broodjeId, naam, omschrijving, prijs &lt;/span&gt;&lt;span style=&quot;color: #569cd6;&quot;&gt;FROM&lt;/span&gt;&lt;span style=&quot;color: #ce9178;&quot;&gt; broodjes &lt;/span&gt;&lt;span style=&quot;color: #569cd6;&quot;&gt;ORDER BY&lt;/span&gt;&lt;span style=&quot;color: #ce9178;&quot;&gt; naam&lt;/span&gt;&lt;span style=&quot;color: #ce9178;&quot;&gt;&quot;&lt;/span&gt;&lt;span style=&quot;color: #d4d4d4;&quot;&gt;;&lt;/span&gt;&lt;/div&gt;&lt;div&gt;&lt;span style=&quot;color: #d4d4d4;&quot;&gt;&amp;nbsp; &amp;nbsp; &amp;nbsp; &amp;nbsp; &lt;/span&gt;&lt;span style=&quot;color: #9cdcfe;&quot;&gt;$resultSet&lt;/span&gt;&lt;span style=&quot;color: #d4d4d4;&quot;&gt; = &lt;/span&gt;&lt;span style=&quot;color: #9cdcfe;&quot;&gt;$dbh&lt;/span&gt;&lt;span style=&quot;color: #d4d4d4;&quot;&gt;-&amp;gt;&lt;/span&gt;&lt;span style=&quot;color: #dcdcaa;&quot;&gt;query&lt;/span&gt;&lt;span style=&quot;color: #d4d4d4;&quot;&gt;(&lt;/span&gt;&lt;span style=&quot;color: #9cdcfe;&quot;&gt;$sql&lt;/span&gt;&lt;span style=&quot;color: #d4d4d4;&quot;&gt;);&lt;/span&gt;&lt;/div&gt;&lt;div&gt;&lt;span style=&quot;color: #d4d4d4;&quot;&gt;&amp;nbsp; &amp;nbsp; &amp;nbsp; &amp;nbsp; &lt;/span&gt;&lt;span style=&quot;color: #9cdcfe;&quot;&gt;$lijst&lt;/span&gt;&lt;span style=&quot;color: #d4d4d4;&quot;&gt; = &lt;/span&gt;&lt;span style=&quot;color: #dcdcaa;&quot;&gt;array&lt;/span&gt;&lt;span style=&quot;color: #d4d4d4;&quot;&gt;();&lt;/span&gt;&lt;/div&gt;&lt;div&gt;&lt;span style=&quot;color: #d4d4d4;&quot;&gt;&amp;nbsp; &amp;nbsp; &amp;nbsp; &amp;nbsp; &lt;/span&gt;&lt;span style=&quot;color: #c586c0;&quot;&gt;foreach&lt;/span&gt;&lt;span style=&quot;color: #d4d4d4;&quot;&gt; (&lt;/span&gt;&lt;span style=&quot;color: #9cdcfe;&quot;&gt;$resultSet&lt;/span&gt;&lt;span style=&quot;color: #d4d4d4;&quot;&gt; as &lt;/span&gt;&lt;span style=&quot;color: #9cdcfe;&quot;&gt;$rij&lt;/span&gt;&lt;span style=&quot;color: #d4d4d4;&quot;&gt;) {&lt;/span&gt;&lt;/div&gt;&lt;div&gt;&lt;span style=&quot;color: #d4d4d4;&quot;&gt;&amp;nbsp; &amp;nbsp; &amp;nbsp; &amp;nbsp; &amp;nbsp; &amp;nbsp; &lt;/span&gt;&lt;span style=&quot;color: #9cdcfe;&quot;&gt;$brood&lt;/span&gt;&lt;span style=&quot;color: #d4d4d4;&quot;&gt; = &lt;/span&gt;&lt;span style=&quot;color: #569cd6;&quot;&gt;new&lt;/span&gt;&lt;span style=&quot;color: #d4d4d4;&quot;&gt; &lt;/span&gt;&lt;span style=&quot;color: #4ec9b0;&quot;&gt;Brood&lt;/span&gt;&lt;span style=&quot;color: #d4d4d4;&quot;&gt;((&lt;/span&gt;&lt;span style=&quot;color: #569cd6;&quot;&gt;int&lt;/span&gt;&lt;span style=&quot;color: #d4d4d4;&quot;&gt;) &lt;/span&gt;&lt;span style=&quot;color: #9cdcfe;&quot;&gt;$rij&lt;/span&gt;&lt;span style=&quot;color: #d4d4d4;&quot;&gt;[&lt;/span&gt;&lt;span style=&quot;color: #ce9178;&quot;&gt;&quot;broodjeId&quot;&lt;/span&gt;&lt;span style=&quot;color: #d4d4d4;&quot;&gt;], &lt;/span&gt;&lt;span style=&quot;color: #9cdcfe;&quot;&gt;$rij&lt;/span&gt;&lt;span style=&quot;color: #d4d4d4;&quot;&gt;[&lt;/span&gt;&lt;span style=&quot;color: #ce9178;&quot;&gt;&quot;naam&quot;&lt;/span&gt;&lt;span style=&quot;color: #d4d4d4;&quot;&gt;], &lt;/span&gt;&lt;span style=&quot;color: #9cdcfe;&quot;&gt;$rij&lt;/span&gt;&lt;span style=&quot;color: #d4d4d4;&quot;&gt;[&lt;/span&gt;&lt;span style=&quot;color: #ce9178;&quot;&gt;&quot;omschrijving&quot;&lt;/span&gt;&lt;span style=&quot;color: #d4d4d4;&quot;&gt;], (&lt;/span&gt;&lt;span style=&quot;color: #569cd6;&quot;&gt;float&lt;/span&gt;&lt;span style=&quot;color: #d4d4d4;&quot;&gt;) &lt;/span&gt;&lt;span style=&quot;color: #9cdcfe;&quot;&gt;$rij&lt;/span&gt;&lt;span style=&quot;color: #d4d4d4;&quot;&gt;[&lt;/span&gt;&lt;span style=&quot;color: #ce9178;&quot;&gt;&quot;prijs&quot;&lt;/span&gt;&lt;span style=&quot;color: #d4d4d4;&quot;&gt;]);&lt;/span&gt;&lt;/div&gt;&lt;div&gt;&lt;span style=&quot;color: #d4d4d4;&quot;&gt;&amp;nbsp; &amp;nbsp; &amp;nbsp; &amp;nbsp; &amp;nbsp; &amp;nbsp; &lt;/span&gt;&lt;span style=&quot;color: #dcdcaa;&quot;&gt;array_push&lt;/span&gt;&lt;span style=&quot;color: #d4d4d4;&quot;&gt;(&lt;/span&gt;&lt;span style=&quot;color: #9cdcfe;&quot;&gt;$lijst&lt;/span&gt;&lt;span style=&quot;color: #d4d4d4;&quot;&gt;, &lt;/span&gt;&lt;span style=&quot;color: #9cdcfe;&quot;&gt;$brood&lt;/span&gt;&lt;span style=&quot;color: #d4d4d4;&quot;&gt;);&lt;/span&gt;&lt;/div&gt;&lt;div&gt;&lt;span style=&quot;color: #d4d4d4;&quot;&gt;&amp;nbsp; &amp;nbsp; &amp;nbsp; &amp;nbsp; }&lt;/span&gt;&lt;/div&gt;&lt;br&gt;&lt;div&gt;&lt;span style=&quot;color: #d4d4d4;&quot;&gt;&amp;nbsp; &amp;nbsp; &amp;nbsp; &amp;nbsp; &lt;/span&gt;&lt;span style=&quot;color: #9cdcfe;&quot;&gt;$dbh&lt;/span&gt;&lt;span style=&quot;color: #d4d4d4;&quot;&gt; = &lt;/span&gt;&lt;span style=&quot;color: #569cd6;&quot;&gt;null&lt;/span&gt;&lt;span style=&quot;color: #d4d4d4;&quot;&gt;;&lt;/span&gt;&lt;/div&gt;&lt;div&gt;&lt;span style=&quot;color: #d4d4d4;&quot;&gt;&amp;nbsp; &amp;nbsp; &amp;nbsp; &amp;nbsp; &lt;/span&gt;&lt;span style=&quot;color: #c586c0;&quot;&gt;return&lt;/span&gt;&lt;span style=&quot;color: #d4d4d4;&quot;&gt; &lt;/span&gt;&lt;span style=&quot;color: #9cdcfe;&quot;&gt;$lijst&lt;/span&gt;&lt;span style=&quot;color: #d4d4d4;&quot;&gt;;&lt;/span&gt;&lt;/div&gt;&lt;div&gt;&lt;span style=&quot;color: #d4d4d4;&quot;&gt;&amp;nbsp; &amp;nbsp; }&lt;/span&gt;&lt;/div&gt;&lt;/div&gt;&lt;/div&gt;&lt;/div&gt;&lt;/div&gt;&lt;/div&gt;" style="text;html=1;align=left;verticalAlign=middle;resizable=0;points=[];autosize=1;strokeColor=none;fillColor=none;" parent="yM_bUhSgiwBoC7ienWPF-131" vertex="1">
          <mxGeometry x="10" y="255" width="910" height="300" as="geometry" />
        </mxCell>
        <mxCell id="yM_bUhSgiwBoC7ienWPF-173" value="&lt;b&gt;BroodDAO&lt;/b&gt;" style="swimlane;fontStyle=0;childLayout=stackLayout;horizontal=1;startSize=30;horizontalStack=0;resizeParent=1;resizeParentMax=0;resizeLast=0;collapsible=1;marginBottom=0;whiteSpace=wrap;html=1;strokeColor=#82b366;fillColor=#d5e8d4;" parent="yM_bUhSgiwBoC7ienWPF-17" vertex="1">
          <mxGeometry x="15" y="740" width="170" height="120" as="geometry">
            <mxRectangle x="35" y="110" width="60" height="30" as="alternateBounds" />
          </mxGeometry>
        </mxCell>
        <mxCell id="yM_bUhSgiwBoC7ienWPF-174" value="Connect to DB" style="text;strokeColor=#82b366;fillColor=#d5e8d4;align=left;verticalAlign=middle;spacingLeft=4;spacingRight=4;overflow=hidden;points=[[0,0.5],[1,0.5]];portConstraint=eastwest;rotatable=0;whiteSpace=wrap;html=1;" parent="yM_bUhSgiwBoC7ienWPF-173" vertex="1">
          <mxGeometry y="30" width="170" height="30" as="geometry" />
        </mxCell>
        <mxCell id="yM_bUhSgiwBoC7ienWPF-175" value="Get Brood by Id" style="text;strokeColor=#82b366;fillColor=#d5e8d4;align=left;verticalAlign=middle;spacingLeft=4;spacingRight=4;overflow=hidden;points=[[0,0.5],[1,0.5]];portConstraint=eastwest;rotatable=0;whiteSpace=wrap;html=1;" parent="yM_bUhSgiwBoC7ienWPF-173" vertex="1">
          <mxGeometry y="60" width="170" height="30" as="geometry" />
        </mxCell>
        <mxCell id="yM_bUhSgiwBoC7ienWPF-176" value="BroodDAO" style="swimlane;fillColor=#bac8d3;strokeColor=#23445d;" parent="yM_bUhSgiwBoC7ienWPF-173" vertex="1" collapsed="1">
          <mxGeometry y="90" width="170" height="30" as="geometry">
            <mxRectangle y="90" width="170" height="800" as="alternateBounds" />
          </mxGeometry>
        </mxCell>
        <mxCell id="yM_bUhSgiwBoC7ienWPF-177" value="&lt;div style=&quot;color: rgb(204, 204, 204); background-color: rgb(31, 31, 31); font-family: Consolas, &amp;quot;Courier New&amp;quot;, monospace; font-size: 14px; line-height: 19px; white-space-collapse: preserve;&quot;&gt;&lt;div style=&quot;line-height: 19px;&quot;&gt;&lt;div style=&quot;line-height: 19px;&quot;&gt;&lt;div style=&quot;line-height: 19px;&quot;&gt;&lt;div&gt;&lt;span style=&quot;color: #569cd6;&quot;&gt;public&lt;/span&gt;&lt;span style=&quot;color: #d4d4d4;&quot;&gt; &lt;/span&gt;&lt;span style=&quot;color: #569cd6;&quot;&gt;function&lt;/span&gt;&lt;span style=&quot;color: #d4d4d4;&quot;&gt; &lt;/span&gt;&lt;span style=&quot;color: #dcdcaa;&quot;&gt;getBroodById&lt;/span&gt;&lt;span style=&quot;color: #d4d4d4;&quot;&gt;(&lt;/span&gt;&lt;span style=&quot;color: #569cd6;&quot;&gt;int&lt;/span&gt;&lt;span style=&quot;color: #d4d4d4;&quot;&gt; &lt;/span&gt;&lt;span style=&quot;color: #9cdcfe;&quot;&gt;$broodjeId&lt;/span&gt;&lt;span style=&quot;color: #d4d4d4;&quot;&gt;): &lt;/span&gt;&lt;span style=&quot;color: #4ec9b0;&quot;&gt;Brood&lt;/span&gt;&lt;/div&gt;&lt;div&gt;&lt;span style=&quot;color: #d4d4d4;&quot;&gt;&amp;nbsp; &amp;nbsp; {&lt;/span&gt;&lt;/div&gt;&lt;div&gt;&lt;span style=&quot;color: #d4d4d4;&quot;&gt;&amp;nbsp; &amp;nbsp; &amp;nbsp; &amp;nbsp; &lt;/span&gt;&lt;span style=&quot;color: #9cdcfe;&quot;&gt;$dbh&lt;/span&gt;&lt;span style=&quot;color: #d4d4d4;&quot;&gt; = &lt;/span&gt;&lt;span style=&quot;color: #569cd6;&quot;&gt;new&lt;/span&gt;&lt;span style=&quot;color: #d4d4d4;&quot;&gt; &lt;/span&gt;&lt;span style=&quot;color: #4ec9b0;&quot;&gt;PDO&lt;/span&gt;&lt;span style=&quot;color: #d4d4d4;&quot;&gt;(&lt;/span&gt;&lt;span style=&quot;color: #4ec9b0;&quot;&gt;DBConfig&lt;/span&gt;&lt;span style=&quot;color: #d4d4d4;&quot;&gt;::&lt;/span&gt;&lt;span style=&quot;color: #9cdcfe;&quot;&gt;$DB_CONNSTRING&lt;/span&gt;&lt;span style=&quot;color: #d4d4d4;&quot;&gt;, &lt;/span&gt;&lt;span style=&quot;color: #4ec9b0;&quot;&gt;DBConfig&lt;/span&gt;&lt;span style=&quot;color: #d4d4d4;&quot;&gt;::&lt;/span&gt;&lt;span style=&quot;color: #9cdcfe;&quot;&gt;$DB_USERNAME&lt;/span&gt;&lt;span style=&quot;color: #d4d4d4;&quot;&gt;, &lt;/span&gt;&lt;span style=&quot;color: #4ec9b0;&quot;&gt;DBConfig&lt;/span&gt;&lt;span style=&quot;color: #d4d4d4;&quot;&gt;::&lt;/span&gt;&lt;span style=&quot;color: #9cdcfe;&quot;&gt;$DB_PASSWORD&lt;/span&gt;&lt;span style=&quot;color: #d4d4d4;&quot;&gt;);&lt;/span&gt;&lt;/div&gt;&lt;br&gt;&lt;div&gt;&lt;span style=&quot;color: #d4d4d4;&quot;&gt;&amp;nbsp; &amp;nbsp; &amp;nbsp; &amp;nbsp; &lt;/span&gt;&lt;span style=&quot;color: #9cdcfe;&quot;&gt;$sql&lt;/span&gt;&lt;span style=&quot;color: #d4d4d4;&quot;&gt; = &lt;/span&gt;&lt;span style=&quot;color: #ce9178;&quot;&gt;&quot;&lt;/span&gt;&lt;span style=&quot;color: #569cd6;&quot;&gt;SELECT&lt;/span&gt;&lt;span style=&quot;color: #ce9178;&quot;&gt; broodjeId, naam, omschrijving, prijs &lt;/span&gt;&lt;span style=&quot;color: #569cd6;&quot;&gt;FROM&lt;/span&gt;&lt;span style=&quot;color: #ce9178;&quot;&gt; broodjes &lt;/span&gt;&lt;span style=&quot;color: #569cd6;&quot;&gt;WHERE&lt;/span&gt;&lt;span style=&quot;color: #ce9178;&quot;&gt; broodjeId &lt;/span&gt;&lt;span style=&quot;color: #d4d4d4;&quot;&gt;=&lt;/span&gt;&lt;span style=&quot;color: #ce9178;&quot;&gt; :broodjeId&lt;/span&gt;&lt;span style=&quot;color: #ce9178;&quot;&gt;&quot;&lt;/span&gt;&lt;span style=&quot;color: #d4d4d4;&quot;&gt;;&lt;/span&gt;&lt;/div&gt;&lt;div&gt;&lt;span style=&quot;color: #d4d4d4;&quot;&gt;&amp;nbsp; &amp;nbsp; &amp;nbsp; &amp;nbsp; &lt;/span&gt;&lt;span style=&quot;color: #9cdcfe;&quot;&gt;$stmt&lt;/span&gt;&lt;span style=&quot;color: #d4d4d4;&quot;&gt; = &lt;/span&gt;&lt;span style=&quot;color: #9cdcfe;&quot;&gt;$dbh&lt;/span&gt;&lt;span style=&quot;color: #d4d4d4;&quot;&gt;-&amp;gt;&lt;/span&gt;&lt;span style=&quot;color: #dcdcaa;&quot;&gt;prepare&lt;/span&gt;&lt;span style=&quot;color: #d4d4d4;&quot;&gt;(&lt;/span&gt;&lt;span style=&quot;color: #9cdcfe;&quot;&gt;$sql&lt;/span&gt;&lt;span style=&quot;color: #d4d4d4;&quot;&gt;);&lt;/span&gt;&lt;/div&gt;&lt;div&gt;&lt;span style=&quot;color: #d4d4d4;&quot;&gt;&amp;nbsp; &amp;nbsp; &amp;nbsp; &amp;nbsp; &lt;/span&gt;&lt;span style=&quot;color: #9cdcfe;&quot;&gt;$stmt&lt;/span&gt;&lt;span style=&quot;color: #d4d4d4;&quot;&gt;-&amp;gt;&lt;/span&gt;&lt;span style=&quot;color: #dcdcaa;&quot;&gt;execute&lt;/span&gt;&lt;span style=&quot;color: #d4d4d4;&quot;&gt;(&lt;/span&gt;&lt;span style=&quot;color: #dcdcaa;&quot;&gt;array&lt;/span&gt;&lt;span style=&quot;color: #d4d4d4;&quot;&gt;(&lt;/span&gt;&lt;span style=&quot;color: #ce9178;&quot;&gt;&#39;:broodjeId&#39;&lt;/span&gt;&lt;span style=&quot;color: #d4d4d4;&quot;&gt; =&amp;gt; &lt;/span&gt;&lt;span style=&quot;color: #9cdcfe;&quot;&gt;$broodjeId&lt;/span&gt;&lt;span style=&quot;color: #d4d4d4;&quot;&gt;));&lt;/span&gt;&lt;/div&gt;&lt;div&gt;&lt;span style=&quot;color: #d4d4d4;&quot;&gt;&amp;nbsp; &amp;nbsp; &amp;nbsp; &amp;nbsp; &lt;/span&gt;&lt;span style=&quot;color: #9cdcfe;&quot;&gt;$rij&lt;/span&gt;&lt;span style=&quot;color: #d4d4d4;&quot;&gt; = &lt;/span&gt;&lt;span style=&quot;color: #9cdcfe;&quot;&gt;$stmt&lt;/span&gt;&lt;span style=&quot;color: #d4d4d4;&quot;&gt;-&amp;gt;&lt;/span&gt;&lt;span style=&quot;color: #dcdcaa;&quot;&gt;fetch&lt;/span&gt;&lt;span style=&quot;color: #d4d4d4;&quot;&gt;(&lt;/span&gt;&lt;span style=&quot;color: #4ec9b0;&quot;&gt;PDO&lt;/span&gt;&lt;span style=&quot;color: #d4d4d4;&quot;&gt;::FETCH_ASSOC);&lt;/span&gt;&lt;/div&gt;&lt;div&gt;&lt;span style=&quot;color: #d4d4d4;&quot;&gt;&amp;nbsp; &amp;nbsp; &amp;nbsp; &amp;nbsp; &lt;/span&gt;&lt;span style=&quot;color: #9cdcfe;&quot;&gt;$brood&lt;/span&gt;&lt;span style=&quot;color: #d4d4d4;&quot;&gt; = &lt;/span&gt;&lt;span style=&quot;color: #569cd6;&quot;&gt;new&lt;/span&gt;&lt;span style=&quot;color: #d4d4d4;&quot;&gt; &lt;/span&gt;&lt;span style=&quot;color: #4ec9b0;&quot;&gt;Brood&lt;/span&gt;&lt;span style=&quot;color: #d4d4d4;&quot;&gt;((&lt;/span&gt;&lt;span style=&quot;color: #569cd6;&quot;&gt;int&lt;/span&gt;&lt;span style=&quot;color: #d4d4d4;&quot;&gt;)&lt;/span&gt;&lt;span style=&quot;color: #9cdcfe;&quot;&gt;$broodjeId&lt;/span&gt;&lt;span style=&quot;color: #d4d4d4;&quot;&gt;, &lt;/span&gt;&lt;span style=&quot;color: #9cdcfe;&quot;&gt;$rij&lt;/span&gt;&lt;span style=&quot;color: #d4d4d4;&quot;&gt;[&lt;/span&gt;&lt;span style=&quot;color: #ce9178;&quot;&gt;&#39;naam&#39;&lt;/span&gt;&lt;span style=&quot;color: #d4d4d4;&quot;&gt;], &lt;/span&gt;&lt;span style=&quot;color: #9cdcfe;&quot;&gt;$rij&lt;/span&gt;&lt;span style=&quot;color: #d4d4d4;&quot;&gt;[&lt;/span&gt;&lt;span style=&quot;color: #ce9178;&quot;&gt;&#39;omschrijving&#39;&lt;/span&gt;&lt;span style=&quot;color: #d4d4d4;&quot;&gt;], (&lt;/span&gt;&lt;span style=&quot;color: #569cd6;&quot;&gt;float&lt;/span&gt;&lt;span style=&quot;color: #d4d4d4;&quot;&gt;)&lt;/span&gt;&lt;span style=&quot;color: #9cdcfe;&quot;&gt;$rij&lt;/span&gt;&lt;span style=&quot;color: #d4d4d4;&quot;&gt;[&lt;/span&gt;&lt;span style=&quot;color: #ce9178;&quot;&gt;&#39;prijs&#39;&lt;/span&gt;&lt;span style=&quot;color: #d4d4d4;&quot;&gt;]);&lt;/span&gt;&lt;/div&gt;&lt;br&gt;&lt;div&gt;&lt;span style=&quot;color: #d4d4d4;&quot;&gt;&amp;nbsp; &amp;nbsp; &amp;nbsp; &amp;nbsp; &lt;/span&gt;&lt;span style=&quot;color: #9cdcfe;&quot;&gt;$dbh&lt;/span&gt;&lt;span style=&quot;color: #d4d4d4;&quot;&gt; = &lt;/span&gt;&lt;span style=&quot;color: #569cd6;&quot;&gt;null&lt;/span&gt;&lt;span style=&quot;color: #d4d4d4;&quot;&gt;;&lt;/span&gt;&lt;/div&gt;&lt;br&gt;&lt;div&gt;&lt;span style=&quot;color: #d4d4d4;&quot;&gt;&amp;nbsp; &amp;nbsp; &amp;nbsp; &amp;nbsp; &lt;/span&gt;&lt;span style=&quot;color: #c586c0;&quot;&gt;return&lt;/span&gt;&lt;span style=&quot;color: #d4d4d4;&quot;&gt; &lt;/span&gt;&lt;span style=&quot;color: #9cdcfe;&quot;&gt;$brood&lt;/span&gt;&lt;span style=&quot;color: #d4d4d4;&quot;&gt;;&lt;/span&gt;&lt;/div&gt;&lt;div&gt;&lt;span style=&quot;color: #d4d4d4;&quot;&gt;&amp;nbsp; &amp;nbsp; }&lt;/span&gt;&lt;/div&gt;&lt;/div&gt;&lt;/div&gt;&lt;/div&gt;&lt;/div&gt;" style="text;html=1;align=left;verticalAlign=middle;resizable=0;points=[];autosize=1;strokeColor=none;fillColor=none;" parent="yM_bUhSgiwBoC7ienWPF-176" vertex="1">
          <mxGeometry x="10" y="265" width="820" height="280" as="geometry" />
        </mxCell>
        <mxCell id="yM_bUhSgiwBoC7ienWPF-178" value="&lt;b&gt;ExtraDAO&lt;/b&gt;" style="swimlane;fontStyle=0;childLayout=stackLayout;horizontal=1;startSize=30;horizontalStack=0;resizeParent=1;resizeParentMax=0;resizeLast=0;collapsible=1;marginBottom=0;whiteSpace=wrap;html=1;strokeColor=#82b366;fillColor=#d5e8d4;" parent="yM_bUhSgiwBoC7ienWPF-17" vertex="1">
          <mxGeometry x="15" y="900" width="170" height="120" as="geometry">
            <mxRectangle x="35" y="110" width="60" height="30" as="alternateBounds" />
          </mxGeometry>
        </mxCell>
        <mxCell id="yM_bUhSgiwBoC7ienWPF-179" value="Connect to DB" style="text;strokeColor=#82b366;fillColor=#d5e8d4;align=left;verticalAlign=middle;spacingLeft=4;spacingRight=4;overflow=hidden;points=[[0,0.5],[1,0.5]];portConstraint=eastwest;rotatable=0;whiteSpace=wrap;html=1;" parent="yM_bUhSgiwBoC7ienWPF-178" vertex="1">
          <mxGeometry y="30" width="170" height="30" as="geometry" />
        </mxCell>
        <mxCell id="yM_bUhSgiwBoC7ienWPF-180" value="Get Extra by Id" style="text;strokeColor=#82b366;fillColor=#d5e8d4;align=left;verticalAlign=middle;spacingLeft=4;spacingRight=4;overflow=hidden;points=[[0,0.5],[1,0.5]];portConstraint=eastwest;rotatable=0;whiteSpace=wrap;html=1;" parent="yM_bUhSgiwBoC7ienWPF-178" vertex="1">
          <mxGeometry y="60" width="170" height="30" as="geometry" />
        </mxCell>
        <mxCell id="yM_bUhSgiwBoC7ienWPF-181" value="ExtraDAO" style="swimlane;fillColor=#bac8d3;strokeColor=#23445d;" parent="yM_bUhSgiwBoC7ienWPF-178" vertex="1" collapsed="1">
          <mxGeometry y="90" width="170" height="30" as="geometry">
            <mxRectangle y="90" width="170" height="30" as="alternateBounds" />
          </mxGeometry>
        </mxCell>
        <mxCell id="yM_bUhSgiwBoC7ienWPF-182" value="&lt;div style=&quot;color: rgb(204, 204, 204); background-color: rgb(31, 31, 31); font-family: Consolas, &amp;quot;Courier New&amp;quot;, monospace; font-size: 14px; line-height: 19px; white-space-collapse: preserve;&quot;&gt;&lt;div style=&quot;line-height: 19px;&quot;&gt;&lt;div style=&quot;line-height: 19px;&quot;&gt;&lt;div style=&quot;line-height: 19px;&quot;&gt;&lt;div style=&quot;line-height: 19px;&quot;&gt;&lt;div&gt;&lt;span style=&quot;color: #569cd6;&quot;&gt;public&lt;/span&gt;&lt;span style=&quot;color: #d4d4d4;&quot;&gt; &lt;/span&gt;&lt;span style=&quot;color: #569cd6;&quot;&gt;function&lt;/span&gt;&lt;span style=&quot;color: #d4d4d4;&quot;&gt; &lt;/span&gt;&lt;span style=&quot;color: #dcdcaa;&quot;&gt;getExtraById&lt;/span&gt;&lt;span style=&quot;color: #d4d4d4;&quot;&gt;(&lt;/span&gt;&lt;span style=&quot;color: #569cd6;&quot;&gt;int&lt;/span&gt;&lt;span style=&quot;color: #d4d4d4;&quot;&gt; &lt;/span&gt;&lt;span style=&quot;color: #9cdcfe;&quot;&gt;$extraId&lt;/span&gt;&lt;span style=&quot;color: #d4d4d4;&quot;&gt;): &lt;/span&gt;&lt;span style=&quot;color: #4ec9b0;&quot;&gt;Extra&lt;/span&gt;&lt;/div&gt;&lt;div&gt;&lt;span style=&quot;color: #d4d4d4;&quot;&gt;&amp;nbsp; &amp;nbsp; {&lt;/span&gt;&lt;/div&gt;&lt;div&gt;&lt;span style=&quot;color: #d4d4d4;&quot;&gt;&amp;nbsp; &amp;nbsp; &amp;nbsp; &amp;nbsp; &lt;/span&gt;&lt;span style=&quot;color: #9cdcfe;&quot;&gt;$dbh&lt;/span&gt;&lt;span style=&quot;color: #d4d4d4;&quot;&gt; = &lt;/span&gt;&lt;span style=&quot;color: #569cd6;&quot;&gt;new&lt;/span&gt;&lt;span style=&quot;color: #d4d4d4;&quot;&gt; &lt;/span&gt;&lt;span style=&quot;color: #4ec9b0;&quot;&gt;PDO&lt;/span&gt;&lt;span style=&quot;color: #d4d4d4;&quot;&gt;(&lt;/span&gt;&lt;span style=&quot;color: #4ec9b0;&quot;&gt;DBConfig&lt;/span&gt;&lt;span style=&quot;color: #d4d4d4;&quot;&gt;::&lt;/span&gt;&lt;span style=&quot;color: #9cdcfe;&quot;&gt;$DB_CONNSTRING&lt;/span&gt;&lt;span style=&quot;color: #d4d4d4;&quot;&gt;, &lt;/span&gt;&lt;span style=&quot;color: #4ec9b0;&quot;&gt;DBConfig&lt;/span&gt;&lt;span style=&quot;color: #d4d4d4;&quot;&gt;::&lt;/span&gt;&lt;span style=&quot;color: #9cdcfe;&quot;&gt;$DB_USERNAME&lt;/span&gt;&lt;span style=&quot;color: #d4d4d4;&quot;&gt;, &lt;/span&gt;&lt;span style=&quot;color: #4ec9b0;&quot;&gt;DBConfig&lt;/span&gt;&lt;span style=&quot;color: #d4d4d4;&quot;&gt;::&lt;/span&gt;&lt;span style=&quot;color: #9cdcfe;&quot;&gt;$DB_PASSWORD&lt;/span&gt;&lt;span style=&quot;color: #d4d4d4;&quot;&gt;);&lt;/span&gt;&lt;/div&gt;&lt;br&gt;&lt;div&gt;&lt;span style=&quot;color: #d4d4d4;&quot;&gt;&amp;nbsp; &amp;nbsp; &amp;nbsp; &amp;nbsp; &lt;/span&gt;&lt;span style=&quot;color: #9cdcfe;&quot;&gt;$sql&lt;/span&gt;&lt;span style=&quot;color: #d4d4d4;&quot;&gt; = &lt;/span&gt;&lt;span style=&quot;color: #ce9178;&quot;&gt;&quot;&lt;/span&gt;&lt;span style=&quot;color: #569cd6;&quot;&gt;SELECT&lt;/span&gt;&lt;span style=&quot;color: #ce9178;&quot;&gt; extraId, naam, prijs &lt;/span&gt;&lt;span style=&quot;color: #569cd6;&quot;&gt;FROM&lt;/span&gt;&lt;span style=&quot;color: #ce9178;&quot;&gt; extras &lt;/span&gt;&lt;span style=&quot;color: #569cd6;&quot;&gt;WHERE&lt;/span&gt;&lt;span style=&quot;color: #ce9178;&quot;&gt; extraId &lt;/span&gt;&lt;span style=&quot;color: #d4d4d4;&quot;&gt;=&lt;/span&gt;&lt;span style=&quot;color: #ce9178;&quot;&gt; :extraId&lt;/span&gt;&lt;span style=&quot;color: #ce9178;&quot;&gt;&quot;&lt;/span&gt;&lt;span style=&quot;color: #d4d4d4;&quot;&gt;;&lt;/span&gt;&lt;/div&gt;&lt;div&gt;&lt;span style=&quot;color: #d4d4d4;&quot;&gt;&amp;nbsp; &amp;nbsp; &amp;nbsp; &amp;nbsp; &lt;/span&gt;&lt;span style=&quot;color: #9cdcfe;&quot;&gt;$stmt&lt;/span&gt;&lt;span style=&quot;color: #d4d4d4;&quot;&gt; = &lt;/span&gt;&lt;span style=&quot;color: #9cdcfe;&quot;&gt;$dbh&lt;/span&gt;&lt;span style=&quot;color: #d4d4d4;&quot;&gt;-&amp;gt;&lt;/span&gt;&lt;span style=&quot;color: #dcdcaa;&quot;&gt;prepare&lt;/span&gt;&lt;span style=&quot;color: #d4d4d4;&quot;&gt;(&lt;/span&gt;&lt;span style=&quot;color: #9cdcfe;&quot;&gt;$sql&lt;/span&gt;&lt;span style=&quot;color: #d4d4d4;&quot;&gt;);&lt;/span&gt;&lt;/div&gt;&lt;div&gt;&lt;span style=&quot;color: #d4d4d4;&quot;&gt;&amp;nbsp; &amp;nbsp; &amp;nbsp; &amp;nbsp; &lt;/span&gt;&lt;span style=&quot;color: #9cdcfe;&quot;&gt;$stmt&lt;/span&gt;&lt;span style=&quot;color: #d4d4d4;&quot;&gt;-&amp;gt;&lt;/span&gt;&lt;span style=&quot;color: #dcdcaa;&quot;&gt;execute&lt;/span&gt;&lt;span style=&quot;color: #d4d4d4;&quot;&gt;(&lt;/span&gt;&lt;span style=&quot;color: #dcdcaa;&quot;&gt;array&lt;/span&gt;&lt;span style=&quot;color: #d4d4d4;&quot;&gt;(&lt;/span&gt;&lt;span style=&quot;color: #ce9178;&quot;&gt;&#39;:extraId&#39;&lt;/span&gt;&lt;span style=&quot;color: #d4d4d4;&quot;&gt; =&amp;gt; &lt;/span&gt;&lt;span style=&quot;color: #9cdcfe;&quot;&gt;$extraId&lt;/span&gt;&lt;span style=&quot;color: #d4d4d4;&quot;&gt;));&lt;/span&gt;&lt;/div&gt;&lt;div&gt;&lt;span style=&quot;color: #d4d4d4;&quot;&gt;&amp;nbsp; &amp;nbsp; &amp;nbsp; &amp;nbsp; &lt;/span&gt;&lt;span style=&quot;color: #9cdcfe;&quot;&gt;$rij&lt;/span&gt;&lt;span style=&quot;color: #d4d4d4;&quot;&gt; = &lt;/span&gt;&lt;span style=&quot;color: #9cdcfe;&quot;&gt;$stmt&lt;/span&gt;&lt;span style=&quot;color: #d4d4d4;&quot;&gt;-&amp;gt;&lt;/span&gt;&lt;span style=&quot;color: #dcdcaa;&quot;&gt;fetch&lt;/span&gt;&lt;span style=&quot;color: #d4d4d4;&quot;&gt;(&lt;/span&gt;&lt;span style=&quot;color: #4ec9b0;&quot;&gt;PDO&lt;/span&gt;&lt;span style=&quot;color: #d4d4d4;&quot;&gt;::FETCH_ASSOC);&lt;/span&gt;&lt;/div&gt;&lt;div&gt;&lt;span style=&quot;color: #d4d4d4;&quot;&gt;&amp;nbsp; &amp;nbsp; &amp;nbsp; &amp;nbsp; &lt;/span&gt;&lt;span style=&quot;color: #9cdcfe;&quot;&gt;$extra&lt;/span&gt;&lt;span style=&quot;color: #d4d4d4;&quot;&gt; = &lt;/span&gt;&lt;span style=&quot;color: #569cd6;&quot;&gt;new&lt;/span&gt;&lt;span style=&quot;color: #d4d4d4;&quot;&gt; &lt;/span&gt;&lt;span style=&quot;color: #4ec9b0;&quot;&gt;Extra&lt;/span&gt;&lt;span style=&quot;color: #d4d4d4;&quot;&gt;((&lt;/span&gt;&lt;span style=&quot;color: #569cd6;&quot;&gt;int&lt;/span&gt;&lt;span style=&quot;color: #d4d4d4;&quot;&gt;)&lt;/span&gt;&lt;span style=&quot;color: #9cdcfe;&quot;&gt;$extraId&lt;/span&gt;&lt;span style=&quot;color: #d4d4d4;&quot;&gt;, &lt;/span&gt;&lt;span style=&quot;color: #9cdcfe;&quot;&gt;$rij&lt;/span&gt;&lt;span style=&quot;color: #d4d4d4;&quot;&gt;[&lt;/span&gt;&lt;span style=&quot;color: #ce9178;&quot;&gt;&#39;naam&#39;&lt;/span&gt;&lt;span style=&quot;color: #d4d4d4;&quot;&gt;], (&lt;/span&gt;&lt;span style=&quot;color: #569cd6;&quot;&gt;float&lt;/span&gt;&lt;span style=&quot;color: #d4d4d4;&quot;&gt;)&lt;/span&gt;&lt;span style=&quot;color: #9cdcfe;&quot;&gt;$rij&lt;/span&gt;&lt;span style=&quot;color: #d4d4d4;&quot;&gt;[&lt;/span&gt;&lt;span style=&quot;color: #ce9178;&quot;&gt;&#39;prijs&#39;&lt;/span&gt;&lt;span style=&quot;color: #d4d4d4;&quot;&gt;]);&lt;/span&gt;&lt;/div&gt;&lt;br&gt;&lt;div&gt;&lt;span style=&quot;color: #d4d4d4;&quot;&gt;&amp;nbsp; &amp;nbsp; &amp;nbsp; &amp;nbsp; &lt;/span&gt;&lt;span style=&quot;color: #9cdcfe;&quot;&gt;$dbh&lt;/span&gt;&lt;span style=&quot;color: #d4d4d4;&quot;&gt; = &lt;/span&gt;&lt;span style=&quot;color: #569cd6;&quot;&gt;null&lt;/span&gt;&lt;span style=&quot;color: #d4d4d4;&quot;&gt;;&lt;/span&gt;&lt;/div&gt;&lt;br&gt;&lt;div&gt;&lt;span style=&quot;color: #d4d4d4;&quot;&gt;&amp;nbsp; &amp;nbsp; &amp;nbsp; &amp;nbsp; &lt;/span&gt;&lt;span style=&quot;color: #c586c0;&quot;&gt;return&lt;/span&gt;&lt;span style=&quot;color: #d4d4d4;&quot;&gt; &lt;/span&gt;&lt;span style=&quot;color: #9cdcfe;&quot;&gt;$extra&lt;/span&gt;&lt;span style=&quot;color: #d4d4d4;&quot;&gt;;&lt;/span&gt;&lt;/div&gt;&lt;div&gt;&lt;span style=&quot;color: #d4d4d4;&quot;&gt;&amp;nbsp; &amp;nbsp; }&lt;/span&gt;&lt;/div&gt;&lt;/div&gt;&lt;/div&gt;&lt;/div&gt;&lt;/div&gt;&lt;/div&gt;" style="text;html=1;align=left;verticalAlign=middle;resizable=0;points=[];autosize=1;strokeColor=none;fillColor=none;" parent="yM_bUhSgiwBoC7ienWPF-181" vertex="1">
          <mxGeometry x="10" y="265" width="770" height="280" as="geometry" />
        </mxCell>
        <mxCell id="yM_bUhSgiwBoC7ienWPF-23" value="&lt;font color=&quot;#cc0000&quot;&gt;&lt;i&gt;Form action&lt;/i&gt;&lt;/font&gt;" style="endArrow=block;endFill=1;html=1;edgeStyle=orthogonalEdgeStyle;align=left;verticalAlign=top;rounded=0;exitX=1;exitY=0.5;exitDx=0;exitDy=0;entryX=-0.005;entryY=0.199;entryDx=0;entryDy=0;entryPerimeter=0;strokeColor=#ae4132;fillColor=#fad9d5;strokeWidth=2;" parent="1" source="yM_bUhSgiwBoC7ienWPF-31" target="yM_bUhSgiwBoC7ienWPF-26" edge="1">
          <mxGeometry x="-1" relative="1" as="geometry">
            <mxPoint x="465" y="120" as="sourcePoint" />
            <mxPoint x="530" y="120" as="targetPoint" />
          </mxGeometry>
        </mxCell>
        <mxCell id="yM_bUhSgiwBoC7ienWPF-20" value="Root" style="swimlane;whiteSpace=wrap;html=1;movable=1;resizable=1;rotatable=1;deletable=1;editable=1;locked=0;connectable=1;fillColor=#e1d5e7;strokeColor=#9673a6;" parent="1" vertex="1">
          <mxGeometry y="40" width="200" height="1440" as="geometry" />
        </mxCell>
        <mxCell id="yM_bUhSgiwBoC7ienWPF-68" value="registration.php" style="swimlane;strokeColor=#56517e;fillColor=#d0cee2;" parent="yM_bUhSgiwBoC7ienWPF-20" vertex="1" collapsed="1">
          <mxGeometry x="45" y="70" width="120" height="30" as="geometry">
            <mxRectangle x="40" y="65" width="130" height="210" as="alternateBounds" />
          </mxGeometry>
        </mxCell>
        <mxCell id="yM_bUhSgiwBoC7ienWPF-69" value="&lt;div style=&quot;color: rgb(204, 204, 204); background-color: rgb(31, 31, 31); font-family: Consolas, &amp;quot;Courier New&amp;quot;, monospace; font-size: 14px; line-height: 19px; white-space-collapse: preserve;&quot;&gt;&lt;div&gt;&lt;span style=&quot;color: #569cd6;&quot;&gt;&amp;lt;?php&lt;/span&gt;&lt;/div&gt;&lt;div&gt;&lt;span style=&quot;color: #6a9955;&quot;&gt;//registration.php&lt;/span&gt;&lt;/div&gt;&lt;br&gt;&lt;div&gt;&lt;span style=&quot;color: #c586c0;&quot;&gt;declare&lt;/span&gt;&lt;span style=&quot;color: #d4d4d4;&quot;&gt;(strict_types=&lt;/span&gt;&lt;span style=&quot;color: #b5cea8;&quot;&gt;1&lt;/span&gt;&lt;span style=&quot;color: #d4d4d4;&quot;&gt;);&lt;/span&gt;&lt;/div&gt;&lt;br&gt;&lt;div&gt;&lt;span style=&quot;color: #9cdcfe;&quot;&gt;$error&lt;/span&gt;&lt;span style=&quot;color: #d4d4d4;&quot;&gt; = &lt;/span&gt;&lt;span style=&quot;color: #9cdcfe;&quot;&gt;$_GET&lt;/span&gt;&lt;span style=&quot;color: #d4d4d4;&quot;&gt;[&lt;/span&gt;&lt;span style=&quot;color: #ce9178;&quot;&gt;&#39;error&#39;&lt;/span&gt;&lt;span style=&quot;color: #d4d4d4;&quot;&gt;] ?? &lt;/span&gt;&lt;span style=&quot;color: #ce9178;&quot;&gt;&#39;&#39;&lt;/span&gt;&lt;span style=&quot;color: #d4d4d4;&quot;&gt;;&lt;/span&gt;&lt;/div&gt;&lt;br&gt;&lt;div&gt;&lt;span style=&quot;color: #c586c0;&quot;&gt;include&lt;/span&gt;&lt;span style=&quot;color: #d4d4d4;&quot;&gt;(&lt;/span&gt;&lt;span style=&quot;color: #ce9178;&quot;&gt;&quot;presentation/registerForm.php&quot;&lt;/span&gt;&lt;span style=&quot;color: #d4d4d4;&quot;&gt;);&lt;/span&gt;&lt;/div&gt;&lt;/div&gt;" style="text;html=1;align=left;verticalAlign=middle;resizable=0;points=[];autosize=1;strokeColor=none;fillColor=none;" parent="yM_bUhSgiwBoC7ienWPF-68" vertex="1">
          <mxGeometry x="40" y="30" width="340" height="170" as="geometry" />
        </mxCell>
        <mxCell id="yM_bUhSgiwBoC7ienWPF-101" value="login.php" style="swimlane;strokeColor=#56517e;fillColor=#d0cee2;" parent="yM_bUhSgiwBoC7ienWPF-20" vertex="1" collapsed="1">
          <mxGeometry x="45" y="280" width="120" height="30" as="geometry">
            <mxRectangle x="30" y="290" width="120" height="210" as="alternateBounds" />
          </mxGeometry>
        </mxCell>
        <mxCell id="yM_bUhSgiwBoC7ienWPF-102" value="&lt;div style=&quot;color: rgb(204, 204, 204); background-color: rgb(31, 31, 31); font-family: Consolas, &amp;quot;Courier New&amp;quot;, monospace; font-size: 14px; line-height: 19px; white-space-collapse: preserve;&quot;&gt;&lt;div style=&quot;line-height: 19px;&quot;&gt;&lt;div&gt;&lt;span style=&quot;color: #569cd6;&quot;&gt;&amp;lt;?php&lt;/span&gt;&lt;/div&gt;&lt;div&gt;&lt;span style=&quot;color: #6a9955;&quot;&gt;//login.php&lt;/span&gt;&lt;/div&gt;&lt;br&gt;&lt;div&gt;&lt;span style=&quot;color: #c586c0;&quot;&gt;declare&lt;/span&gt;&lt;span style=&quot;color: #d4d4d4;&quot;&gt;(strict_types=&lt;/span&gt;&lt;span style=&quot;color: #b5cea8;&quot;&gt;1&lt;/span&gt;&lt;span style=&quot;color: #d4d4d4;&quot;&gt;);&lt;/span&gt;&lt;/div&gt;&lt;br&gt;&lt;div&gt;&lt;span style=&quot;color: #9cdcfe;&quot;&gt;$error&lt;/span&gt;&lt;span style=&quot;color: #d4d4d4;&quot;&gt; = &lt;/span&gt;&lt;span style=&quot;color: #9cdcfe;&quot;&gt;$_GET&lt;/span&gt;&lt;span style=&quot;color: #d4d4d4;&quot;&gt;[&lt;/span&gt;&lt;span style=&quot;color: #ce9178;&quot;&gt;&#39;error&#39;&lt;/span&gt;&lt;span style=&quot;color: #d4d4d4;&quot;&gt;] ?? &lt;/span&gt;&lt;span style=&quot;color: #ce9178;&quot;&gt;&#39;&#39;&lt;/span&gt;&lt;span style=&quot;color: #d4d4d4;&quot;&gt;;&lt;/span&gt;&lt;/div&gt;&lt;br&gt;&lt;div&gt;&lt;span style=&quot;color: #c586c0;&quot;&gt;include&lt;/span&gt;&lt;span style=&quot;color: #d4d4d4;&quot;&gt;(&lt;/span&gt;&lt;span style=&quot;color: #ce9178;&quot;&gt;&quot;presentation/loginForm.php&quot;&lt;/span&gt;&lt;span style=&quot;color: #d4d4d4;&quot;&gt;);&lt;/span&gt;&lt;/div&gt;&lt;br&gt;&lt;/div&gt;&lt;/div&gt;" style="text;html=1;align=left;verticalAlign=middle;resizable=0;points=[];autosize=1;strokeColor=none;fillColor=none;" parent="yM_bUhSgiwBoC7ienWPF-101" vertex="1">
          <mxGeometry x="40" y="25" width="320" height="180" as="geometry" />
        </mxCell>
        <mxCell id="yM_bUhSgiwBoC7ienWPF-115" value="toonbroodjes.php" style="swimlane;strokeColor=#56517e;fillColor=#d0cee2;" parent="yM_bUhSgiwBoC7ienWPF-20" vertex="1" collapsed="1">
          <mxGeometry x="50" y="520" width="120" height="30" as="geometry">
            <mxRectangle x="40" y="520" width="170" height="510" as="alternateBounds" />
          </mxGeometry>
        </mxCell>
        <mxCell id="yM_bUhSgiwBoC7ienWPF-116" value="&lt;div style=&quot;color: rgb(204, 204, 204); background-color: rgb(31, 31, 31); font-family: Consolas, &amp;quot;Courier New&amp;quot;, monospace; font-size: 14px; line-height: 19px; white-space-collapse: preserve;&quot;&gt;&lt;div style=&quot;line-height: 19px;&quot;&gt;&lt;div style=&quot;line-height: 19px;&quot;&gt;&lt;div&gt;&lt;span style=&quot;color: #569cd6;&quot;&gt;&amp;lt;?php&lt;/span&gt;&lt;/div&gt;&lt;div&gt;&lt;span style=&quot;color: #6a9955;&quot;&gt;//toonbroodjes.php&lt;/span&gt;&lt;/div&gt;&lt;br&gt;&lt;div&gt;&lt;span style=&quot;color: #c586c0;&quot;&gt;declare&lt;/span&gt;&lt;span style=&quot;color: #d4d4d4;&quot;&gt;(strict_types=&lt;/span&gt;&lt;span style=&quot;color: #b5cea8;&quot;&gt;1&lt;/span&gt;&lt;span style=&quot;color: #d4d4d4;&quot;&gt;);&lt;/span&gt;&lt;/div&gt;&lt;br&gt;&lt;div&gt;&lt;span style=&quot;color: #dcdcaa;&quot;&gt;session_start&lt;/span&gt;&lt;span style=&quot;color: #d4d4d4;&quot;&gt;();&lt;/span&gt;&lt;/div&gt;&lt;br&gt;&lt;div&gt;&lt;span style=&quot;color: #dcdcaa;&quot;&gt;spl_autoload_register&lt;/span&gt;&lt;span style=&quot;color: #d4d4d4;&quot;&gt;();&lt;/span&gt;&lt;/div&gt;&lt;br&gt;&lt;div&gt;&lt;span style=&quot;color: #569cd6;&quot;&gt;use&lt;/span&gt;&lt;span style=&quot;color: #d4d4d4;&quot;&gt; Business\&lt;/span&gt;&lt;span style=&quot;color: #4ec9b0;&quot;&gt;BroodService&lt;/span&gt;&lt;span style=&quot;color: #d4d4d4;&quot;&gt;;&lt;/span&gt;&lt;/div&gt;&lt;div&gt;&lt;span style=&quot;color: #569cd6;&quot;&gt;use&lt;/span&gt;&lt;span style=&quot;color: #d4d4d4;&quot;&gt; Business\&lt;/span&gt;&lt;span style=&quot;color: #4ec9b0;&quot;&gt;ExtraService&lt;/span&gt;&lt;span style=&quot;color: #d4d4d4;&quot;&gt;;&lt;/span&gt;&lt;/div&gt;&lt;br&gt;&lt;div&gt;&lt;span style=&quot;color: #c586c0;&quot;&gt;if&lt;/span&gt;&lt;span style=&quot;color: #d4d4d4;&quot;&gt; (!&lt;/span&gt;&lt;span style=&quot;color: #dcdcaa;&quot;&gt;isset&lt;/span&gt;&lt;span style=&quot;color: #d4d4d4;&quot;&gt;(&lt;/span&gt;&lt;span style=&quot;color: #9cdcfe;&quot;&gt;$_SESSION&lt;/span&gt;&lt;span style=&quot;color: #d4d4d4;&quot;&gt;[&lt;/span&gt;&lt;span style=&quot;color: #ce9178;&quot;&gt;&#39;loggedin&#39;&lt;/span&gt;&lt;span style=&quot;color: #d4d4d4;&quot;&gt;]) || &lt;/span&gt;&lt;span style=&quot;color: #9cdcfe;&quot;&gt;$_SESSION&lt;/span&gt;&lt;span style=&quot;color: #d4d4d4;&quot;&gt;[&lt;/span&gt;&lt;span style=&quot;color: #ce9178;&quot;&gt;&#39;loggedin&#39;&lt;/span&gt;&lt;span style=&quot;color: #d4d4d4;&quot;&gt;] !== &lt;/span&gt;&lt;span style=&quot;color: #569cd6;&quot;&gt;true&lt;/span&gt;&lt;span style=&quot;color: #d4d4d4;&quot;&gt;) {&lt;/span&gt;&lt;/div&gt;&lt;div&gt;&lt;span style=&quot;color: #d4d4d4;&quot;&gt;&amp;nbsp; &amp;nbsp; &lt;/span&gt;&lt;span style=&quot;color: #dcdcaa;&quot;&gt;header&lt;/span&gt;&lt;span style=&quot;color: #d4d4d4;&quot;&gt;(&lt;/span&gt;&lt;span style=&quot;color: #ce9178;&quot;&gt;&#39;Location: login.php&#39;&lt;/span&gt;&lt;span style=&quot;color: #d4d4d4;&quot;&gt;);&lt;/span&gt;&lt;/div&gt;&lt;div&gt;&lt;span style=&quot;color: #d4d4d4;&quot;&gt;&amp;nbsp; &amp;nbsp; &lt;/span&gt;&lt;span style=&quot;color: #c586c0;&quot;&gt;exit&lt;/span&gt;&lt;span style=&quot;color: #d4d4d4;&quot;&gt;;&lt;/span&gt;&lt;/div&gt;&lt;div&gt;&lt;span style=&quot;color: #d4d4d4;&quot;&gt;}&lt;/span&gt;&lt;/div&gt;&lt;br&gt;&lt;div&gt;&lt;span style=&quot;color: #9cdcfe;&quot;&gt;$broodSvc&lt;/span&gt;&lt;span style=&quot;color: #d4d4d4;&quot;&gt; = &lt;/span&gt;&lt;span style=&quot;color: #569cd6;&quot;&gt;new&lt;/span&gt;&lt;span style=&quot;color: #d4d4d4;&quot;&gt; &lt;/span&gt;&lt;span style=&quot;color: #4ec9b0;&quot;&gt;BroodService&lt;/span&gt;&lt;span style=&quot;color: #d4d4d4;&quot;&gt;();&lt;/span&gt;&lt;/div&gt;&lt;div&gt;&lt;span style=&quot;color: #9cdcfe;&quot;&gt;$broodjes&lt;/span&gt;&lt;span style=&quot;color: #d4d4d4;&quot;&gt; = &lt;/span&gt;&lt;span style=&quot;color: #9cdcfe;&quot;&gt;$broodSvc&lt;/span&gt;&lt;span style=&quot;color: #d4d4d4;&quot;&gt;-&amp;gt;&lt;/span&gt;&lt;span style=&quot;color: #dcdcaa;&quot;&gt;getAlleBroodjes&lt;/span&gt;&lt;span style=&quot;color: #d4d4d4;&quot;&gt;();&lt;/span&gt;&lt;/div&gt;&lt;br&gt;&lt;br&gt;&lt;div&gt;&lt;span style=&quot;color: #c586c0;&quot;&gt;include&lt;/span&gt;&lt;span style=&quot;color: #d4d4d4;&quot;&gt;(&lt;/span&gt;&lt;span style=&quot;color: #ce9178;&quot;&gt;&quot;presentation/broodLijst.php&quot;&lt;/span&gt;&lt;span style=&quot;color: #d4d4d4;&quot;&gt;);&lt;/span&gt;&lt;/div&gt;&lt;br&gt;&lt;/div&gt;&lt;/div&gt;&lt;/div&gt;" style="text;html=1;align=left;verticalAlign=middle;resizable=0;points=[];autosize=1;strokeColor=none;fillColor=none;" parent="yM_bUhSgiwBoC7ienWPF-115" vertex="1">
          <mxGeometry x="20" y="60" width="560" height="450" as="geometry" />
        </mxCell>
        <mxCell id="yM_bUhSgiwBoC7ienWPF-184" value="toonextras.php" style="swimlane;strokeColor=#56517e;fillColor=#d0cee2;" parent="yM_bUhSgiwBoC7ienWPF-20" vertex="1" collapsed="1">
          <mxGeometry x="45" y="750" width="120" height="30" as="geometry">
            <mxRectangle x="30" y="570" width="170" height="510" as="alternateBounds" />
          </mxGeometry>
        </mxCell>
        <mxCell id="yM_bUhSgiwBoC7ienWPF-185" value="&lt;div style=&quot;color: rgb(204, 204, 204); background-color: rgb(31, 31, 31); font-family: Consolas, &amp;quot;Courier New&amp;quot;, monospace; font-size: 14px; line-height: 19px; white-space-collapse: preserve;&quot;&gt;&lt;div style=&quot;line-height: 19px;&quot;&gt;&lt;div style=&quot;line-height: 19px;&quot;&gt;&lt;div&gt;&lt;span style=&quot;color: #569cd6;&quot;&gt;&amp;lt;?php&lt;/span&gt;&lt;/div&gt;&lt;div&gt;&lt;span style=&quot;color: #6a9955;&quot;&gt;//toonbroodjes.php&lt;/span&gt;&lt;/div&gt;&lt;br&gt;&lt;div&gt;&lt;span style=&quot;color: #c586c0;&quot;&gt;declare&lt;/span&gt;&lt;span style=&quot;color: #d4d4d4;&quot;&gt;(strict_types=&lt;/span&gt;&lt;span style=&quot;color: #b5cea8;&quot;&gt;1&lt;/span&gt;&lt;span style=&quot;color: #d4d4d4;&quot;&gt;);&lt;/span&gt;&lt;/div&gt;&lt;br&gt;&lt;div&gt;&lt;span style=&quot;color: #dcdcaa;&quot;&gt;session_start&lt;/span&gt;&lt;span style=&quot;color: #d4d4d4;&quot;&gt;();&lt;/span&gt;&lt;/div&gt;&lt;br&gt;&lt;div&gt;&lt;span style=&quot;color: #dcdcaa;&quot;&gt;spl_autoload_register&lt;/span&gt;&lt;span style=&quot;color: #d4d4d4;&quot;&gt;();&lt;/span&gt;&lt;/div&gt;&lt;br&gt;&lt;div&gt;&lt;span style=&quot;color: #569cd6;&quot;&gt;use&lt;/span&gt;&lt;span style=&quot;color: #d4d4d4;&quot;&gt; Business\&lt;/span&gt;&lt;span style=&quot;color: #4ec9b0;&quot;&gt;BroodService&lt;/span&gt;&lt;span style=&quot;color: #d4d4d4;&quot;&gt;;&lt;/span&gt;&lt;/div&gt;&lt;div&gt;&lt;span style=&quot;color: #569cd6;&quot;&gt;use&lt;/span&gt;&lt;span style=&quot;color: #d4d4d4;&quot;&gt; Business\&lt;/span&gt;&lt;span style=&quot;color: #4ec9b0;&quot;&gt;ExtraService&lt;/span&gt;&lt;span style=&quot;color: #d4d4d4;&quot;&gt;;&lt;/span&gt;&lt;/div&gt;&lt;br&gt;&lt;div&gt;&lt;span style=&quot;color: #c586c0;&quot;&gt;if&lt;/span&gt;&lt;span style=&quot;color: #d4d4d4;&quot;&gt; (!&lt;/span&gt;&lt;span style=&quot;color: #dcdcaa;&quot;&gt;isset&lt;/span&gt;&lt;span style=&quot;color: #d4d4d4;&quot;&gt;(&lt;/span&gt;&lt;span style=&quot;color: #9cdcfe;&quot;&gt;$_SESSION&lt;/span&gt;&lt;span style=&quot;color: #d4d4d4;&quot;&gt;[&lt;/span&gt;&lt;span style=&quot;color: #ce9178;&quot;&gt;&#39;loggedin&#39;&lt;/span&gt;&lt;span style=&quot;color: #d4d4d4;&quot;&gt;]) || &lt;/span&gt;&lt;span style=&quot;color: #9cdcfe;&quot;&gt;$_SESSION&lt;/span&gt;&lt;span style=&quot;color: #d4d4d4;&quot;&gt;[&lt;/span&gt;&lt;span style=&quot;color: #ce9178;&quot;&gt;&#39;loggedin&#39;&lt;/span&gt;&lt;span style=&quot;color: #d4d4d4;&quot;&gt;] !== &lt;/span&gt;&lt;span style=&quot;color: #569cd6;&quot;&gt;true&lt;/span&gt;&lt;span style=&quot;color: #d4d4d4;&quot;&gt;) {&lt;/span&gt;&lt;/div&gt;&lt;div&gt;&lt;span style=&quot;color: #d4d4d4;&quot;&gt;&amp;nbsp; &amp;nbsp; &lt;/span&gt;&lt;span style=&quot;color: #dcdcaa;&quot;&gt;header&lt;/span&gt;&lt;span style=&quot;color: #d4d4d4;&quot;&gt;(&lt;/span&gt;&lt;span style=&quot;color: #ce9178;&quot;&gt;&#39;Location: login.php&#39;&lt;/span&gt;&lt;span style=&quot;color: #d4d4d4;&quot;&gt;);&lt;/span&gt;&lt;/div&gt;&lt;div&gt;&lt;span style=&quot;color: #d4d4d4;&quot;&gt;&amp;nbsp; &amp;nbsp; &lt;/span&gt;&lt;span style=&quot;color: #c586c0;&quot;&gt;exit&lt;/span&gt;&lt;span style=&quot;color: #d4d4d4;&quot;&gt;;&lt;/span&gt;&lt;/div&gt;&lt;div&gt;&lt;span style=&quot;color: #d4d4d4;&quot;&gt;}&lt;/span&gt;&lt;/div&gt;&lt;br&gt;&lt;div&gt;&lt;span style=&quot;color: #9cdcfe;&quot;&gt;$broodSvc&lt;/span&gt;&lt;span style=&quot;color: #d4d4d4;&quot;&gt; = &lt;/span&gt;&lt;span style=&quot;color: #569cd6;&quot;&gt;new&lt;/span&gt;&lt;span style=&quot;color: #d4d4d4;&quot;&gt; &lt;/span&gt;&lt;span style=&quot;color: #4ec9b0;&quot;&gt;BroodService&lt;/span&gt;&lt;span style=&quot;color: #d4d4d4;&quot;&gt;();&lt;/span&gt;&lt;/div&gt;&lt;div&gt;&lt;span style=&quot;color: #9cdcfe;&quot;&gt;$broodjes&lt;/span&gt;&lt;span style=&quot;color: #d4d4d4;&quot;&gt; = &lt;/span&gt;&lt;span style=&quot;color: #9cdcfe;&quot;&gt;$broodSvc&lt;/span&gt;&lt;span style=&quot;color: #d4d4d4;&quot;&gt;-&amp;gt;&lt;/span&gt;&lt;span style=&quot;color: #dcdcaa;&quot;&gt;getAlleBroodjes&lt;/span&gt;&lt;span style=&quot;color: #d4d4d4;&quot;&gt;();&lt;/span&gt;&lt;/div&gt;&lt;br&gt;&lt;br&gt;&lt;div&gt;&lt;span style=&quot;color: #c586c0;&quot;&gt;include&lt;/span&gt;&lt;span style=&quot;color: #d4d4d4;&quot;&gt;(&lt;/span&gt;&lt;span style=&quot;color: #ce9178;&quot;&gt;&quot;presentation/broodLijst.php&quot;&lt;/span&gt;&lt;span style=&quot;color: #d4d4d4;&quot;&gt;);&lt;/span&gt;&lt;/div&gt;&lt;br&gt;&lt;/div&gt;&lt;/div&gt;&lt;/div&gt;" style="text;html=1;align=left;verticalAlign=middle;resizable=0;points=[];autosize=1;strokeColor=none;fillColor=none;" parent="yM_bUhSgiwBoC7ienWPF-184" vertex="1">
          <mxGeometry x="20" y="60" width="560" height="450" as="geometry" />
        </mxCell>
        <mxCell id="yM_bUhSgiwBoC7ienWPF-190" value="" style="html=1;verticalLabelPosition=bottom;align=center;labelBackgroundColor=#ffffff;verticalAlign=top;strokeWidth=2;strokeColor=#9673a6;shadow=0;dashed=0;shape=mxgraph.ios7.icons.eye;fillColor=#e1d5e7;" parent="yM_bUhSgiwBoC7ienWPF-20" vertex="1">
          <mxGeometry x="87.5" y="30" width="35" height="20" as="geometry" />
        </mxCell>
        <mxCell id="yM_bUhSgiwBoC7ienWPF-137" style="edgeStyle=orthogonalEdgeStyle;rounded=0;orthogonalLoop=1;jettySize=auto;html=1;exitX=0.5;exitY=1;exitDx=0;exitDy=0;entryX=0.012;entryY=0.648;entryDx=0;entryDy=0;strokeColor=#d79b00;dashed=1;fillColor=#ffe6cc;fontColor=default;strokeWidth=2;entryPerimeter=0;" parent="yM_bUhSgiwBoC7ienWPF-20" target="yM_bUhSgiwBoC7ienWPF-114" edge="1">
          <mxGeometry relative="1" as="geometry">
            <mxPoint x="122.5" y="550" as="sourcePoint" />
            <mxPoint x="-687.5" y="560" as="targetPoint" />
            <Array as="points">
              <mxPoint x="123" y="590" />
              <mxPoint x="260" y="590" />
              <mxPoint x="260" y="546" />
            </Array>
          </mxGeometry>
        </mxCell>
        <mxCell id="yM_bUhSgiwBoC7ienWPF-192" value="toonMandje.php" style="swimlane;strokeColor=#56517e;fillColor=#d0cee2;" parent="yM_bUhSgiwBoC7ienWPF-20" vertex="1" collapsed="1">
          <mxGeometry x="40" y="1150" width="120" height="30" as="geometry">
            <mxRectangle x="40" y="1150" width="130" height="30" as="alternateBounds" />
          </mxGeometry>
        </mxCell>
        <mxCell id="yM_bUhSgiwBoC7ienWPF-193" value="&lt;div style=&quot;color: rgb(204, 204, 204); background-color: rgb(31, 31, 31); font-family: Consolas, &amp;quot;Courier New&amp;quot;, monospace; font-size: 14px; line-height: 19px; white-space-collapse: preserve;&quot;&gt;&lt;div style=&quot;line-height: 19px;&quot;&gt;&lt;div style=&quot;line-height: 19px;&quot;&gt;&lt;div&gt;&lt;div style=&quot;line-height: 19px;&quot;&gt;&lt;div&gt;&lt;span style=&quot;color: #569cd6;&quot;&gt;&amp;lt;?php&lt;/span&gt;&lt;/div&gt;&lt;div&gt;&lt;span style=&quot;color: #6a9955;&quot;&gt;// toonMandje.php&lt;/span&gt;&lt;/div&gt;&lt;br&gt;&lt;div&gt;&lt;span style=&quot;color: #c586c0;&quot;&gt;declare&lt;/span&gt;&lt;span style=&quot;color: #d4d4d4;&quot;&gt;(strict_types=&lt;/span&gt;&lt;span style=&quot;color: #b5cea8;&quot;&gt;1&lt;/span&gt;&lt;span style=&quot;color: #d4d4d4;&quot;&gt;);&lt;/span&gt;&lt;/div&gt;&lt;br&gt;&lt;div&gt;&lt;span style=&quot;color: #dcdcaa;&quot;&gt;spl_autoload_register&lt;/span&gt;&lt;span style=&quot;color: #d4d4d4;&quot;&gt;();&lt;/span&gt;&lt;/div&gt;&lt;br&gt;&lt;div&gt;&lt;span style=&quot;color: #9cdcfe;&quot;&gt;$title&lt;/span&gt;&lt;span style=&quot;color: #d4d4d4;&quot;&gt; = &lt;/span&gt;&lt;span style=&quot;color: #ce9178;&quot;&gt;&quot;Bestel Overzicht&quot;&lt;/span&gt;&lt;span style=&quot;color: #d4d4d4;&quot;&gt;;&lt;/span&gt;&lt;/div&gt;&lt;br&gt;&lt;div&gt;&lt;span style=&quot;color: #569cd6;&quot;&gt;use&lt;/span&gt;&lt;span style=&quot;color: #d4d4d4;&quot;&gt; Business\&lt;/span&gt;&lt;span style=&quot;color: #4ec9b0;&quot;&gt;SessionService&lt;/span&gt;&lt;span style=&quot;color: #d4d4d4;&quot;&gt;;&lt;/span&gt;&lt;/div&gt;&lt;br&gt;&lt;div&gt;&lt;span style=&quot;color: #9cdcfe;&quot;&gt;$user&lt;/span&gt;&lt;span style=&quot;color: #d4d4d4;&quot;&gt; = &lt;/span&gt;&lt;span style=&quot;color: #4ec9b0;&quot;&gt;SessionService&lt;/span&gt;&lt;span style=&quot;color: #d4d4d4;&quot;&gt;::&lt;/span&gt;&lt;span style=&quot;color: #dcdcaa;&quot;&gt;getUser&lt;/span&gt;&lt;span style=&quot;color: #d4d4d4;&quot;&gt;();&lt;/span&gt;&lt;/div&gt;&lt;br&gt;&lt;br&gt;&lt;div&gt;&lt;span style=&quot;color: #c586c0;&quot;&gt;include&lt;/span&gt;&lt;span style=&quot;color: #d4d4d4;&quot;&gt;(&lt;/span&gt;&lt;span style=&quot;color: #ce9178;&quot;&gt;&quot;presentation/bestelOverzicht.php&quot;&lt;/span&gt;&lt;span style=&quot;color: #d4d4d4;&quot;&gt;);&lt;/span&gt;&lt;/div&gt;&lt;br&gt;&lt;/div&gt;&lt;/div&gt;&lt;/div&gt;&lt;/div&gt;&lt;/div&gt;" style="text;html=1;align=left;verticalAlign=middle;resizable=0;points=[];autosize=1;strokeColor=none;fillColor=none;" parent="yM_bUhSgiwBoC7ienWPF-192" vertex="1">
          <mxGeometry x="20" y="125" width="360" height="320" as="geometry" />
        </mxCell>
        <mxCell id="yM_bUhSgiwBoC7ienWPF-127" style="edgeStyle=orthogonalEdgeStyle;rounded=0;orthogonalLoop=1;jettySize=auto;html=1;exitX=1;exitY=0.5;exitDx=0;exitDy=0;strokeColor=#d79b00;fillColor=#ffe6cc;fontColor=default;entryX=0.018;entryY=0.16;entryDx=0;entryDy=0;entryPerimeter=0;" parent="1" source="yM_bUhSgiwBoC7ienWPF-114" target="yM_bUhSgiwBoC7ienWPF-117" edge="1">
          <mxGeometry relative="1" as="geometry">
            <mxPoint x="710" y="587" as="targetPoint" />
            <Array as="points">
              <mxPoint x="390" y="587" />
              <mxPoint x="450" y="587" />
              <mxPoint x="450" y="584" />
            </Array>
          </mxGeometry>
        </mxCell>
        <mxCell id="yM_bUhSgiwBoC7ienWPF-136" style="edgeStyle=orthogonalEdgeStyle;rounded=0;orthogonalLoop=1;jettySize=auto;html=1;strokeColor=#6c8ebf;dashed=1;fillColor=#dae8fc;exitX=0.5;exitY=1;exitDx=0;exitDy=0;strokeWidth=2;entryX=0.5;entryY=1;entryDx=0;entryDy=0;" parent="1" source="yM_bUhSgiwBoC7ienWPF-101" target="yM_bUhSgiwBoC7ienWPF-61" edge="1">
          <mxGeometry relative="1" as="geometry">
            <Array as="points">
              <mxPoint x="105" y="400" />
              <mxPoint x="340" y="400" />
            </Array>
          </mxGeometry>
        </mxCell>
        <mxCell id="yM_bUhSgiwBoC7ienWPF-70" value="&lt;i&gt;&lt;font color=&quot;#007fff&quot;&gt;Form action&lt;/font&gt;&lt;/i&gt;" style="endArrow=block;endFill=1;html=1;edgeStyle=orthogonalEdgeStyle;align=left;verticalAlign=top;rounded=0;exitX=1;exitY=0.5;exitDx=0;exitDy=0;entryX=0.011;entryY=0.038;entryDx=0;entryDy=0;entryPerimeter=0;strokeColor=#6c8ebf;fillColor=#dae8fc;strokeWidth=2;" parent="1" source="yM_bUhSgiwBoC7ienWPF-61" target="yM_bUhSgiwBoC7ienWPF-62" edge="1">
          <mxGeometry x="-1" relative="1" as="geometry">
            <mxPoint x="460" y="309.58000000000004" as="sourcePoint" />
            <mxPoint x="549" y="309.58000000000004" as="targetPoint" />
            <Array as="points">
              <mxPoint x="440" y="324" />
              <mxPoint x="440" y="313" />
            </Array>
          </mxGeometry>
        </mxCell>
        <mxCell id="yM_bUhSgiwBoC7ienWPF-153" value="&lt;font color=&quot;#009900&quot;&gt;&lt;i&gt;Form action&lt;/i&gt;&lt;/font&gt;" style="endArrow=block;endFill=1;html=1;edgeStyle=orthogonalEdgeStyle;align=left;verticalAlign=top;rounded=0;exitX=1;exitY=0.25;exitDx=0;exitDy=0;strokeColor=#82b366;fillColor=#d5e8d4;strokeWidth=2;" parent="1" source="yM_bUhSgiwBoC7ienWPF-144" target="yM_bUhSgiwBoC7ienWPF-145" edge="1">
          <mxGeometry x="-0.3333" relative="1" as="geometry">
            <mxPoint x="460" y="806" as="sourcePoint" />
            <mxPoint x="510" y="800" as="targetPoint" />
            <Array as="points">
              <mxPoint x="500" y="800" />
              <mxPoint x="500" y="800" />
            </Array>
            <mxPoint as="offset" />
          </mxGeometry>
        </mxCell>
        <mxCell id="yM_bUhSgiwBoC7ienWPF-200" style="edgeStyle=orthogonalEdgeStyle;rounded=0;orthogonalLoop=1;jettySize=auto;html=1;exitX=0;exitY=0.5;exitDx=0;exitDy=0;entryX=1;entryY=0.5;entryDx=0;entryDy=0;fillColor=#f8cecc;strokeColor=#b85450;dashed=1;dashPattern=1 2;strokeWidth=2;" parent="1" source="yM_bUhSgiwBoC7ienWPF-52" target="yM_bUhSgiwBoC7ienWPF-41" edge="1">
          <mxGeometry relative="1" as="geometry" />
        </mxCell>
        <mxCell id="yM_bUhSgiwBoC7ienWPF-201" style="edgeStyle=orthogonalEdgeStyle;rounded=0;orthogonalLoop=1;jettySize=auto;html=1;exitX=0;exitY=0.5;exitDx=0;exitDy=0;entryX=1;entryY=0.5;entryDx=0;entryDy=0;fillColor=#f8cecc;strokeColor=#b85450;dashed=1;dashPattern=1 2;strokeWidth=2;" parent="1" source="yM_bUhSgiwBoC7ienWPF-41" target="yM_bUhSgiwBoC7ienWPF-26" edge="1">
          <mxGeometry relative="1" as="geometry" />
        </mxCell>
        <mxCell id="yM_bUhSgiwBoC7ienWPF-202" style="edgeStyle=orthogonalEdgeStyle;rounded=0;orthogonalLoop=1;jettySize=auto;html=1;exitX=0;exitY=0.5;exitDx=0;exitDy=0;entryX=1;entryY=0.5;entryDx=0;entryDy=0;dashed=1;dashPattern=1 2;strokeWidth=2;fillColor=#dae8fc;strokeColor=#6c8ebf;" parent="1" source="yM_bUhSgiwBoC7ienWPF-105" target="yM_bUhSgiwBoC7ienWPF-73" edge="1">
          <mxGeometry relative="1" as="geometry" />
        </mxCell>
        <mxCell id="yM_bUhSgiwBoC7ienWPF-203" style="edgeStyle=orthogonalEdgeStyle;rounded=0;orthogonalLoop=1;jettySize=auto;html=1;exitX=0;exitY=0.5;exitDx=0;exitDy=0;entryX=1;entryY=0.25;entryDx=0;entryDy=0;strokeWidth=2;dashed=1;dashPattern=1 2;fillColor=#dae8fc;strokeColor=#6c8ebf;" parent="1" source="yM_bUhSgiwBoC7ienWPF-73" target="yM_bUhSgiwBoC7ienWPF-62" edge="1">
          <mxGeometry relative="1" as="geometry" />
        </mxCell>
        <mxCell id="yM_bUhSgiwBoC7ienWPF-204" style="edgeStyle=orthogonalEdgeStyle;rounded=0;orthogonalLoop=1;jettySize=auto;html=1;exitX=0;exitY=0.5;exitDx=0;exitDy=0;entryX=0.99;entryY=0.185;entryDx=0;entryDy=0;entryPerimeter=0;fillColor=#dae8fc;strokeColor=#6c8ebf;strokeWidth=2;dashed=1;dashPattern=1 2;" parent="1" source="yM_bUhSgiwBoC7ienWPF-89" target="yM_bUhSgiwBoC7ienWPF-86" edge="1">
          <mxGeometry relative="1" as="geometry" />
        </mxCell>
        <mxCell id="yM_bUhSgiwBoC7ienWPF-206" style="edgeStyle=orthogonalEdgeStyle;rounded=0;orthogonalLoop=1;jettySize=auto;html=1;exitX=0;exitY=0.5;exitDx=0;exitDy=0;entryX=1;entryY=0.5;entryDx=0;entryDy=0;fillColor=#ffe6cc;strokeColor=#d79b00;strokeWidth=2;dashed=1;dashPattern=1 2;" parent="1" source="yM_bUhSgiwBoC7ienWPF-130" target="yM_bUhSgiwBoC7ienWPF-119" edge="1">
          <mxGeometry relative="1" as="geometry">
            <Array as="points">
              <mxPoint x="980" y="611" />
            </Array>
          </mxGeometry>
        </mxCell>
        <mxCell id="yM_bUhSgiwBoC7ienWPF-207" style="edgeStyle=orthogonalEdgeStyle;rounded=0;orthogonalLoop=1;jettySize=auto;html=1;exitX=0;exitY=0.5;exitDx=0;exitDy=0;fillColor=#d5e8d4;strokeColor=#82b366;strokeWidth=2;dashed=1;dashPattern=1 2;" parent="1" source="yM_bUhSgiwBoC7ienWPF-174" target="yM_bUhSgiwBoC7ienWPF-155" edge="1">
          <mxGeometry relative="1" as="geometry" />
        </mxCell>
        <mxCell id="yM_bUhSgiwBoC7ienWPF-208" style="edgeStyle=orthogonalEdgeStyle;rounded=0;orthogonalLoop=1;jettySize=auto;html=1;exitX=0;exitY=0.5;exitDx=0;exitDy=0;entryX=1.004;entryY=0.678;entryDx=0;entryDy=0;entryPerimeter=0;strokeWidth=2;strokeColor=#82b366;fillColor=#d5e8d4;dashed=1;dashPattern=1 2;" parent="1" source="yM_bUhSgiwBoC7ienWPF-179" target="yM_bUhSgiwBoC7ienWPF-161" edge="1">
          <mxGeometry relative="1" as="geometry" />
        </mxCell>
        <mxCell id="yM_bUhSgiwBoC7ienWPF-138" style="edgeStyle=orthogonalEdgeStyle;rounded=0;orthogonalLoop=1;jettySize=auto;html=1;exitX=0.5;exitY=1;exitDx=0;exitDy=0;strokeColor=#ae4132;dashed=1;fillColor=#fad9d5;strokeWidth=2;entryX=0.5;entryY=1;entryDx=0;entryDy=0;" parent="1" source="yM_bUhSgiwBoC7ienWPF-68" target="yM_bUhSgiwBoC7ienWPF-31" edge="1">
          <mxGeometry relative="1" as="geometry">
            <mxPoint x="1295" y="130" as="sourcePoint" />
            <mxPoint x="320" y="130" as="targetPoint" />
            <Array as="points">
              <mxPoint x="110" y="140" />
              <mxPoint x="110" y="180" />
              <mxPoint x="330" y="180" />
            </Array>
          </mxGeometry>
        </mxCell>
        <mxCell id="yM_bUhSgiwBoC7ienWPF-210" style="edgeStyle=orthogonalEdgeStyle;rounded=0;orthogonalLoop=1;jettySize=auto;html=1;exitX=0.5;exitY=1;exitDx=0;exitDy=0;fillColor=#d5e8d4;strokeColor=#82b366;dashed=1;dashPattern=1 2;strokeWidth=2;entryX=0.5;entryY=1;entryDx=0;entryDy=0;" parent="1" source="yM_bUhSgiwBoC7ienWPF-184" target="yM_bUhSgiwBoC7ienWPF-144" edge="1">
          <mxGeometry relative="1" as="geometry">
            <Array as="points">
              <mxPoint x="105" y="860" />
              <mxPoint x="340" y="860" />
            </Array>
          </mxGeometry>
        </mxCell>
        <mxCell id="yM_bUhSgiwBoC7ienWPF-211" style="edgeStyle=orthogonalEdgeStyle;rounded=0;orthogonalLoop=1;jettySize=auto;html=1;exitX=0.5;exitY=1;exitDx=0;exitDy=0;entryX=0.5;entryY=1;entryDx=0;entryDy=0;fillColor=#e1d5e7;strokeColor=#B266FF;strokeWidth=2;dashed=1;dashPattern=1 2;" parent="1" source="yM_bUhSgiwBoC7ienWPF-192" target="yM_bUhSgiwBoC7ienWPF-191" edge="1">
          <mxGeometry relative="1" as="geometry" />
        </mxCell>
        <mxCell id="yM_bUhSgiwBoC7ienWPF-212" style="edgeStyle=orthogonalEdgeStyle;rounded=0;orthogonalLoop=1;jettySize=auto;html=1;exitX=0.5;exitY=0;exitDx=0;exitDy=0;entryX=0.452;entryY=0;entryDx=0;entryDy=0;entryPerimeter=0;strokeWidth=2;strokeColor=#B266FF;" parent="1" source="yM_bUhSgiwBoC7ienWPF-192" target="yM_bUhSgiwBoC7ienWPF-195" edge="1">
          <mxGeometry relative="1" as="geometry">
            <Array as="points">
              <mxPoint x="100" y="1160" />
              <mxPoint x="810" y="1160" />
            </Array>
          </mxGeometry>
        </mxCell>
        <mxCell id="yM_bUhSgiwBoC7ienWPF-214" style="edgeStyle=orthogonalEdgeStyle;rounded=0;orthogonalLoop=1;jettySize=auto;html=1;exitX=0;exitY=0.5;exitDx=0;exitDy=0;entryX=1.01;entryY=0.069;entryDx=0;entryDy=0;entryPerimeter=0;fillColor=#d5e8d4;strokeColor=#82b366;strokeWidth=2;dashed=1;dashPattern=1 2;" parent="1" source="yM_bUhSgiwBoC7ienWPF-154" target="yM_bUhSgiwBoC7ienWPF-145" edge="1">
          <mxGeometry relative="1" as="geometry" />
        </mxCell>
        <mxCell id="yM_bUhSgiwBoC7ienWPF-215" style="edgeStyle=orthogonalEdgeStyle;rounded=0;orthogonalLoop=1;jettySize=auto;html=1;exitX=0;exitY=0.25;exitDx=0;exitDy=0;entryX=1;entryY=0.5;entryDx=0;entryDy=0;fillColor=#d5e8d4;strokeColor=#82b366;strokeWidth=2;dashed=1;dashPattern=1 2;" parent="1" source="yM_bUhSgiwBoC7ienWPF-160" target="yM_bUhSgiwBoC7ienWPF-147" edge="1">
          <mxGeometry relative="1" as="geometry" />
        </mxCell>
        <mxCell id="yM_bUhSgiwBoC7ienWPF-216" style="edgeStyle=orthogonalEdgeStyle;rounded=0;orthogonalLoop=1;jettySize=auto;html=1;exitX=0;exitY=0.25;exitDx=0;exitDy=0;entryX=1.014;entryY=0.335;entryDx=0;entryDy=0;entryPerimeter=0;fillColor=#d5e8d4;strokeColor=#82b366;strokeWidth=2;dashed=1;dashPattern=1 2;" parent="1" source="yM_bUhSgiwBoC7ienWPF-164" target="yM_bUhSgiwBoC7ienWPF-149" edge="1">
          <mxGeometry relative="1" as="geometry" />
        </mxCell>
      </root>
    </mxGraphModel>
  </diagram>
</mxfile>
